<svg xmlns="http://www.w3.org/2000/svg" width="387" height="275" fill="none">
  <g clip-path="url(#a)">
    <path fill="#D0C5B9" fill-rule="evenodd" d="m364.031 232.206 1.118-2.04c.041.625-.419 2.083-1.118 2.04ZM27.891 59.263c-.143-.343.483.139-.425-.586l-1.567-.905s-.347-.2-.386-.203c-.444-.136-.293-.049-.606-.029l.206.34c.456.463-.211-.122.294.29.528.444 1.742 1.126 2.47 1.084l.015.01Zm326.306 182.84-.794 1.306c.35.403.417.601 1.009.863l.712-1.233-.918-.951-.009.015ZM46.647 59.047c.879-.895 1.675-2.901 1.666-3.93-.787.389-.954.573-1.42 1.486-.211.4-.47.812-.647 1.19-.678 1.313-.017 1.213.41 1.24l-.009.014Zm100.155 37.099c1.11-.322.995-.89 1.01-1.923.029-1.166.343-1.466-.928-2.119-.193.51-.176 1.14-.334 1.972-.143.7-.107.359-.051.993.07.922-.079.555.294 1.091l.009-.014ZM41.679 41.786c-.024-.515.024-.528.407-1.47.2-.485.358-.794.638-1.314l-.848-.41c-.755.366-.81.775-1.216 1.583-.355 1.52-.984 1.216.36 2.474l.653-.887.006.024Zm78.352 43.533c-1.005-.661-1.532-.724-2.605-1.023-1.196-.33-1.635-.824-2.288.342.842.526 1.685.773 2.642 1.065 1.148.342 1.611.83 2.251-.384ZM32.248 40.09c.082.208.036.181.011.608-.01.575-.211.018.02.733.652-.225.85-.812 1.008-.982l2.25-4.072c-1.383-.598-1.372-.372-2.156 1.16a25.542 25.542 0 0 0-1.142 2.568l.01-.015ZM184.7 104.756c.91-.497 2.105-4.517 1.97-5.397l-1.099-.394c-.523.801-.628 2.063-.83 2.969-.133.544-.229.99-.356 1.558-.174.822-.335.789.339 1.258l-.024.006Zm-40.547-10.08c1.183-.9.958-.51 1.295-2.138.208-1.023.106-1.402.043-2.441-.111-1.688-.202-3.584-1.187-4.594-.257.934.169 3.886.245 4.832.062.938.3 1.256.109 2.248-.158.83-.445 1.607-.481 2.087l-.024.006ZM36.197 43.973l.68 1.015c1.171-1.228 1.519-2.631 2.368-3.544.598-.898 1.785-2.778 1.737-3.949-.818-.672-.098.065-1.016-.225-.597-.184-.648-.514-1.24-.496.179 1.046.6.908 1.275 1.097l-3.796 6.087-.008.015Zm-2.599-.477c.86-1.247 1.758-2.453 2.557-3.836 1.657-2.872 1.56-2.948.723-3.551-.328.15-.149.014-.497.374-.43.433-1.814 3.142-2.055 3.664-.682 1.39-1.519 2.491-1.733 3.87.699.184.075.184.64-.131.056-.028.316-.339.38-.382l-.015-.008Zm217.167 159.457c1.164.491 1.036-.124 3.35-2.356.827-.805 2.708-2.846 2.663-4.055-1.114-.543-.89-.233-1.74.96-1.511 2.094-2.756 2.859-3.789 4.126-.774.957-.513 1.027-.484 1.325Zm-80.171-64.748c-.951.393-.517.443-1.335 1.895-.46.796-.964 1.668-1.501 2.32-1.057 1.274-2.128 2.259-3.211 3.578 1.391.583 1.283.18 2.309-.971 1.304-1.493 3.541-3.488 4.237-5.912.219-.796.029-.746-.499-.91Zm79.27 66.553-1.478-.713c-1.529 1.743-5.366 4.699-6.231 6.164 1.173.717 1.221.564 2.091-.316.639-.654 1.235-.991 1.848-1.599 1.286-1.323 2.566-2.147 3.761-3.521l.009-.015Zm-78.884-95.455c.27-.606.266-.668.287-1.157-.586-.238-.363-.451-.984.033-.441.346-1.46 2.564-1.678 3.08-.554 1.204-1.66 3.05-2.421 4.194-.837 1.241-2.651 3.06-.936 3.71 2.355-2.93 3.873-6.604 5.748-9.851l-.016-.009Zm-60.903 4.085c1.747-.695.78-3.058 2.585-8.029.4-1.112.942-1.841-.24-2.544-2.302 2.038-2.26 6.352-2.553 9.33-.08.836-.265.669.208 1.243Zm-.706 5.225c-.326 2.096 1.23 13.117 3.294 11.804.632-.398-.164-1.318-.648-2.88-.914-3.013-.952-6.323-1.372-7.788-.286-.967-.309-.719-1.274-1.136Zm164.215 19.923c.06-1.008-.697-1.124-2.433-2.086-1.736-.962-6.221-3.011-8.095-3.732-.877-.326-.884-.35-1.453.183.873 1.447 4.288 2.356 5.922 3.179 1 .497 1.98 1.063 2.979 1.56.53.265 1.051.546 1.59.797.812.369.859.496 1.505.108l-.015-.009Zm-155.433-5.092c.244.342.429.509 1.051.547.092.014 1.072-.082 1.12-.095l11.12-2.239c.443-.105 3.487-.853 3.823-1.12.326-.253 1.076-1.203-1.489-.519-.856.228-1.354.361-2.136.531l-4.448 1.02c-1.677.294-2.898.251-4.518.759-1.516.468-3.593.271-4.53 1.093l.007.023Zm226.333 85.133c-.495-.186-1.403-.529-1.772.18-.303.526-.19.05-.066.463.222.729 4.434 2.379 5.374 2.841 3.668 1.758 3.976 2.617 4.782.837-.922-1.013-6.633-3.689-8.318-4.321ZM29.833 41.141c1.126-2.055 3.876-5.74 4.103-7.733-.94-.984-1.222-.947-1.932.247-.469.812-.705 1.778-1.163 2.676-1.058 2.076-2.434 3.346-3.365 4.993.116.809.186.688 1.04 1.262.52-.342.92-.932 1.302-1.454l.015.01ZM307.976 194.23c.441-.868.323-3.24.472-4.437.468-3.839 1.289-5.61 1.948-8.978.201-1.046.566-2.339.598-3.403.009-.156-.004-.343-.009-.507-.044-.446-.004-.202-.109-.543-.092.368-.116.514-.248.778-.415.823-.569.393-.92 1.594-.714 2.454-2.261 9.138-2.474 11.56-.189 2.137-.514 3.432.772 3.954l-.03-.018Zm-44.059-57.187c.371-1.13-.854-1.376-2.85-2.688-1.479-.954-9.046-5.984-10.463-6.141-1.091-.129-.459-.145-.849.392 0 0 12.753 9.066 14.162 8.437Zm13.042 6.407c.29 1.691-2.184 9.563-3.022 11.745-.268.707-.507 1.331-.853 2.033-1.053 2.138-.792 1.547-.14 1.984.056-.028.076-.097.169-.083l.554-.542 1.401-2.879c-.121-.731 2.24-6.805 2.526-8.344l.738-6.048c-.008-.926.049-.954-.879-1.61l-.494 3.744ZM140.301 75.936c.589-.462.281.001.668-.878-1.525-.98-.777-.569-3.85.785l-3.392 1.489s-.134.023-.181.035c-.048.013-.119.032-.182.036-.277.481-4.742 4.037-5.752 4.917-1.182 1.002-5.351 4.428-5.188 6.165.695 1.825 2.77-1.908 4.203-3.206 2.289-2.086 6.673-5.989 8.83-7.149.836-.44 3.886-2.066 4.844-2.194ZM35.079 62.41c-1.787.553-1.418.505-3.55-.466-4.052-1.858-7.56-3.963-11.492-6.274.757-1.206 3.954-4.411 4.636-6.183.017-.03.069-.12.032-.161-.043-.065.022-.108.018-.17-1.413-1.137-1.185.939-3.166 2.942-.589.602-2.762 2.835-2.805 3.432.22 1.29 11.224 6.84 12.915 7.637.788.375 1.51.831 2.28 1.236 1.642.848.865.419 1.715 1.451 1.184-.239 2.159-1.58 3.15-2.912.337-.446.52-.762.508-1.23-.837-.603-2.04 1.969-3.562 2.654l-1.16-.67c.115-1.036.052-.09.312-.681.155-.372.195-.268.175-.581l-.007-.024ZM328.126 216.87c4.643 2.681 9.323 5.122 14.076 7.646 2.064 1.091 5.16 2.378 7.001 3.541 1.104.697 2.106 1.155 3.34 1.768 1.204.595 2.275 1.594 3.06.444-.657-1.021-7.767-4.023-9.422-5.02l-18.164-9.965c-.952-.509-1.589-.276-2.345-.011l2.446 1.612.008-.015Zm-101.954-27.193c-.635.716-1.289 1.501-2.136 1.994-1.139.686-1.669.28-2.557 1.471 1.816.647 4.117-1.632 5.595-2.904 1.269.553 5.538 2.837 6.439 3.678-.277.341-.844.835-.932 1.266.753.575 1.097-.369 1.992-.735l8.607 4.689s-.71.152.774.227c.192-.471.694-.401-.907-1.667-1.483-1.156-5.023-2.96-6.783-3.916l-.035-.601c-.028-.578.136-.062-.049-.61-2.083-.361-.349 1.021-3.611-.882-1.402-.81-2.946-1.581-4.381-2.369.795-.924 1.823-1.173 1.841-2.144-.692-.019-.872.258-1.467.696-.212.158-1.198.892-1.416.886-1.834-.617-5.375-3.744-7.109-2.621l6.135 3.542ZM62.921 50.703c-.317-.183-2.413-1.252-2.428-1.26.237-.586.6-1.458.773-2 .268-.848.227-.951-.565-1.529l-1.348 3.03c-1.42.023-3.248-1.474-4.595-1.37-.461 1.879 2.359 1.903 3.846 2.842-.601 1.878-2.365 2.322-1.168 3.555.545-.247 1.017-.996 1.367-1.496.459-.657.714-1.272 1.217-1.622.846 1.25-.914.574.45 1.903 1.183-.52.428-1.717 2.45-.73l14.408 7.176 4.334 2.763c.558.321.909.444 1.38.395.315-.72.644-.49-.38-1.221l-4.609-2.741c-1.793-1.036-4.157-2.06-6.02-2.975-2.037-.996-4.042-2.153-6.108-3.206-.96-.494-2.083-1.022-2.996-1.529l-.009.015ZM47.628 67.13c-1.16-.67-2.237-1.973-3.467-2.001-.837 1.24 1.022 1.572 1.938 2.421 1.041.982.565.066.429.93-.988.351-.906-.764-4.127-.86.638.95 1.703 1.124 2.76 1.834.02.974-.096.827.374 1.58l.865-.524c.523-.139.434-.09 1.06.252l11.254 5.956c1.19.687 3.29 2.1 4.436 2.48l-.647-.654.364.03c.531-.014-.166.045.328-.01.59-.081-.044.215.421-.138-2.875-2.121-9.143-5.12-12.776-7.216-2.698-1.558-3.59-1.371-3.21-2.274 1.08-.059 8.042 4.522 10.111 5.637.332.191.149.126.48.177l.53-.917-10.107-6.096c.424-.838.788-1.33 1.353-2.065.618-.826.782-.832.38-1.666-.716.229-.944.799-1.477 1.513-.449.603-.89 1.09-1.29 1.641l.018-.03Zm176.797 55.43s10.12 5.482 12.358 6.514c8.285 3.821 16.201 6.888 24.562 11.414l12.24 6.266.508-.81c-.104-.1-.207-.199-.192-.191.03.018-.094-.114-.131-.155-.06-.035-.902-.701-2.607-1.646-1.103-.597-2.236-1.211-3.349-1.753-6.238-3.121-12.464-6.435-18.904-9.31-4.123-1.84-8.305-3.613-12.415-5.545-3.586-1.69-9.107-4.937-12.611-5.657.12.209.174.22.266.374.022.032.056.112.093.153l.175.322.007.024ZM42.685 41.646c-.455 1.24-.42.52-.033.963.908-.738.472-1.27 1.28-1.766 1.065 1.116-2.203 4.721-3 6.486-.304.666-.375 1.066.026 1.799 1.503-.897 1.337-2.175 3.445-3.564l1.016-.716s.097-.064.169-.083c-.556.962-1 1.869-1.477 2.836-.697 1.381-.668 1.157-.306 2.409.899-.303 1.386-1.565 1.877-2.624.49-1.021 1.009-2.165 1.484-3.093.167 1.66.742 1.952.678 2.376-.264 1.572-2.847 2.426-.282 3.866l3.426-7.082.052-.752c-.015-.81.072-.299-.245-1.003l.854-1.13c-1.023-.631-1.447-.315-4.292-2.418-2.292-1.705-7.144-4.546-9.797-5.797-1.312-.617-3.859-2.368-4.066-.303.467.791 6.2 2.978 7.799 4.002 1.276.817 2.457 1.418 3.64 2.222.532.367 3.226 1.862 3.37 2.587-.025.567-.161.107-.467 1.053-.16.488-.195.93-.352 1.48-.071.02-.14 0-.203.004l-.863.103c-.887.249.068.3-.862.344-.952-1.171.708-2.097-.097-3.243-.667-.586-.668-.166-.97-.2-.954-.09-.17-.158-1.033-.335l-.78 1.594.01-.015Zm245.243 184.246c-.824-.035-1.788 1.112-2.593 1.67-2.804 1.969-2.056 2.1-5.583.445-1.516-.715-1.541-.95-2.609.237.821 1.015 2.22 1.342 3.442 1.907.027.056.038.143.051.19l.045.166.044.166.243 1.042c1.557.018.955-.992 2.659-.289.89.374 2.008.839 2.887 1.266-.617 1.068-1.118.578-1.728 1.949l1.026.693c1.1-.547 1.983-1.381 2.949-1.765l3.043 1.516-1.897 1.651.759.879c1.237-.228 1.833-1.086 2.851-1.841 1.648.731 3.292 1.539 4.875 2.313 3.44 1.665 3.763 2.673 4.585 1.284-.889-1.836-6.194-3.336-8.08-4.665.919-1.033 2.53-2.187 3.579-3.065 1.082-.899 3.14-2.236 2.649-3.682-1.012-.163-.508.008-2.132 1.395-1.231 1.053-5.041 4.205-6.057 4.641l-2.802-1.377c.896-.926 2.595-1.849 3.821-2.685 1.356-.921 3.006-1.412 2.094-3-1.09.252-4.228 2.589-5.426 3.341-2.097 1.335-1.979 2.245-6.131-.172.825-1.428 4.43-2.313 3.414-4.243l.022.033ZM190.612 93.958c.281.002-.096-.076.58.075l1.272.513c.635.327 1.171.616 1.748 1.01l-.168 1.927-3.544-1.625.127-1.89-.015-.01Zm-1.905 11.308c.858-1.068 1.44.811 1.453-3.771-.004-1.246-.065-3.125.293-4.301l3.695 1.572c-.426 2.059-.541 4.278-1.124 7.168-.252 1.238-.83 1.786.242 2.365.832-.362 1.178-3.329 1.365-4.243.239-1.285.413-3.57.921-4.66l13.597 7.189c2.72 1.31 3.36 2.36 4.068.925-1.098-1.335-14.867-7.32-17.641-9.443.001-.14-.036-.703-.038-.804.056-.549.207-.742.38-.903l8.744 3.966.456-.719c-1.267-1.112-7.502-3.75-9.31-4.553-.077-1.328.355-2.32-1.488-2.783-.301 1.008.194.813-.26 1.773l-3.518-1.67c.126-.809-.076-3.732-1.499-3.25-.302.487-.092.227.039 1.045.142.763.175.602.007 1.346-1.61-.067-2.732-1.778-3.717-.281l3.912 1.997-.191 2.175c-1.27-.272-1.372-.792-2.181-.016.416.601 1.337.712 2.078 1.1.177 1.224-.037 2.884-.122 4.319l-.159 4.418-.002.039Zm-52.126 44.23c.583-.906 1.495-1.302 2.254-1.886 2.725-2.074.811-1.997 4.788-2.828.734-.157 1.924-.512 2.666-.545-1.652 2.374-4.097 4.73-7.03 4.901-2.542.156-1.756.57-2.685.334l.007.024Zm0 0c-.48.865-.148.255-.089.57l2.938.273c.114.708-.135.965.705 1.39 1.768-.904.376-2.009 4.484-2.684 1.291-.217 4.032-.718 4.681-1.947-1.169-.795.138-.482-2.382.228-.769.218-1.687.589-2.461.503.999-1.347 3.64-3.59 3.841-4.878-1.65-.832-3.812 1.207-5.433.672.825-1.428 1.849-1.218 1.07-2.409-1.918.536-1.572 2.861-4.127 3.25-1.432.216-3.544.88-4.946.732.7-.898 1.442-1.592 2.23-2.4 1.295-1.337.815-1.515 2.406-1.939 2.907-.787 4.027-1.162 6.764-2.108 2.339-.814 4.323-1.813 6.617-2.654.622-.242 2.119-.641 2.244-1.31-.545-.796-1.011-.303-2.821.396-1.348.524-10.824 4.614-12.051 4.267l-.588-.339c-.529-.266.002-.42-.645-.032-.46.275-.585.805-1.337 1.132-.488.22-5.638.994-6.16.854l2.885-3.466c.688-1.086-.079-.246.389-1.439l6.106-1.526c.814-.192 5.56-1.902 6.049-2.261-.01-.226-.029-.437-.017-.771-.945-.105-3.066.855-4.365 1.328-.661.24-1.574.535-2.08.784-1.798.886-10.259 2.696-11.396 2.159l1.094-.851c-.617-.497-.159-.212-.748-.653-1.672 1.26-1.453 2.168-5.178 2.563-1.192.114-1.328-.345-1.908.763.721.457.918.43 1.725.354.721-.064.92-.27 1.62.014-1.016 1.237-1.483.828-1.097 2.353 2.041-.786 1.815-2.761 4.181-3.099 1.666-.24 3.834-.793 5.096-.785-.822 1.249-2.082 2.526-3.037 3.658-1.869 2.228-2.35.728-3.282 1.994.271.437.696 1.023 1.144 1.362 2.507-1.279-1.03-.514 3.65-1.38 1.017-.195 3.187-.646 4.254-.511-.7 1.039-1.624 1.909-2.52 2.695-.411.364-1.775 1.3-1.908 1.564-.443.907-.505.109.09.854.669.546.294-.232 1.359-.439.425-.075 1.259.046 1.965-.028 1.105-.103 2.628-.547 3.652-.477-.953 1.234-2.408 1.596-3.379 2.72l.748.932-.032.022Zm130.055 71.118c1.06-1.071 3.053-2.085 4.315-2.88 2.85-1.802 2.65-1.317 4.107-2.099.794.399.822.455 1.412.896 1.418 1.059.995-.088 4.239 2.126-1.356.921-7.742 4.951-8.126 5.371-.995-1.096-4.504-2.781-5.971-3.407l.024-.007Zm-7.682-4.134c.715-.509 3.376-2.02 4.18-2.297 1.009.061 2.317 1.799 3.772 1.055 1.575-.814-1.19-1.489-2.089-1.987a3.887 3.887 0 0 1 1.983-1.101l4.667 2.394-.236-.357c-.653-.958-.431-.088-.462-.767l1.867 1.118c-.229.849-1.467 1.497-2.472 2.02-5.196 2.733-4.135 3.646-6.899 2.271-1.34-.674-2.966-1.512-4.273-2.347l-.038-.002Zm-1.064.589c.404-.108.262-.21.784-.069l4.643 2.54c1.02.809.23.053.478.737l-5.913-3.193.008-.015Zm-.903-7.417c.406-.808 1.497-1.341 2.217-1.787l5.728 3.307c-.649.567-1.219.719-1.874 1.263l-6.071-2.783Zm4.15 3.638c-.326.494-1.46.962-2.089 1.32-.862.484-1.418.925-2.218.744-.83-.199-4.698-2.131-5.545-2.58.498-.514 1.395-.919 2.03-1.253.378-.203.612-.329.999-.546.644-.35.463-.314 1.041-.481l5.758 2.803.024-.007Zm-3.531-6.207c-.733 1.06-7.311 4.518-8.494 4.477-1.704-.042-2.21-1.497-3.367-.12l.288.266c.902.701 6.409 2.999 8.662 4.039l-.219.936c-.078.275-.107.359-.199.727 4.3.839-.349-2.527 9.193 2.842-1.061 1.071-.861.064-1.662 1.346 1.29 1.386.898.638 3.308-.195l.62-.203c.939-.2 3.441 1.385 3.486 1.411.944.906-.621-.038.728 1.002.373.295 1.196.61 1.693.897-.682.728-.979.617-1.215 1.583.906 1.145 1.576.369 2.43-.241 1.628-1.184 5.501-3.819 7.042-4.713 3.148-1.831 2.197-1.438 3.954-.965 1.157.328.891.475 2.732 1.116 1.153.406 3.411 2.03 4.942 2.754l.978-.859c-.829-1-7.14-2.88-8.976-4.12.924-1.01 2.106-.829 1.99-2.299-1.365-1.048-2.522 1.792-4.321 1.254l-5.426-2.752c1.225-1.077 4.19-1.409 4.146-3.038-.932-.579-1.677.154-2.591.589-3.621 1.677-2.845 1.865-5.423.376-1.115-.644-2.268-1.189-3.398-1.841.694-.682 2.125-1.419 2.914-1.846 1.176-.644 2.274-.771 2.27-2.157-.794-.538-1.119-.045-1.789.35-.558.34-1.161.653-1.708.939-.635.334-1.083.517-1.727.867-2.354 1.327-2.084.861-7.892-2.412.515-.685.791-.606.734-1.481-.776-.327-1.594.463-2.096.775-1.251-.582-2.83-1.955-4.008-2.074l-.468.812 2.932 1.954-.063.004ZM175.24 94.023c-.838-.323-1.399-1.65-1.45-2.5-.035-.602.422-2.403.653-3.011.719.355 1.314 1.76 1.485 2.44.181.766-.493 2.141-.664 3.065l-.024.006Zm-5.398-3.357c.73-.08 1.046.383 1.804.74.758.358 1.227.068.6 1.05-.939-.463-2.277-1.035-2.388-1.781l-.016-.009Zm2.165 3.735-1.203 4.417c-.564-.626-.971-2.044-1.261-2.933-.391-1.168-1.017-1.79-.161-3.1l2.625 1.616Zm.985-5.083c-.459-.526-1.049-1.769-.995-2.419l1.206.696c.14.663.098.98-.211 1.723Zm-1.594.081c-1.109-.76-.731-.301-.709-1.07.21.02-.047-.789.578.253.341.558.139.281.131.817Zm-2.573.94c-.617.025-.737-.185-1.361-.565l.242-.802c.635.326 1.279.638 1.119 1.368Zm1.508-3.238-.631.919-1.428-.103c.009-.677.368-2.133.814-2.698 1.012.545 1.089.97 1.245 1.882Zm-6.755.63.407-1.088c.559.564 1.055 1.27 1.04 2.064l-1.447-.976Zm1.403-3.44c-.993.189-1.393-.684-1.621-1.717 1.057.049 3.428 1.338 4.444 2.085.05 1.271-.595 2.422-1.231 3.699-.827-1.04-2.194-2.71-1.592-4.066Zm-3.544 5.792c-.587-.62-.775-.748-.558-1.505.599.005.565.065 1.099.394l-.518 1.104-.023.007Zm1.04-2.847c-1.07-.618-.853-.333-.439-1.537.207-.602.258-1.073.577-1.73l.975 1.444c-.176.34-.387.879-.545 1.188l-.568.635Zm-2.58 8.472c.703-.556 1.059-1.694 1.445-2.573 1.048 1.006 2.185 5.65 2.853 7.139.388.825.745 1.633.948 2.291-.79.707-.915.053-1.828 1.531-.568.914-.912 1.718-1.603 2.602l-5.883-17.207c-.028-.718.772-2.38 1.262-3.02 2.298.926 2.194 2.43 3.185 4.124 1.155 1.97-.773 2.801-.571 4.541.093.675.081.348.198.596l-.006-.024Zm.397-9.633c-3.421-1.734-2.233-4.836-1.406-5.642 1.011.443 2.123.744 2.623 1.514.244.622-.758 3.611-1.226 4.143l.009-.015Zm-5.13 1.749c-.316-.323-1.524-2.443-1.517-3.221l2.105 1.436c.057.494.196-.408.027.476l-.615 1.309Zm2.016-6.172c-.562-.525-.943-1.326-1.059-1.995.656-.022.953.09 1.566.524l-.507 1.47Zm-3.948 2.451c-1.516-1.517-.671-3.815.245-5.471 1.342.634 1.397 1.548 1.995 2.635.663 1.185 1.442 1.715.942 2.93-.772.014-1.254-.404-1.822-.431-1.126-.069-.317.237-1.353.36l-.007-.023Zm-1.608-4.176c-1.136-.435-1.326-1.046-1.517-2.038l2.095.688-.578 1.35Zm-2.378-.651c-.704.175-2.133-.17-2.968-.29-1.615-.231-1.115-.644-2.018-1.727.456-.198.044-.075.525-.178l1.139-.023c2.107.214 2.97.391 3.322 2.218Zm18.301 30.37c.218.005.613.434.469-.952-.421-3.831-3.669-10.216-4.373-12.547-.222-.73-.159-.733-.427-1.349-.623-1.462-2.062-3.355-.062-5.288l2.658 1.315c-.132.785-.582 1.808-.867 2.546-.473 1.27-.869 1.643-.225 2.616.976-1.48 1.273-2.412 1.91-3.968 1.892 2.014-.19 4.019-1.198 6.564-.642 1.634.918 2.274 1.412.514.308-1.125.657-2.426 1.398-3.361 2.104 3.179 1.749 9.468 4.203 11.065.257-1.315-.348-2.947-.601-4.215-.669-3.333-1.029-.795.096-4.274.399-1.213.501-2.016 1.135-3.394 3.251 2.097-1.171 5.718-.384 8.498.623-.382 1.68-3.64 2.128-4.625.14.14.484.52.544.555.48.317.323.206.612.193.031-.924-.397-2.133-.48-3.103.499-.133 1.46-.3 1.238-1.17-.304-1.178-.899-.218-.223-2.154.798 1.123-.234.928 1.405 1.674.255-1.938-1.208-3.163-.699-4.533.847.168 1.04.6 1.931.554 1.101-1.35-.297-1.575-1.595-2.285.189-1.093-.013-1.891.072-2.944.075-1.14.486-2.165-.402-2.959-.822 1.25-.27 3.914-.523 5.291-1.322-.563-1.691-1.979-1.664-3.105.048-2.519.631-2.763-.379-3.486-.274.162-.181.175-.394.474l-.078.135-.078.135c-.277.341-.05.192-.284.317-.579-.875-.598-1.888-1.579-1.372-.309.362-.169.363.083.97.24.56.369.754.594 1.305.624 1.563.981 1.99.631 2.77-1.432-.827-3.048-1.44-3.6-2.64-1.134-2.459.631-2.382-.549-3.645-1.679.053.92.25-2.097.393-.331 1.132.333 1.235.654 2.141.179.525.286.166.015.67l-4.429-2.215c.302-1.29 1.18-4.41-.04-4.073l-.191.19c-.18.278-.062.005-.226.392-.2.485-.146.497-.255 1.035-.171.783-.24 1.285-.643 1.914-.581-.596-.58-.736-.925-1.497-.276-.6-.346-1.141-1.191-1.349-.723.766-.224.493-.146 1.68-.887-.412-1.063.067-.542-2.438.296-1.452.904-1.843.091-2.733-1.018 1.276-.884 3.097-1.505 4.522-.701-.284-2.744-.782-3.226-1.2-.97-.861.057-2.293-.939-2.587-.848.112-.79 1.368-1.16 2.357-.948-.447-1.45-.516-2.474-.727-1.602-.323-1.079-.463-2.303-1.129-1.171.567-.299.449-1.937.465-1.348.004-1.086.456-2.019.679-.231-.715-.337-1.157-1.262-1.47-.112.856.095.776.096 1.679.422.383.593.923.938 1.543.114.186.397.67.433.852.083.448.026-.045-.006.497-.005.078-.048.293-.053.37l-.047.395c.982.145 1.104.176 1.445 1.014.233.535.503 1.112.538 1.573-1.086.456-5.404-.213-6.583.089-.585.143-1.533.637-1.96 1.133 1.542.67 1.083.004 3.115.174 1.171.095 2.194.064 3.277.068 3.542.061 3.198.484 4.683 3.306 1.017 1.93 2.05 3.83 2.748 5.615.394.989.815 2.034 1.095 2.977.311 1.062.317 2.027 1.342 3 .202-2.228-4.171-12.65-5.261-13.861.924-.87.687.236 1.325-1.32-.896-.677-3.14-.55-3.378-3.514.724.138 3.631.533 4.085.896 1.347 1.078-.217 2.36.36 3.936.707-.214.638-.373 1.023-1.214.833 1.063 2.659 4.863 2.798 5.945.234 1.719.694.12 1.928 4.04.118.389.092.434.19.751l2.34 6.703c.585 1.841 1.144 4.529 2.438 5.838-.998 1.728-2.53 4.312-2.569 5.912.744.069.589.581 1.738-1.722.477-.967 1.011-1.962 1.519-2.911.982-1.839 1.745-3.683 3-5.404.357.286 1.24 2.62 1.381 3.142.273 1.06.141 2.507.971 3.367l-.054-.011Zm193.399 106.287c-.38-.56-.458-1.086-.708-1.872-.487-1.524-1.448-3.863-.449-5.21l2.757 1.491-1.594 5.615-.006-.024Zm-.11 1.339-.379 1.005-2.936-1.495c.036-1.142.761-3.79 1.392-4.568.208.44.448 2.182.526 2.709.393 2.452.431 1.411 1.397 2.349Zm2.619-11.115c-.314-.502-.151-.087-.326-.69-.254-.848-1.013-3.431-.772-4.093l1.93 1.114-.832 3.669Zm-10.585 7.96c.592-1.583 1.397-6.911 2.062-7.75 2.575 1.527 3.836 1.293 3.048 4.225-.501 1.876-.88 3.682-1.622 5.559l-3.497-2.019.009-.015Zm8.19-10.706c-.468-.651-1.017-.187-.225-1.733.511.716.848 2.534 1.074 3.466.258 1.051.805 1.948.925 2.679.063.517.105.341-.07.922l-2.851-1.606 1.156-3.743-.009.015Zm.792-3.912c.03-.504 1.342-4.518 1.56-5.173.612.854.957 2.136 1.392 3.228.468 1.173.211 1.967-.303 3.554l-2.634-1.601-.015-.008Zm-2.934 7.205c-1.213-.58-.648-.374-1.248-2.364-.273-.919-.457-1.366-.691-2.423-.14-.663-.605-1.773-.667-2.43-.111-1.166.586-1.085.944-1.74l2.495 1.561c-.386-.062-.394-.188-.724-.278l-.935-.119c3.451 2.133 1.007 1.283 1.206 3.863.076.947.596.465.263 1.876a12.67 12.67 0 0 1-.675 2.076l.032-.022Zm-5.638.714c-.21-.402-.116-.147-.233-.535l-.271-1.48.881.388-.362 1.636-.015-.009Zm5.294-13.38c.347.581 1.342 3.28 1.259 4.154l-2.416-1.595 1.157-2.559Zm-6.748 19.416a64.552 64.552 0 0 1-3.229-1.684c-1.643-.949-1.424-.702-.945-2.47.439-1.631.914-5.065 1.755-5.581 1.502.566 1.823.671 2.099 1.933.253 1.129.336 1.577.644 2.436.679 1.956.799 2.306-.316 5.351l-.008.015Zm.65-18.046s.037-.76.066-.984l1.634 1.104-.556.581c.788.375.646.273.92.912.959 2.237-.29 2.138-.24 3.549 1.259.326.246-.078 1.346-.104.298 1.154 1.747 4.215 1.623 5.266-1.621-.675-1.949-.524-2.238-1.973-.878.094-.605.352-1.413.186-2.118-.441-1.757-2.458-2.395-4.73-.482-1.741-.652-1.76.182-2.822.566-.735.659-.862 1.095-.991l-.024.006Zm-4.991 9.446c-.485-.621-.943-1.847-.839-2.549l1.352.721-.504 1.813-.009.015Zm6.086-10.437c-.867-.621-.882-.63-.458-1.608.543.695.511.716.458 1.608Zm-3.071.933c-.457-.565-.42-.804-.349-1.344.814.47.887.552.349 1.344Zm.158-1.874c.986.59.064-.042.263.553l-.958-.673c.399-.03-.473-.574.695.12Zm-9.647 13.994c.323-1.116 1.433-6.208 1.743-6.71.018-.03.145-.077.109-.118-.037-.041.067-.082.123-.109 2.824.748 2.657 2.255 3.263 4.409.324 1.109.809 1.349.578 2.619-.125.669-.443 2.089-.803 2.643l-4.998-2.725-.015-.009Zm7.27-6.326c-3.112-.634-2.758-2.394-3.357-4.804a59.496 59.496 0 0 0-.804-2.89c-.281-.904-.688-1.94-.629-2.808.93.095 1.948.803 2.928 1.369-.29.675-.57 1.335-.862 2.049-.428 1.055-.523.94.446 1.56l1.684-2.917c1.144.421 1.477 3.639 1.758 4.684.294 1.091 1.23 3.997 1.144 5.05-1.531-.724-.944-.766-.818-1.715.159-1.111.26-.592-.394-.989-1.002.343-.543 1.009-1.088 1.396l-.008.015Zm-9.602-3.699c.992 1.554.364 3.999 2.202 3.496.118-.934-.15-.367-.097-1.259 1.086.347.853.473.597 1.507-.376 1.487-.987 4.703-1.622 5.699l-3.035-1.532 1.97-7.903-.015-.008Zm6.512-13.298c.599.807.347.721.618 1.679.665 2.329 1.905 3.385 1.151 4.794l-3.482-1.87 1.698-4.612.015.009Zm-5.006 14.067c-.045-.968-.386-1.386-.519-2.444-.119-1.011-.459-1.468-.643-2.436-.544-2.679-1.363-3.593-.73-4.932l1.336.471c.666.204 1.168.413 1.827.734l-.85 1.854c.92.391.978.325 1.538-.575.387.444 2.386 7.912 2.214 8.314-1.659-.677-1.203-.735-1.54-1.51-.373.125-.538.27-.721.345-.495.195-.478.165-1.25.18-.671.014.125.132-.662-.001Zm-1.464-10.346s-.008-.125.018-.17c.018-.03.007-.117.018-.17l1.451-4.254c.623.801.525 1.145.789 2.219.187.79.459 1.328.441 2.16l-.325-.028s-.117-.007-.171-.018c-2.331-.384-.784.349-2.19.278l-.031-.017Zm-4.304-11.064c-1.317-.921.467-.913-2.214-3.684-.552 1.686.789 3.262 1.445 5.364.542 1.777-1.431 4.045-1.52 6.078l.769.444c.856-1.029 1.234-2.033 1.629-3.169.852.753 3.839 12.079 3.472 13.551-.597 2.321-1.841 7.817-2.579 9.375-1.426-.803-2.118-1.484-2.869-.915-.701.518-.323.455-.356.617.651.857 1.746 1.048 2.713 1.846-.39 1.72-1.64 2.561-.031 3.43l1.235-2.835c1.054.228 2.409.91 3.248 1.615.037 2.547-1.817 3.842-.11 5.028.879-1.417.71-3.178 1.413-4.396 1.205.315 3.978 1.916 4.966 2.747.083 2.433-1.732 3.731-.188 4.782 1.091-.673.557-2.705 1.554-4.154l4.207 2.529.06.697c-.097 2.048-2.296 3.525-.267 4.536 1.07-1.367.748-3.036 1.625-4.555.979.566 2.63 1.258 3.207 2.033.218 2.13-2.126 3.683-.532 5.065.982-1.458 1.085-3.063 1.797-4.575l2.894 1.671c.168.858-.519 3.789-.702 4.906-.497 3.02-1.491 3.488-.059 4.315.856-1.309 1.099-6.36 1.95-8.495 1.87.659 3.387 2.557 4.663.487-1.451-.898-2.957-1.005-4.293-2.278-.059-.976 1.413-6.901 1.934-7.944 1.225 1.289.531 3.955 1.599 3.67.201-.104.195.393.296-.511.051-.472.003-.319-.086-.791-.577-3.179.164-1.99-.187-3.054-.397-1.192-2.413-.833.504-6.164.506-.911.521-.381.688-1.226.777.569 1.741 3.911 1.796 4.304.093.675.038.944.44 1.396.71-.812.37-.989.181-1.88l-1.403-5.159c-.223-.971-.206-.861.268-2.03 1.399-3.502.995-3.535.556-5.593-.872 1.301-.879 2.74-1.66 4.093-.389-.545-1.421-2.865-1.659-3.463-1.061-2.757-1.48-1.335-2.103-3.179-.637 1.276-.814 3.359-1.659 5.136-.316-.463-.168-.197-.35-.683l-1.273-3.26c-.88-1.992.986-1.917-.603-4.177-.441 1.008-.478 1.107-1.033 1.789-.32.416-.304 3.833-1.918 5.447-1.239-.675-1.223-2.269-1.929-4.702-.454-1.545.079-1.076.298-2.674.135-.964-.294-1.753-.54-2.476l-.503 1.533-1.556-1.239c-.52 1.945 1.713 2.673-.368 6.903-1.193-.648-1.829-.835-2.179-1.899-.707-2.152 3.179-6.343.457-7.614-.518.723-.867 2.927-1.384 4.172-.577-.533-1.166-2.958-1.401-3.595-.548-1.419-.856-.815-1.469-2.051l-.736-1.267c-.992 1.613-1.072 4.573-2.16 5.829-.484-1.702-.696-2.867-1.264-4.598-.732-2.247 1.665-3.128-.652-4.927l-.625 1.744c-.565-.727-.651-.997-1.378-1.757-.493 1.759 1.151 2.568.61 4.34-.412 1.306-1.191 3.943-1.665 4.972-.533-.748-1.489-4.628-1.895-5.804-.84-2.409 1.698-3.811-.35-6.216l-.791 2.45.025.095Zm-7.123 14.669c-.505-.552-.989-1.453-.782-2.336.407.516.843 1.569.782 2.336Zm1.787-14.303c-.438-.633-1.257-3.15-1.146-3.828l1.748 1.009-.602 2.819Zm-5.787.728c-.312-.4-1.352-3.366-1.455-3.746-.58-1.919-1.168-1.737-.1-4.387l3.346 2.072c.029 1.099-1.134 4.958-1.791 6.061Zm-8.47-9.941c-.572-.611-.416-.741-.722-1.499-.169-.438-.343-.659-.222-1.251l1.432.827-.488 1.923Zm-4.65.743c-.783-1.114-1.336-3.116-1.849-4.455-1.254-3.189 1.605-1.318 3.338-.177l-1.465 4.626-.024.006Zm-1.438 3.78c-.49-.544-1.268-2.817-1.437-3.395-.373-1.198-.791-2.181.265-3.696.545 1.076.817 2.136 1.294 3.293.683 1.637.886 1.774-.122 3.798Zm-2.631-7.452c-.635-.607-.363-.451-.579-1.156-.869-2.847-1.666-1.884-.944-3.552 2.396.862 2.163 2.832 1.523 4.708Zm-4.652.642c-.313-.502-.225-.411-.443-.938-.964-2.16-1.827-4.182-.259-6.584.717.394 1.872.901 2.252 1.461.338.736-.64 4.241-1.526 6.054l-.024.007Zm-2.625-6.768c-.371-.575-.572-1.132-.498-1.851l.956.432-.443 1.428-.015-.009Zm-4.569.709c-.665-.624-.416-.741-.675-1.511-.321-.907-.878-1.229-.389-2.53.305-.806.103-.943 2.269.248l-1.205 3.793Zm-1.475 4.782c-.515-.639-.675-1.893-.843-2.612-.315-1.264-.092-1.616.56-3.164 1.324 1.746 1.265 3.797.307 5.77l-.024.006Zm-1.83-6.229c-.484-.519-1.862-3.841-1.305-5.223.913.367 1.075.26 1.463 1.085.872 1.867.378 2.584-.143 4.147l-.015-.009Zm33.388 26.553c.626 1.003 1.257 2.59 1.079 3.77-.81 5.406-1.577 5.865-2.845 10.705-.963 3.653-1.259 3.122-.078 4.104.787-1.71 1.42-4.652 2.024-6.568.643-2.054 1.264-4.382 1.745-6.329 1.251 1.383-.007 2.1 2.271 3.516.398-.933-.127-1.557-.428-2.392-.507-1.455-1.53-3.269-1.45-4.485.059-.868.075-1.941.19-2.697-.431.293-.179.518-.752.849-.471-.332-1.073-1.762-1.23-2.394-1.082-4.393-1.306-.593.444-5.817.366-1.052.59-2.205.962-3.233.505.692.669 1.208.844 1.95.768 3.23 1.545 2.616.485 5.392-.427 1.156-.31.883-.13 1.268 1.179.36.364.17 1.333-.533 1.038 2.763 2.137 6.986 2.991 10.205.231.855.283.765-.144 1.781.131.818-1.012 4.888-1.378 5.939-.726 2.127-2.288 4.833-.746 5.643.596-1.38 1.341-3.575 1.776-5.268.402-1.532.953-3.88 1.487-5.396.623.801.281.523.587 1.281.327.791-.194.37.929.897.35-.78.176-1.001.003-1.641l-.97-2.986c-.14-.662.13-1.408-.193-1.615-1.343-.875-3.312-10.972-3.312-10.972.064-.564 1.063-3.094 1.4-5.245.234-1.449.622-1.565-.735-2.208-1.078.58.561.143-.5.553-.423.176-.399.03-.944-.245-.651-.335-1.493-.721-1.959-1.271-.729-.862-.608-2.255-2.446-2.795-.138 1.143.36.629.223 1.772l-2.868-1.856c-.184-.968.155-1.313-.986-2.052-.415.301-.107.499-.713 1.131-2.911-1.781-1.42-1.962-3.469-3.426-.164.807.081 1.149-.053 1.172-.063.004-.001.14-.005.218-.517-.359-.199-.075-.504-.451l-.336-.776s-.002-.101-.03-.157c-.523.419.231.193-.586.563-.498-.287-1.42-.639-1.809-.904-.943-.665-.332-.192-.665-1.146-.398-1.191-.077-.285-.755-.956-.625-.622-.166-.477-1.185-1.045-.327 1.194.134.498.255 1.751-.744.071-1.685-.493-2.436-.966-.211-.924.117-1.075-.856-1.617-.527.217-.431.433-.932.605-.247-.825-.756-2.902-2.033-2.918-.115.895.635 1.128.206 2.043-.559-.423-.353-.605-.576-1.194-.182-.486-.369-.614-.562-1.046l-.746 1.293c-1.583-.914-1.895-1.174-3.088-2.345-.687.145-.743.834-2.818-.584-.142-.904-.095-.776-.079-1.709.03-1.306-.102-.52-.771-1.588-.593-.923-.393-2.452-1.996-2.636-.168 1.406 1.127 3.618 1.066 5.186-1.338-.572-1.17-.515-2.051-1.425-.463-.487-.081-.347-.754-.435-.41-.056.228.232-.779-.009-.887-.552-1.486-5.328-3.593-6.343-.18 1.078.452 1.202.442 2.159-.004.599-.256 1.696-.402 2.193-.842.135-.985-.208-1.665.482.583 1.078.92.391 1.11 1.663.055.392-.054 1.312-.123 1.813-.165 1.088-.497 3.021-.947 4.044-.799-.983-1.363-4.916-2.069-6.547.202-.524-.144-1.005-.203-1.841-.081-1.149 1.08-5.77 1.444-6.783 23.641 11.965 46.016 26.367 69.288 39.041 2.787 1.509 5.539 2.798 8.311 4.438.588.339 1.273.614 1.895 1.034 1.139.777 3.898 3.413 4.484 4.452 2.093 3.755 2.843 6.493 2.558 10.538-.626 14.451-8.011 28.809-15.487 38.243.158.352.237.077.71.37-2.154 3.106-7.13 8.591-9.811 11.634-1.898 2.172-4.462 3.898-6.557 5.856-.47.43-.734.819-1.285 1.182-.837.579-2.347.93-2.723 1.234.37-.849 1.224-.937 1.999-1.512 3.289-2.39 7.363-7.114 10.313-10.101.73-.741 1.316-1.826 1.865-2.672.806-1.258 1.235-1.792.382-2.786-.845.314-1.62 1.831-2.223 2.806-.852 1.372-1.261 1.557-2.33 2.644-6.038 6.175-7.36 8.118-15.059 12.332-1.995-.931-3.812-.778-5.591-1.664.406-.668 1.46-1.102 2.115-1.505.72-.447 1.471-1.156 2.16-1.479 1.868.978 2.445 2.554 3.682 1.524-.383-.903-1.882-1.508-2.748-2.168 1.09-1.295 3.167-2.281 4.174-3.503 1.16.67.978.986 1.947.422.066-.603-.29-.648-.741-1.189 1.248-1.605 3.165-3.324 4.609-4.816.855-.889 1.291-.878.958-1.832-.436-.532-1.223.517-1.662.965-1.645 1.596-3.439 3.867-5.298 4.999l-4.606-2.78c.438-.549.93-.846 1.394-1.3.545-.527.425-.736-.018-1.293-1.289.319-1.706 1.32-2.905 1.831-.933-.439-2.548-1.331-3.394-1.92-1.595-1.101-1.376-.854-1.759-2.418-1.456-.159-.17 1.024-2.364-.363-2.697-1.697-5.389-3.372-8.221-4.906-2.19-1.185-9.29-5.805-11.076-5.914-.041 1.219 1.758 1.897 2.786 2.45 3.639 1.981 7.586 3.919 10.978 6.258-.531 1.337-3.737 3.235-4.764 4.145-.926-.555-2.391-2.022-3.38-1.771-1.001.725 1.47 1.911 2.014 2.325-.535 1.275-2.34.955-1.661 2.669 1.133-.187 2.027-.934 3.071-1.734l4.589 2.529c-3.874 4.518-1.217 1.622 1.59.938l4.623 2.469c-1.078 1.241-1.902.545-1.575 2.137 1.23.55 1.964-.791 3.231-1.141l5.09 2.637c-1.342 1.35-3.441 1.261-3.795 3.162-29.157-14.77-58.541-33.218-87.734-48.97 1.018-.475 2.811-1.805 3.786-2.484.854-.61 1.776-1.441 2.676-2.164 1.824-1.452 3.576-2.886 5.192-4.92 1.625-2.048 3.361-3.872 4.924-5.917 5.581-7.3 9.324-12.496 13.896-20.901 2.657-4.88 5.304-10.127 7.717-15.108-.007.257.1-.102-.103.562-.56 1.841-3.756 8.455-4.505 9.927-.995 1.931-2.144 3.713-3.175 5.603-1.32 2.426-3.327 4.754-1.704 5.25.987.31 1.291-.878 1.846-1.84 1.588-2.751 3.438-5.572 4.753-8.441 1.151-2.482 3.897-8.874 5.034-10.844.444.798.503 1.253.114 2.17-.555 1.344-.38.903.349 2.006-.494 2.18-1.519 4.615-2.076 6.939-.3 1.25-.573 2.315-.773 3.463-.258 1.455-.687 1.989.164 3.161.738-1.939 1.244-4.313 1.74-6.251.538-2.115 1.361-4.306 2.045-6.396.992 1.414.942 4.773 2.136 6.986.741-3.301-1.513-6.987-1.625-9.438-.03-.819.971-2.726 1.494-3.667.277.46 2.433 6.857 2.307 7.526-.134.684-.753 2.211-.974 3.045l-2.491 8.805c-.477 1.488-1.093 1.894.26 2.856.917-1.936 1.515-4.537 2.087-6.572.548-1.889 1.01-4.709 1.734-6.416.305.377.78 1.573.859 1.819.329 1.032-.094 1.209 1.259 1.128.205-1.365-2.32-7.192-2.702-8.896-.226-.933-.496-1.369-.804-2.229-.154-.429-.154-.569-.264-1.074-.81-3.575-.909-.445.286-4.986.142-.56.314-.962.712-1.233-.04 1.601 1.147 5.253 1.742 6.939.493 1.407.428.929-.173 2.526 1.572.968 1.307.173 1.801 2.242.264 1.075.61 1.415.878 2.692l.773 3.534c.187.929.519 1.121.475 1.997-.053 1.554-1.174 4.575-1.609 6.268-.293 1.134-.55 2.067-.826 3.171-.393 1.517-.984 2.018.416 2.726.981-2.22 4.384-16.331 3.606-18.604-1.272.568-.8 1.282-1.294 2.52-.328-.511-.857-2.519-.974-2.908a278.15 278.15 0 0 0-.86-2.862c-.453-1.444-.837-1.405-.171-3.185.51-1.37.58-2.291.972-3.528 1.024 1.673.941 3.73 1.711 5.217 1.634 3.088-.203 3.311 2.883 4.371l.916-2.318c.426.446 1.969 3.482 1.753 4.099l-.63 2.623c-1.127 8.289-2.234 8.953-3.187 13.875-.202 1.046-.165 1.749-.306 2.689-.188 1.335-.734 1.341.581 2.3.524-1.08.579-3.474.933-4.993.941-3.927 1.788-5.463 2.608-10.12.268-1.509.378-3.51.768-4.708.514.537 1.095 2.456 1.349 3.164.353 1.025.115 2.551 1.423 2.826 1.139-1.728-4.242-11.068-4.584-13.05-.132-.817 1.096-4.198 1.561-5.212.705.868 1.191 2.812 1.253 4.131.103 2.224-1.802 3.47-.125 4.498l.955-1.514c1.026 1.355 1.42 3.145 1.442 4.742.475.013.814.089 1.401.428-.07 1.723 1.378 3.462 1.616 5.243.15 1.168-1.031 4.676-1.37 6.063-.499 1.978-.995 4.056-1.181 6.014-.107 1.02-.097 2.048-.262 2.995-.188 1.195-.932 1.788.414 2.485.799-.722 1.097-6.042 1.339-7.506.194-1.171 1.492-6.796 1.917-7.532.805 2.609 1.037 4.226 2.41 4.077.112-.857-2.344-7.707-2.687-8.888-.214-.744-.565-1.388-.899-2.203-.176-.462-.179-.664-.32-1.046-.721-1.92-.546-1.458.34-3.653.374-.926.553-1.724.994-2.592 1.319 2.485 1.968 3.762.907 6.296-.535 1.275-1.11 1.504-.057 2.152.77-.357 1.004-1.425 1.345-2.19.67.928.937 1.964 1.276 2.942.319.945.398 2.374 1.576 2.493l1.238-2.493c1.275 1.899 4.466 9.635 5.029 11.584.468 1.592.559 1.224.091 3.219-.554 2.386-.521 4.349-1.196 6.666-.449 1.544-1.764 2.429-.152 2.979 1.436-1.757 1.797-6.279 2.265-8.414.149-.676.123-.631.427-1.157.581-1.007.156-1.453.4-2.816.274-1.485.611-2.694.544-4.075l-.593.539c-.457.478-.185-.026-.527.739-.243.561-.18.938-.475 1.589-.811-1.31-1.096-2.697-1.739-4.09-.509-1.136-3.412-7.423-3.411-8.224-.001-.381 1.332-4.362 1.602-4.968.863 1.08.542.975.908 2.048.173.5.599 1.328.744 1.913.318 1.225-.681 3.094-1.331 4.463.992.092 1.553-.948 2.11-1.949.875 1.166 1.245 3.344 1.808 4.772l1.833 4.726c.242.521.532 1.029.748 1.595.71 1.833 1.451 2.742.859 4.986l-1.869 7.52c-.456 2.042-1.44 2.075-.106 3.246 1.291-1.68 1.895-5.962 2.524-8.305.651-2.45 1.309-1.99 1.41-2.373-.151-1.409-.451-1.342-.179-3.31.15-1.096.528-2.341.479-3.371-1.351.843-.889 1.471-1.434 3.04-1.502-1.749-4.076-10.311-5.145-13.193-.423-1.146-.221-1.01.123-2.475.19-.852.236-1.627.53-2.38 2.043 1.3 1.644 1.19 2.337 2.913.522 1.324.979 1.648.391 3.293-.316.86-1.606 3.302-1.016 3.883.933.96 1.888-2.017 2.27-2.679 2.033 4.241 3.241 9.529 3.837 10.655l.011.086Zm1.031 69.228c.332-.47 4.036-3.162 4.717-3.47l4.79 2.564c-.607.773-3.495 3.094-4.108 3.321-.756.265-4.534-1.895-5.384-2.406l-.015-.009Zm2.983-4.471-.235.686c-.043.075-3.852 2.947-4.514 2.806l-4.563-2.575c.473-.749 3.772-3.435 4.61-3.913l4.702 2.996Zm-5.685-4.425c-.435.891-3.991 3.709-5.145 4.386l-4.29-2.317c.594-.96 1.608-1.497 2.404-2.18.805-.698 1.53-1.502 2.318-2.309l2.797 1.735c1.08.462.7-.378 1.925.67l-.009.015Zm-42.986-85.573c-.118-.108-.9-.32-.388-2.008.223-.734.591-1.824 1.039-2.427.593 1.585.521 1.744-.636 4.444l-.015-.009Zm1.958-5.584c-.982-1.049-.743-1.532-.339-2.963.364-1.293.32-2.4 1.023-3.478.335 1.196.783 1.254.325 2.954-.348 1.262-.547 2.27-1.009 3.487Zm1.981-7.155c-1.047-1.146-.633-3.012-.208-4.41 1.226.627.974.923.811 2.112-.111.818-.238 1.526-.603 2.298Zm-2.839-.898c-.271-.818-.077-1.327.028-2.449.076-.898.126-1.611.573-2.455.801 1.224.019 3.378-.609 4.919l.008-.015Zm-116.493 3.42-.371-.054-.192-.05-2.733-1.498c.226-.391 2.168-3.86 2.343-3.779 1.002.458.999-1.348 1.817-1.998.106-.079.515-.023 1.089-1.295-.484-.38-1.057-.571-1.66-.919-1.103-.596-1.081-.844-1.791.109l1.758 1.376c-.8 1.663-.998.927-2.469.238-1.107-.519-1.913-.864-2.634.002.287.547.934.68 1.597.923.571.229 1.203.493 1.68.85-.134.964-2.137 3.075-2.847 3.888-1.508-.731-1.999-1.655-3.115-.175l2.185 1.262c-.378.864-.46.937-.965 1.567-1.458 1.864-.928 1.469-6.206-1.538.861-2.049 4.029-5.03 5.545-7.202 1.799-2.63 3.697-4.942 5.501-7.648 8.879-13.395 12.414-19.031 18.237-34.13.664-1.742 1.71-6.269 1.897-7.985.781-6.645-.257-5.821-.15-6.702.053-.51.315-.72.603-1.115 9.614 4.549 30.07 16.74 40.492 22.637 14.373 8.037 28.576 16.438 42.955 24.499 2.278 1.275 11.086 6.14 12.541 7.241-.029.745-.398 1.454-.339 2.049.107.964.545.275.341 1.881-.173 1.343-.233 2.631-.423 4.005-.384 2.684-1.324 6.191-2.532 8.841-1.539 5.345-5.292 11.116-7.763 16.404-4.022 8.603-14.137 23.408-20.749 30.195-4.423 4.562-1.784 1.836-5.92 5.241-1.72 1.412-4.96 3.891-6.073 4.532-27.754-15.703-55.184-32.141-83.076-47.744-2.603-1.443-6.823-3.498-9.034-4.855l-2.47-1.987c.706-.875 1.092-.152 2.448-1.213 2.671-2.085 5.282-4.587 7.038-5.959l5.249 2.57-3.235 3.584c-1.349-.378-1.874-1.001-2.536.46l1.387.521c-.098 1.145-.951.533.327 1.07.646.273 1.062-.308 1.272-.288 4.911 2.355 9.27 5.352 14.032 7.721 2.279 1.135 4.536 2.238 6.824 3.359 1.34.673 5.857 3.501 6.787 2.655 1.013-.918-1.341-1.436-2.138-1.796-4.546-2.083-21.093-10.634-24.522-13.015.599-1.317 1.923-2.217 2.873-3.272 1.001-1.106 1.969-2.852 3.055-3.828 1.792.934 3.912 1.857 5.749 2.678 1.3.569 4.837 2.832 5.923 2.657l.299-.589c-1.259-1.508-6.234-2.777-7.895-4.357l-.006-.024Zm-23.249 7.163c-.727-.099-.77-.164-1.161-.67.286-.216-.062-.658.777-.093.272.157.35.543.399.772l-.015-.009Zm-34.936-42.46c.595-1.24.322-.696.431-1.896.069-.641.165-.285.33-1.894.094-1.068.854-2.975 1.448-3.935-.032 1.205-.895 3.673-1.074 5.133-.16 1.251.083 4.277-.106 4.709l-1.035-2.141.006.024Zm2.73-42.602c.649-.046 12.115 1.783 12.576 2.41-.879.374-2.232-.066-3.153-.177-2.722-.368-7.026-.99-9.432-2.218l.009-.015ZM98.2 77.426c-.05-.75.416-1.905.705-2.58l1.9 1.478c-.504 1.152-1.485 1.007-2.605 1.102Zm-1.618-3.881c.237.077.361.209.54.352-.489.36-.681.449-1.33.215l.21-.641c.194.011.205-.042.57.089l.01-.015Zm-7.745-.823c.09-1.652 1.395-3.183 3.066-2.179.02.733-.184 1.538-.983 1.878-.448.183-1.536.396-2.092.316l.009-.015Zm-.157-6.866c-.504.49-.374.405-1.024.451-.182-.486-.082-.588.217-1.037l.807.586Zm5.282 1.887c-.399-.771-4.326-3.16-5.293-3.677-1.859-.993-1.108-.38-2.475-.447l.586-1.746c2.892 1.57 5.143 3.45 8.223 5.008 2.884 1.444 13.251 5.906 16.066 6.67l7.701 1.7-.678.13s-.125.007-.164.005c-3.472.06-3.76-1.39-3.594 1.212-2.151-.139-2.869-.253-2.716-1.527.198-1.63.168.718.089-.57-.865-.28-.103-.24-1.03.006-.332.089-.557.2-.904.28-.642.17-1.018.334-1.813.076-2.899-.932-5.958-3.5-8.82-3.87l-.406.007c-.465-.029.163-.107-.803-.384-.729-.2.008.125-.983-.107l.133-1.346c-1.563-.181-.663.279-1.447.628-2.67-1.26-.973-.682-1.702-2.065l.03.017ZM133.497 77c.553-.784-.399-.632.754-1.41 1.291-.878 3.978.072 4.495-1.694-.883-.35-2.544.195-3.697.311-.509.047-3.522.252-3.818.382-3.068 1.416-4.472.505-5.627.94-.972.361-.501.693-1.138 1.588 1.263.389 2.303.188 3.574.18 3.446-.016 1.312-.706 2.983-1.024.059.455.251-.156-.109.398l-6.065 4.516c-.921.83-2.188 2.224-3.005 3.256-.992 1.231-1.796 2.832-2.857 4.043-.943-.524-1.788-.871-2.733-1.357-1.036-.538-1.453-1-1.981.019 1.232 1.312 3.086 1.721 4.306 2.045l-.737 1.138c-1.547-1.254-3.264-2.005-5.015-2.174l2.596-6.238c1.899-.087 4.108.507 4.843-.312.418-.48.403-.769.37-1.269.003-.038.007-.116-.044-.166-.052-.05-.041-.104-.045-.166.514-.124.632-.016.982-.656.234-.406-.067-2.183 3.856-.9l-2.906 2.631c-1.007.943-2.488 1.49-2.077 2.83 2.356-.424 3.965-3.664 6.205-4.515-.07-.401-.014-.149-.198-.596-.122-.311-.046-.026-.185-.307.785.032.935.26 1.457-.261-.46-1.048-3.476.278-4.995-1.2.751-.71 1.129-.11 1.363-1.84l.027-.324c.404-.108 2.446-.232 4.54-.727 7.371-1.697 14.29-4.979 22.107-3.793 3.916.597 17.341 5.542 20.561 7.762 2.127 1.468 8.342 4.175 8.5 6.651.141 2.367-.729 2.726-.085 4.742.304.937-.587 3.49-.779 4.761-.132.786-.282 1.742-.383 2.405l-1.736 4.991c-.088.29-.312 1.063-.466 1.294-.79 1.228.069-.12-.948.736.129 1.658.146 1.488-.747 3.418-.597 1.278-1.276 2.49-1.868 3.792-.847 1.816-2.746 4.548-3.851 6.496-1.252 2.204-2.418 4.397-3.663 6.624a29.853 29.853 0 0 0-.849 1.575c-.543 1.009-.318.899-.623 1.705-1.286 3.446-4.101 5.85-5.314 9.379-.623 1.845-6.474 8.951-8.099 10.859-1.382 1.628-2.926 2.841-4.441 4.211-1.696 1.546-3.825 2.622-4.647 3.35l-.235-.917c-4.531-2.456-9.193-4.406-13.223-7.695-4.73-3.853-5.601-4.015-10.478-8.935-5.354-5.417-8.52-7.625-9.92-14.948l-.901-4.148c-.095-.496-.232-.956-.137-1.503l.783-.209c.283.624.491 1.205 1.453 1.661.763-.903.075-3.124.058-4.277-.036-4.951 2.033-9.369 3.849-13.873l-1.368-.59-2.387 5.598c-.988-.691-3.228-3.948-4.352-3.776-.233.648-.272-.016.081.729.071.121.348.442.421.524-.062.004-.155-.01-.194-.012l-.36.032c-.725.143.091-.227-.465.213.355 1.127 1.891 2.295 1.942 3.426-.227.01-.507-.132-.763-.42-1.257-1.408-1.982-4.191-4.093-4.468-.226.671.104.481.007 1.207-.633-.506-.228-.092-.402-.593l-.11-.645c-1.16-.67-2.256-.861-3.433-1.641-2.857-1.91-5.487-4.35-8.219-6.269-5.433-3.818-7.033-4.562-12.682-7.623l.959-1.07c.88.53.867.902 1.924 1.332 1.698.68.467-.251 1.988.386 1.248.52 2.943 1.9 4.147 2.635 1.436.89 2.85 1.505 4.277 2.409.863.558 2.948 2.203 3.904 2.254.452-.922.562-.277-.007-1.067-.217-.285-10.725-6.732-11.502-7.161-1.004-.56-3.217-1.216-3.925-1.905l.603-.835c1.22.043 5.457 2.209 6.395 3.09l.187-1.054c-.783-.732-6.292-4.454-7.567-3.847-1.916.918 1.094.891-.662 2.123-.675.472-.42.099-1.25.32-.823 1.39.056-.028-.226 1.053-.107.359 0 .38-.434.751-.7.619-.426.215-.75.289-.965.245-.418-.041-.786.248l.33.471c.386.343 3.489 1.513 4.253 1.894 1.831.937 3.234 1.988 4.96 3.004 2.86 1.692 8.148 6.388 12.363 9.323 1.145.801 1.357.643 1.695 1.66.53 1.588 3.133 3.833 4.092 5.269.337.495 2.116 3.366 2.198 3.434-.642-.351-.967-1.04-1.563-1.644-.905-.904-1.419-.78-2.075-1.559l-2.724-3.497c-6.004-6.694-13.545-11.629-21.226-16.043-2.246-1.297-4.142-1.911-3.759-3.133 1.621.395 1.22.604 2.49-.867 3.916-4.554 2.437-4.186 3.184-5.618.254-.475 1.404-1.736 1.9-2.491 1.252-1.924 2.582-4.123 3.731-6.045.814-1.374 1.97-4.976 2.817-5.61.743.49.697.082.333 1.235-.375 1.206-2.058 3.181-.808 4.044.489-.22.056.112.483-.383.234-.266.186-.253.336-.548.182-.315.23-.608.476-1.068.194.814-.377 1.246.063 1.84.946-.175.16-.067.772-.536.703-.556-.178-.423.795-.403.318.564.438-.027.094 1.056-.297.932-1.244 1.006-2.115 1.365-1.086.456-2.43.521-3.27 1.66 1.178.26 3.086-.784 4.362-1.15.094.396.071.122-.123.631-.309.884.019-.31-.24.523-.018.03-.023.107-.04.137l-.178 1.04c1.175.297 2.497-.322 3.587-.435.004.063-.016.132-.026.185l-.021.35c.063.657.218.666.782 1.012l1.368-2.056c.595-.439 1.65-.49 2.18-.225.027 1.52-1.534 3.945-2.419 5.198l.88.428c.865-.804 1.059-1.975 1.77-2.546.589-.462 1.726-.587 2.356-.424l-.828 2.409c-.925.488-1.32.059-1.954 1.156l1.416.297c-.213.438-.4 1.112-.624 1.464-.952 1.475-.056-.113-1.067.907l1.072 1c1.21-2.028 1.532-4.848 4.406-4.291-.54.97-1.137 1.969-1.632 2.966-.195.408-.432.853-.613 1.27-.48 1.145-.515.544-.08 1.115.732.123.118.49.892-.466 2.556-3.175 2.429-7.097 5.38-5.212l-.98 1.699 1.041.18.922-1.493 1.611.83c-.482 1.045-2.31 1.112-3.325 1.408-.793.224-.888.39-1.833.425-1.774.079-2.06 1.236-.332 1.272.755.015.615.014 1.28-.163.902-.241 1.708-.417 2.431-.661 1.162-.412 3.655-1.458 4.857-1.345-1.249 3.067-1.045 2.784-2.825 5.344.747.552.32.386.972.441 1.524-1.526 2.455-4.636 3.406-6.492l3.361.758c-1.319 3.468-3.076 9.75-5.678 12.898-3.036 3.658-3.525 4.018-7.244 5.76-1.37.631-1.59-.137-2.674.8 2.152 1.043 2.515.17 4.237-.48 3.443-1.299 2.976-1.569 5.284-3.965 2.358-2.447 2.619-3.318 4.217-6.224 1.663.74 3.235 1.707 4.82 1.78l-.676 1.033c-1.434-.407-3.46-2.78-4.601-1.013.321.627 3.12 1.802 3.839 2.297-.696 1.623-2.581 3.461-1.294 5.026 1.096-1.131 3.254-5.217 4.375-6.915 4.612-6.979 7.087-9.84 14.366-14.196l.077.005Zm-57.966 2.373c-.173.3-.091.227-.351.538-.594.68-.117.133-.456.338-.475-.815-.527-.725-.213-1.546l1.027.693-.007-.023ZM52.093 44.01c-1.923 5.244-7.27 13.602-11.061 18.148-1.761 2.11-3.607 3.81-3.767 4.019-.328.392-.219.135-.257.514.572.61.98.044 1.68-.614 2.054-1.92 2.911-3.23 4.6-5.322 1.957-2.378 4.226-4.776 5.748-8.248.858-.546.525.204 1.23-.633.694-.82 2.48-4.54 2.712-4.767.71-.673.521.14 1.298-.474.98-.757 1.753-3.558 2.043-4.513 5.707 3.656 16.041 9.081 21.818 13.138 2.342 1.653 4.768 2.813 7.075 4.386.423 2.088-1.414 6.8-2.95 9.461-1.363 2.36-4.215 7.649-6.037 9.343l-.819-.392c-.005-.304-.062-.137.127-.569.566-1.397-.507.81.191-.33.382-.662 1.07-.705.101-1.846l-1.83 1.95c-.999-.497-2.348-1.676-3.668-2.418-.693-.4-1.28-.639-1.957-1.03-1.855-1.07-1.405-.631-1.739-.784-.09-.052-.132-.016-.194-.012-.025 1.088.023.936 1.192 1.59 1.688.975 5.465 2.475 5.669 3.654-.747-.03-.912-.266-1.696-.718-2.804-1.619-8.577-5.613-10.344-6.313-1.101 1.63 1.234 1.414 4.625 4.314 1.372 1.173 4.646 2.883 6.425 3.91-.69.845-1.119.857-1.319 2.005 1.751.97 1.25-2.165 3.414-.936-.461 1.217-3.515 3.583-4.6 4.14-1.556-.578-12.374-7.044-15.55-8.678-4.198-2.163-7.637-3.587-11.6-5.775-.874-.504-2.897-1.212-3.414-2.091 1.396-.818.166 1.278 2.054-.879 3.474-3.928 1.933-3.033 2.575-4.667.32-.798 1.137-1.588.161-1.951-1.097.89-3.73 5.102-5.228 6.583-1.324 1.32-1.855.812-3.565-.195L22.83 59.99c-1.462-.844-2.295-1.525-3.5-2.502-.72-.596-.986-.73-1.389-1.423-.536-.951-.731-1.344-.538-1.854 3.038-3.277 9.909-16.048 14.54-25.08 1.68.609 3.958 1.744 5.744 2.375 2.916 1.042 15.268 8.193 15.6 9.046.168.438-.981 2.881-1.216 3.427l.022.033Zm136.361 40.283c-12.324-4.97-25.098-16.856-38.874-16.632-2.941.046-8.895.578-11.272 1.11-.853.189-1.7.401-2.609.618l-5.314 1.442c-.991.15-1.828.348-2.791.553-9.368 1.988-22.236-2.354-30.493-6.78-2.22-1.203-4.592-2.491-6.834-3.586-5.803-2.829-1.717-2.735-4.493-4.157-3.595-1.815-17.51-9.428-20.381-11.346-2.235-1.49-3.925-2.567-6.402-3.776-.674-.33-3.007-1.476-3.411-1.89-.748-.792.507-.008-2.057-2.39-4.041-3.756-12.04-6.89-17.265-9.467-1.409-.693-3.381-1.21-4.755-.64-6.314 2.789-17.577 25.952-16.02 27.572.002.763 1.417 3.324 1.893 3.719 3.215 2.578 10.332 7.308 13.847 8.877 1.664.74 3.19 1.681 4.894 2.384 1.119.466 1.17-.146 4.574 1.478 1.622.776 3.26 1.421 4.916 2.137 1.657.716 3.328 1.58 4.955 2.28 3.914 1.678 16.416 11.04 18.936 10.993 1.14-.024.722-.486 2.182.397.79.477 1.54.99 2.27 1.43l9.66 6c1.636 1.064 2.833 2.056 4.535 3.18 3.415 2.231 10.909 10.486 12.45 13.561 6.149 12.289 2.684 18.708 15.167 29.984 10.99 9.893 23.722 16.141 36.486 23.31 1.401.949 3.481 2.15 5.011 2.913 11.796 5.989 23.021 13.352 34.767 19.532 14.786 7.775 28.966 17.084 43.507 25.319 29.646 16.775 59.043 34.088 88.887 50.557 2.242 1.234 7.081 3.086 9.26 2.48 3.732-1.033 4.873-.574 7.66-3.034 11.897-10.65 34.842-34.064 33.937-62.609-1.381-4.466.038-1.562-2.533-7.797-.702-1.708-.891-2.077-2.772-3.484-1.396-1.027-2.709-2.165-4.382-3.131-22.842-13.349-46.434-25.747-69.036-39.478-3.258-1.981-6.946-3.529-9.874-5.56-30.672-17.889-68.117-38.666-98.256-56.087l.03.018Z" clip-rule="evenodd"/>
  </g>
  <defs>
    <clipPath id="a">
      <path fill="#fff" d="M0 77.076 44.5 0l342.08 197.5-44.5 77.076z"/>
    </clipPath>
  </defs>
</svg>
