<svg xmlns="http://www.w3.org/2000/svg" viewBox="0 0 258 220" fill="none">
  <g clip-path="url(#a)">
    <path fill="#D0C5B9" fill-rule="evenodd" d="m242.815 86.841-1.015-.658 1.218-.304c.482 1.317.584-.203-.203.937v.025ZM139.187 72.102c-.914-1.494-.457-.076-.356-1.52 1.65 1.976.076.178.356 1.52ZM79.669 200.07c2.183-3.849 2.513-6.078 3.757-9.927-.356.127-.584-1.14-1.32 1.925-.203.759-.406 1.57-.66 2.431-.71 2.203-1.294 3.545-2.843 5.445l-.126.405s-.153.152-.229.253c-.33.481-.355 1.089-.05 1.545-.61.456-1.219.811-1.777 1.089l.533-1.646c.761-1.57 2.284-3.343 2.157-5.141-2.97 3.571-3.122 8.332-7.284 8.864 1.32-1.444 4.314-5.015 4.467-6.61-2.716 1.849-4.087 9.142-9.822 7.294.71-2.254 2.893-5.395 4.822-5.648.355-2.127-1.37.937 1.751-4.077l.736-1.596c-1.954-.405.102-.278-3.858 4.483.28-2.355 2.335-5.319 2.995-7.8-1.269.582-1.751 2.963-2.386 4.381-1.04 2.355-1.675 3.09-2.944 5.192-1.142-2.482 1.193-3.014-2.817-5.369 1.98-2.609 4.086-5.091 4.365-7.953-2.538.127-.964 1.343-3.045 3.495l-.965.684c-.787-.228-.71 0-.127-.633.533-1.393.686-.127.026-1.317-1.472 1.95-2.665 3.799-4.036 5.8-1.32 1.924-2.69 2.355-3.984 4.102-2.538 3.47-4.417 7.648-7.97 6.787 2.741-4.406 3.401-3.773 4.848-5.191 1.548-1.545 3.604-4.078 5.025-5.774-1.954.911-1.751 2-2.995 2.836-1.091.734-.127.557-1.269.304.508-2.077 2.335-2.659 2.462-4.812-2.081.735-4.239 7.572-7.233 7.952.38-1.469 6.675-8.661 8.223-10.434.127-.101 3.325-4.28 3.376-5.901-.94 1.14-5 3.901-4.747 5.699l-2.944 3.267c-.304-1.723.914-1.9-.254-3.191-.888 1.899-1.32 5.039-3.934 5.191.33-.759 1.549-2.482 1.6-3.419-1.32.659-2.742 3.115-3.122 4.255-4.061.279-6.7 1.697-10.482 3.47-3.985 1.899-11.802 6.761-17.082 5.976 1.523-1.747 2.894-2 3.833-3.089.05-.076.127-.178.177-.254 2.209-2.861.965-.937 2.69-2.76.128-.051.33-.127.407-.228.127-.127.228-.101.305-.152.279-.228.33-.279.609-.582l.076.126c-.762 1.292-2.03 2.254-2.157 3.217 2.944-.887 4.238-5.471 5.43-7.775 1.118-2.153 3.757-6.585 4.24-8.864-1.65 1.469-2.26 3.9-3.25 5.875-1.32 2.634-2.664 4.23-4.365 6.636l-1.573 1.19c-1.828 1.215-3.655 3.115-5.559 4.71-2.842 2.432-2.665 2.887-6.116 1.849.736-.988 8.3-5.47 8.248-8.205l-3.375 3.216 3.274-5.116 1.472-1.038c-.406 1.57-.762 1.038-.863 2.608 1.903-2.456 6.243-9.927 8.426-11.016-.228 2.963-2.335 6.534-4.568 9.168-1.878 2.228-5.685 5.191-6.802 6.888 5.152-2.355 10.761-10.484 12.64-16.056.66-1.95-.585-.861 1.32-3.242 1.344-1.671 5.177-6.154 5.304-7.724-1.142.507-6.27 7.572-8.173 9.548-1.497 1.545-2.386 2.963-3.807 4.685l-2.614 3.748s-.203.177-.254.228c-.05.051-.152.076-.28.203-.1.126-.177.126-.278.177-.863-2.659 3.578-5.698 4.01-8.206-2.513 2.533-3.731 5.876-5.559 7.978-1.726 1.975-1.218-.861-6.395 5.394.406-5.85 4.086-4.964 4.644-7.547-1.573.38-2.31 2.052-4.06 2.811l-.686-1.798c2.589-2.71 5.025-2.608 8.223-6.812-1.167.278-.253-.076-1.37.709l-3.02 2.684c-3.58 2.685-3.605 2.71-4.442.963 1.244-.937 1.091-.228 3.122-1.95 1.294-1.115 1.853-1.343 3.02-2.634 3.223-3.647 2.868-2.178 3.502-4.837.381-1.621.66-1.393.66-2.077-2.106 1.621-6.573 6.635-8.857 7.344.203-2.228 3.35-3.469 4.644-5.369 1.168-1.671-.812.634.66-1.038.457-.506 1.7-1.114 2.005-1.291-.761-1.495-.05-.304-.66-.406-1.497-.278 1.016-.202-.913.076 4.593-5.014 5.279-3.216 7.614-5.394-3.046-.506-6.142 2.355-8.604 4.027-1.218.81-.356.608-1.65.633-.355 0-3.274-.608-3.909-.785 1.295-1.039 3.427-1.646 4.137-2.634.432-.608-.431-.532 1.32-1.19 1.422-.532.559.202 1.878-.659-3.705-1.291-7.715 4.407-10.101 5.42-.965-1.646-.254-2.279 1.117-5.42.609 0 .482.709 2.258-.557 3.148-2.228 5.305-2.684 8.072-3.9-3.097-.76-5.432 1.52-8.655 3.166 1.802-1.976.634-2.204 7.74-5.623 2.412-.911 3.478-1.063 5.915-1.316l.964-.127c-2.36-.659-4.01-.177-6.193.557-1.903.659-3.68 2.127-5.431 2.761.228-2.204.177-2.026-1.7-3.85 1.167-1.367 5.887-4.305 7.613-5.597-3.35-.405-6.446 5.268-10.609 4.837 3.427-4.508 20.228-11.219 21.7-12.257-1.243-.481.026-.456-1.65 0-1.649.456-15.532 7.901-16.902 8.788-2.615 1.671-3.402 2.203-5.102 4.102l.305-1.114c.152-.405.304-.861.532-1.291.94-1.697 5.229-5.141 7.869-6.408.76-.38.406-.152.888-.607 1.726-1.571 1.497-1.52 4.543-2.204-1.244-.658-1.904-.228-3.249.355l-2.868 1.165s-.228.05-.33.076c1.472-1.216 4.264-3.115 5.965-3.951 1.269-.608 4.644-2.026 5.583-3.014.863.026-.253 1.241.787.051l.61-.557c1.09.278 2.842-.329 3.857-1.013-1.421-.203-2.74.101-3.858 1.013-.812-.076.254-1.216-.736-.051l-.66.583c-1.066 0-1.472.304-2.436.886-.102-1.114-.127-.583.584-1.469-1.675.481-2.564 1.545-4.239 2.279-2.411 1.064-.558-.405-4.162 1.216.685 1.013.837 0 .177 1.19-.787.127-.127.481-2.182-1.621l.736-.151c1.193-.583 1.573-.304 2.614-1.089-3.528-1.039-1.878 1.874-6.066-.178l.05-.278c.99-.355 1.194-.33 1.955-.431-2.284-1.519-5.685 1.57-7.716 1.266.482-1.823 4.873-2.456 6.396-3.393 1.422.532-.787.532 2.69-.177 1.523-.304.99-.178 1.067.734v.76c1.776-1.418 3.07-1.52 5.33-3.369 6.395-5.343 13.68-7.268 15.025-8.483.837.025 2.132.177 3.375-1.419-1.599.633-1.599 0-3.375 1.419-2.538.329-12.335 5.166-15.026 7.243-.99.759-1.802 1.798-2.792 2.329-2.842 1.571-2.41-1.013-6.294.988-1.599-.481-4.162 1.469-6.269 1.52 2.817-3.521 8.858-6.205 12.335-7.699-2.563-.583-4.695 2.178-7.436 2.659 1.091-1.317 2.41-2.254 3.857-2.988 1.143-.583 2.513-1.368 3.782-2.102-2.563-.254-2.512.683-4.771 1.038 1.827-2.178 6.066-3.799 8.274-4.153 2.842-.482 1.802-.76 4.39-1.571 1.523-.481 2.767-.709 4.163-1.114-1.726-.532-4.645.709-6.726 1.368-7.31 2.228-8.604 1.874-14.06 8.154-1.701 1.95-.178 0-.762 1.368-.457 1.038-1.168 1.925-2.31 2.456 1.219-5.292 11.37-15.6 15.61-14.156.99-.178-.255 1.089 1.065-.431-1.776-1.013-.609-.228-.609-.861 1.497-.684.431-.202.406-.785l-1.624.557c-1.345-.658-1.853-.861-3.147-.228-1.016-.101-3.35.861-3.503 1.039-1.37 1.266-.33.506-.28 1.089 3.123-1.748 2.818-.963 3.808-2.102.127.025.305.05.38.076.077 0 .28.05.356.05 2.233.329-1.294-.304.558.051.432.076.254-.253.381.228-1.497.861-2.538.937-4.086 1.697-2.132 1.038-1.878 1.392-4.036.734 1.878-3.242 6.244-2.938 8.858-4.66-2.513-.608-4.06 1.849-6.548 1.418.457-3.672 1.929-1.595 4.67-3.672 1.396.127 1.574.026 2.64-.734.71.126.101.152.863.076.101 0 .456-.102.558-.127 5.05-1.165 7.386-.506 9.01-1.114-2.36-1.165-8.376-.051-10.431 1.165-.432 0-.254-.051-.863.076-.102 0-.457.101-.559.152-.964.304-.38.101-1.193.506l-5.964 1.976c-1.193.379-1.675.304-3.046.886-2.64 1.165-1.903 1.14-3.248.81.736-2.684.507-1.468.99-1.722.304-.152-.102.228 1.065-.506 1.879-1.165 2.26-2.355 5.026-2.153-.736-1.697.228.253-.787-.861-.787-.861-.457-.051-.685-.861 1.116-.355 1.726-.734 2.715-1.038 1.27-.38 1.675-.279 2.742-.608-.838-1.469-.229 1.14-1.143-.785 1.32-.608 2.513-.887 3.808-1.292.913-.278 1.167-.43 1.903-.582.558-.127.584-.076 1.193-.254.939-.278-.152.228 1.015-.379-6.878-.355-12.74 3.089-14.543 3.191.584-.861.076-.38 1.218-1.165.076-.051.178-.102.28-.152 1.345-.811 1.472-.785 2.715-1.089 6.472-1.57 6.675-2.457 8.528-3.065.533-.177 1.675-.304 2.259-.354.025 0 1.193-.127 1.218-.127 1.015-.202-.279.304 1.015-.304-2.436-.987-3.832-.076-5.66 0 .762-.861 1.067-.937 2.006-1.367.076-.051.203-.076.279-.127 1.32-.76 2.208-.658 3.604-1.165 4.238-1.469 2.64-.354 6.548-.836-2.208-.962-3.477-.734-5.508-.405l-.05-1.798c-1.219.81-.33.431-1.828.735-1.827-.735-7.08-.507-9.416 1.038 1.954.101 1.853-.684 4.137-.659.965 0 2.843-.101 3.553.228-3.4 1.165-7.994 3.065-11.268 3.014.304-1.57 2.005-2.482 3.172-4.027-.102-.683-.406-1.317-.634-1.95 2.893-1.772 2.969-1.165 4.365-2.456h.28l.558-.051s.203-.025.279-.051l6.523-.354.152-.38c.736-1.823 6.142-1.545 7.817-1.342 1.929.228 3.096 1.114 4.67 1.418 2.893.582.203 0 1.878-.912 2.843-1.545-1.447 1.444.812-.278l-2.005-1.14 3.553.076c-2.614-1.747-7.41.355-10.177-1.494 2.183-2.203 6.015-.963 8.858-.76 1.066.177.203.152.304.304 0 .05-.101.152.33.734 6.726-3.09 13.858.735 17.868-.81-2.157-1.19-7.081-.05-10.025-1.165 2.31-1.19 10.761-.734 13.756-.557 3.706.228 8.401 1.646 12.386.836 1.142-.228.787-.026 1.472-.659-1.345-.38-3.224.152-5.38 0-7.209-.43-13.554-2-21.98-.785-1.726.253-3.02.735-5.076 1.013-2.97.405-9.518 1.292-12.335.279 2.41-2.533 16.09-3.875 19.238-4.407 13.756-2.33 26.7-12.257 14.518-18.335-7.056-3.52-21.066 6.787-27.919 9.927.99-1.494 2.716-2.71 4.137-3.672.33-.228.812-.532 1.066-.659 1.447-.633-.152.051 1.091-.329.838-.253 1.396-.582 2.158-1.063 3.147-1.95 5.939-4.761 9.188-6.281 2.03-.962 4.213-2.28 6.446-3.292 6.802-3.191 11.04-7.04 15.558-13.676-.786.228.051-1.165-2.258 1.976-4.137 5.622-3.427 3.494-6.549 6.812-.304.101-5.126 3.115-6.116 3.57-2.488 1.14-5.102 2.837-7.183 4.078-.964.583-.685.405-1.624.659l1.497-2.584c-.888-.151-1.929 2.482-4.695 4.686L56.09 78.13s-.178.126-.305.177c-1.142.557-.736.33-1.472.43l3.579-4.254c-1.828.354-1.421 1.19-3.858 3.57-1.7 1.647-2.64 1.875-4.188 3.04-1.243.937-2.69 2.406-3.807 3.419-1.853 1.722-2.132 1.95-4.441 1.823.152-1.14 3.654-4.052 4.517-5.04 1.955-2.254-.355-.86 2.107-3.115.914-.835 2.005-1.393 2.233-2.76-.939.253-1.116.582-1.878 1.291-.457.431-.457.558-1.04.938-.965.658-.584.38-1.193.557 2.005-2.432 3.63-3.242 5.482-6.18 1.091-1.747 3.528-5.85 4.822-6.61-.228 1.267.178 1.419-.507 2.432-.381.557-1.828 2.026-2.386 2.633 1.37-.227-.152.355.964-.455.28-.203.533-.456.787-.71.432-.455 1.092-1.316 1.675-1.95 2.107-2.304 8.35-8.813 6.168-12.384-.813 4.761-1.523 5.977-5.051 10.46 0-.127-.05-.203.025-.38l1.092-3.267c.71-1.646 1.142-2.153.33-3.723-3.148 10.156-2.03 5.445-4.29 7.623-.761.734-1.32 2.077-2.03 3.014-1.853 2.532-7.081 7.445-9.39 8.737.355.785.964.228.304 1.19-1.752 2.634-9.569 6.053-1.32-.734-.888 0-.38-.203-1.396.228l.38-1.95c-.888.785-1.09 1.392-2.258 2.279-1.117.836-2.107 1.367-3.173 2.203 1.625.405.965.177 2.513-.886-2.132 2.634-7.868 5.597-11.903 2.988 2.005-2.786 7.918-5.394 9.01-8.281l-2.107 1.595c-.203-1.975 2.335-2.279 2.437-4.381-2.615-.38-2.513 2.203-5.33 4.28-5.178 3.824-12.03 6.584-18.198 4.584 3.68-1.672 6.599.126 10.736-4.483-6.853 3.622-13.528 5.8-21.015 1.925 4.238-4.128 4.314-1.874 4.873-4.077 1.726.987 7.208 2.076.888-.608 1.98-1.95 6.65-1.773 9.34-2.71 1.421-.507 1.98-.279 2.741-1.342-1.853-.836-4.771 1.646-7.03 1.924-1.904.431-2.767 1.014-4.721.608 1.37-.683 2.335-.886 3.604-2.076-.533-2.026-1.066-1.267-1.447-2.533 3.63-.81 6.777-1.317 10.28-2.152-1.65-.786-3.198-.456-4.696-.406.152-1.646 3.858-1.722 5.203-1.722 1.345 0 4.467.633 5.761.532-4.264-2.634-9.06-1.14-12.64 1.596-.05-1.039-.354.177.23-.887.38-.684.355-.506.812-1.013.761-.836 1.015-1.291 1.725-2.127 1.574-1.9 1.726-1.342 1.802-2.887.178-2.735 6.32-3.622 8.376-8.788 1.345.38 1.954.152 3.401.405 1.142.177 2.183.557 3.401.658-2.792-2.81-6.853.076-8.883-1.899-4.543-4.432 5.254-4.204 6.04-4.255 2.868-.202 7.894 2.128 10.229.988l-2.69-1.063c3.477-.279 4.44 1.24 7.664 1.95 0-.102-.101-.178-.076-.279.254-.76-.076-.33-.203-.532-.685-.937-2.005-1.24-3.325-1.545-1.624-.354-3.045-.785-4.441-.304-.178-1.899.507-1.089-.914-3.165l-.71-1.114c2.283-1.52 6.116-.81 9.289-.456 1.802.202 2.715-.102 4.771.886 1.574.734 4.213 2.684 5.406 3.064-.761-2.076-5.38-3.596-7.513-4.786l1.904.203c1.65.253 3.706.151 5.28-.887.532-.81.583-.456-.178-1.038l-4.848-.963 3.883 1.393c-2.741 1.393-8.528.608-10.254-2.861 6.422-1.875 8.782.38 12.513.86-2.081-3.09-13.122-1.747-13.503-1.797 2.26-1.57 4.468-1.52 7.234-1.267 3.553.33 4.594 1.292 7.893 2.052-2.487-2.052-6.852-3.014-10.076-2.938-2.106.05.051.608-2.081-.253 5.787-4.128 16.32 3.418 18.376 4.077 1.116.355.33.253 1.167.177-.837-1.443-7.64-4.356-9.568-5.445 2.614-.709 6.903 1.165 9.796 2.685-.888-2-5.634-2.938-7.538-3.216-2.766-.406-4.822.1-7.69-.786 2.208-1.14 9.746-.734 13.604 1.039 4.746 2.178.964 1.317 4.467 3.14 1.167.608 1.117 1.013 4.29 2.71.685.38 1.218.76 1.903 1.14.254.152.761.405 1.015.531l.99.279-6.548-4.077c4.847-1.09 11.32 4.71 13.121 5.04-3.908-4.027-8.223-5.319-12.715-6.079 2.766-2.127 8.325-.506 11.447.684 6.116 2.355 2.131.912 10.152-.253l1.446-.43c1.6.632 1.549.38 3.198.506 1.523.101 1.625.354 3.046.912-.051-.077-.152-.127-.127-.229 0-.1-.101-.177-.152-.227-.863-.659-1.472-.71-2.564-.988-3.959-1.064-2.563-.76-3.426.05-2.107-.734-3.655.254-5.533.507-1.37.177-4.416-.506-5.457-2.76 2.944.1 5.888 2.988 9.315 1.063-1.27-.38-2.589.203-4.112-.658 2.03-3.242 1.32.557 4.518-1.393-2.208-.76-3.63.076-5.838-1.14 2.64-3.267 8.427.203 9.366.38-.406-2.507-5.61-2.28-6.98-2.355l-1.193-2.431c1.193-.304 2.665.076 3.934.86-.05-.1-.177-.151-.127-.303.051-.152-.101-.228-.126-.304l-.229-.684s-.076-.253-.102-.354l1.041.405 1.548-.203c-1.599-1.165-2.995-.633-4.67-.582-2.385.076-2.817 0-5.355-1.09l1.878-.607c2.919-.608 7.614 0 10.152-.152 1.041-.076 2.538-.304 3.782-.405-1.37-.861-2.919-.532-4.213-.456l-9.264.203c-1.751.152-3.223 1.24-4.543.405-.254.05-9.72-.076-10.305-.177 2.462-4.103 3.072-2.28 5.787-3.825l2.741.178c-.583-.557-.71-.684-1.345-.71-1.523-.075-.609-.151-1.396.532-.939-.177-.837-.076-1.776-.278 2.563-2.406 9.416-3.065 12.664-2.735 1.904.202 3.25.886 5 1.393-.228-.735 1.117-.279-1.446-1.47-.254-.126-1.6-.405-1.904-.48-2.386-.482-2.563-.254-1.573-2.634.862-.887 5.99-1.165 7.462-.735.964.279 2.004.735 2.74.912-1.065-1.444-2.766-1.089-4.796-3.115 1.776-.38 5.304.962 7.055 1.545-2.918-2.203-7.182-1.722-8.527-3.04 8.933-1.443 7.69-1.417 15.761 1.47 1.523-.76.431-1.165 2.03-1.115.33 0 2.107.735 2.538.912l4.899 1.773c1.599.709 8.705 5.749 9.771 6.939 9.899 11.143 7.081 10.08 12.284 16.563.483.329.28.38.635-.102-.533-.734-1.066-1.62-1.65-2.634-1.117-1.975-.33-1.392-.99-3.013-.863-2.153-2.715-3.622-4.441-5.37-3.807-3.823-5.762-6.989-10.685-10.838 5.634 3.824 8.807 5.698 13.096 11.295 4.848 6.306 8.705 16.588 9.924 24.236.685 4.28 3.528 15.144 7.665 16.892 8.121 3.444 21.218 4.178 30.177 2.76 5.152-.835 9.239-1.671 14.619-1.443 2.64.126 12.31.304 14.873 2.152-1.599-.152-2.716.304-4.619-.05-.812-.152-1.472-.33-2.411-.406-1.726-.151-2.97.431-4.518.507-.584 0-1.447-.152-2.107-.203-5-.455-11.192-.151-16.192.735l-6.092.278c-1.269.076-2.081-.05-3.401.127 1.041.557.229.38 1.142.456 2.97.253 7.462-.633 10.99-.532 4.67.152 9.239-.962 13.883-.355 1.168.153 3.021.406 4.163.583-.508-.962 0-.38-1.345-.836.127 0 .279-.076.33-.101 1.827-.937 7.918.734 9.593 1.697l.99-.05.279 1.19s0 .202.051.303c1.345-.126 2.487.076 4.213.076l4.645.05c1.954.229 8.553 5.142 9.746 6.839-1.497 1.215-4.746 0-6.65-.254-2.03-.278-1.548-.202-.913.81 1.167-.506.101-.379 1.472.077-.102.076-.508.405-.99.684l.431.48c-1.827-.126-4.086-.43-5.558.482 3.401.734 7.411-1.216 7.208 2.153l-9.619-.33c2.132 1.647 10.71.558 11.193.583 3.604.203-.305 1.494 3.705 1.671 1.193.051 1.32-.126 2.437.507-.533.253.152.278-1.218.38 1.192.38 2.969.48 3.933.785 1.549.481-.38-.076.686.278 1.726.583 1.903-.025 2.817 1.343-3.223.303-6.472.278-9.619-.279.761 1.089.888 0 1.726 1.216-.762.278-1.675-.102-2.665.101 1.523.912 7.817 1.266 10.177 1.62 3.503.533 7.817 1.368 10.203 4.56-2.106 1.367-1.37-.912-4.467-1.697l-5.888-.33c-.761.38.888.178-.863.279l-7.665-1.038c-1.091 0 .026-.71-.863 0 .482 1.722.508.506.609.506 8.173.937 3.503 1.216 6.295 1.444 2.259.202 1.091-.785 7.055.709.559 2.127 1.929 3.9 3.934 5.672l.559.735-1.523-.304c.431 1.038 3.173 2.735 4.112 3.52-.939 0-.787 0-1.726-.278l-2.107-.633 1.117 1.19c1.523 1.241 2.462 1.925 3.579 4.027-5.483-4.128-4.975-2.66-7.082-4.052-1.725-1.14-4.06-4.255-5.913-4.635.558 1.57 6.269 5.724 8.071 7.243 4.035 3.419 4.238 4.635 4.594 8.256l.482 8.636c.025 2.482-.965 6.838-1.929 9.522-1.244-1.773-7.462-15.372-8.604-16.208-.736-.532.609-.329-1.168-.456l2.082 3.672c-2.335-2.152-3.604-5.723-5.863-7.648.101.963-.102.177.279 1.064.711 1.646 6.447 9.092 7.462 11.827-1.777-.507-3.883-4.508-5.279-6.306l-.812.608s-.127.075-.204.101c-.736-2.203-.152-2.457-2.284-2.837.508 1.419 1.498 3.115 2.259 4.686-3.655-1.216-2.183-3.749-3.579-5.344-.837-.962-2.005-1.444-3.299-2.912-.888-.988-1.904-2.052-2.741-2.812 1.624 3.115 5.66 6.23 6.7 9.649-3.705-.734-2.842-2.887-4.923-5.748-.153 1.367-.254.785.203 1.975l.888 2.026c-2.614.456-1.32-1.621-2.386-2.988-1.472-1.925-.685-.634-1.218-.608.203 1.342.507 1.063.863 2.456l.71 2.685c-.939 1.798-1.649 3.368-3.071 4.254-5.101-1.975-13.401-12.865-19.086-12.282-7.944.835.127 11.573 2.589 15.119 1.701 2.456 2.868 5.217 4.619 7.977 1.65 2.609 3.376 5.597 5.153 8.18 3.121 4.508 4.34 12.916 3.451 17.171-1.142-1.266-3.401-3.217-4.111-4.559-.939-1.798-.559-3.697-1.904-5.191-.711 2.279.635 2.532.66 4.482 0 .912-.33 1.317-.355 2.406l.431 4.584c.381 6.053 1.472 8.889.254 16.79-.355 2.229-1.168 8.332-2.487 9.801-2.208-2.608-1.142-3.089-4.112-3.773l1.091-3.267c-.786.506-.761.937-1.624 1.367.203-1.367.203-1.519-.736-3.064-.66 2.659 1.015 2.609-1.802 4.533l-.431-.455c-.61-.558.126-.279-.559-.456l-1.65 4.685c-.609-.912.102-1.19.229-2.761-1.218.633-.914 1.925-1.701 2.786-1.624 1.773-.837-1.165-2.588 2.178-3.224 6.129-.203 4.027-3.351 7.395-1.852-2.305 3.934-8.205 3.274-11.953-1.522 2.709-2.868 6.002-4.72 8.458.533-1.595.989-3.444 1.624-5.267 1.218-3.521 4.239-8.915 5.127-11.295.304-.887.533-1.799.634-2.71.127-.988.178-.431.102-1.469l-.355-1.545c-.863 3.495-.381 7.977-5.077 10.89.407-2.254 1.752-4.052 2.183-6.483.229-1.267-.127-.785.584-2.128l-.102-.861 1.092-5.267h.025c.026-.026.127 0 .127 0l.508.05c-.076-.987.076-1.494.203-2.634.203-1.722-.279-4.204-.279-5.748 0-1.621-.153-1.317-.28-2.862-.203-2.533.127-2.482-.609-5.42-.406-1.621-1.243-4.381-1.345-5.521l2.563.76c-1.7-1.519-3.73-2.482-3.654-4.964.863.203.761.963 1.7 1.216-.051-3.242-3.604-1.19-3.35-5.597l3.35 2.811c-.127-1.697-1.142-2.507-3.274-3.571-1.548 3.369.178 3.166 1.548 8.889.736 3.065 3.477 12.233 2.665 15.601-1.091 4.482-.254 9.269-1.675 11.624 0-.076-.101-.127-.076-.228l-.355-13.726c-.102-4.331-.483-4.787-.99-8.56-.178-1.292.025-1.241-.33-2.558-1.523-5.293-2.589-8.357-5.229-13.675-.456-.887-.761-1.799-1.192-2.71-.381-.785-.939-1.722-1.269-2.583l.761-.482-1.878-2.836c-2.817-7.674-9.949-15.069-15.558-21.754-.584-.709-.787-.785-1.32-.887 0 2.001 7.512 9.396 8.731 10.763 1.345 1.495 2.817 3.673 4.086 5.471l2.868 5.065s.076.253.102.304c.025.076.076.202.101.304-1.878-2.052-2.437-3.926-4.365-6.129-2.005-2.279-2.792-3.85-4.467-5.926-9.112-11.27-9.848-8.56-18.325-23.755-1.193-2.153-2.005-4.179-2.767-6.23-.38-1.039-1.928-5.825-2.208-6.205-1.167 4.33 8.528 20.716 10.838 23.704 2.563 3.293 7.36 8.586 10.279 11.397.964.937 8.071 10.307 8.883 11.624 1.599 2.533 6.777 12.131 8.046 14.942l2.106 6.053c.686 1.722.584 1.671.787 3.343.279 2.152 1.218 3.621 1.32 6.179.025.734-.026.709.051 1.443l.38 5.167c.102 2.304.153 4.153.178 6.356.025 1.798.381 4.888-.203 6.534.152 1.039-1.345-.177.837 1.317l.305-.405a458.03 458.03 0 0 0-2.513 7.648l-2.665 8.282 2.945-5.065c-.356 2.304-2.792 10.864-4.036 12.46l-4.188-1.14c-1.624.937-2.157 1.545-2.792 3.14-1.269 3.166-5.862 8.94-9.162 10.915-1.777-1.165-1.751-1.19-2.563-2.912-1.219-2.558-.457-.405-2.005-1.672.304-4.153.177-3.874 2.639-8.306.711-1.266 2.716-6.23 3.122-8.307.812-4.077.051-5.116.076-7.851.025-3.697 1.295-4.913-.685-8.154l.33 1.823c.127 1.292-.305 4.229-.381 5.572-.127 2.608.457 4.406.127 7.243-.457 3.874-4.772 12.206-8.046 15.22.356.861.66.228 1.041.734-2.437 5.217-4.137 8.814-7.843 13.727 3.173-1.672 7.31-11.498 8.554-13.043.152 3.343.507 1.976-.483 3.875-.685 1.292-1.776 3.267-2.715 4.635-2.538 3.621-4.01 4.558-7.031 6.837-1.142-1.063-1.523-2.355-2.005-3.317l4.29-5.597c.177 1.342-1.523 3.976-2.259 5.192-.889 1.443-.584.253-.736 1.316 1.725.076 4.238-6.483 4.39-7.496-2.969-1.241-1.497.228-3.324.101l2.842-3.798c-3.528-.279-4.847 3.773-5.736 4.913-1.853 2.355-.939.126-3.071 2.735-1.294 1.57-1.548 1.671-3.045 3.014.203-.887-.153-1.343-1.193-2.229.685-.886 2.665-3.216 2.665-4.255-1.168.659-2.031 2.102-2.665 3.343-1.726 3.394-3.325 4.66-7.462 5.369-1.32.228-.965.329-2.234-.076.508-3.495.99-6.432 1.599-9.851.559-3.191 2.818-5.167 5.66-9.978-1.345-.254-2.614 1.595-3.959 3.317-1.168-2 1.903-4.812 3.578-6.736-1.573.532-2.36 1.95-3.731 3.621-1.167-4.812-1.065-3.925 2.107-6.306-.355-.05-1.117-.253-1.167-.253-1.041.962-2.412 1.773-3.427 2.659-1.497 1.292-1.929 2.609-3.858 2.887 2.132-5.343 1.701-2.938 2.513-4.761.863-1.95.584-.785.051-1.849-.254-.531-.711.431.076-.911-1.32-.735-.076-.178-1.015.05-1.878 2.128-2.158 4.483-3.833 5.293-.152-.785-.203-.05 0-.886l1.168-2.305c.71-1.469 1.446-2.431 2.36-3.925l1.015-.456c-1.472-1.393-.101-.279-1.066-.177-1.979 2.228-2.182 2.786-3.274 5.217-1.776-2.963 4.264-6.585 4.797-8.586-.431.127.152-.278-.837.38l-2.132 1.849 3.248-4.179c1.346-.253.406.355 1.269-.987h-1.116l-2.234 2.254c.152-1.722 1.777-3.014 3.097-3.926-2.082-.228-1.675 1.165-3.604 1.646 1.192-1.924 3.604-3.849 4.111-5.698-1.675 1.722-2.817 2.837-4.695 5.015-.305-3.47 4.543-8.687 6.954-11.523-.101.025-.304.202-.304.126l-.863.481c-2.691 1.849-3.528 5.116-7.615 4.306 1.193-3.014 3.452-4.913 5.711-7.015-.533 0-.863 0-1.244-.051l.483-.962c.634-.912 1.37-1.57 1.548-2.507v-.228c.254-2.812 1.751-3.343 3.553-6.712-1.548.71-2.487 2.862-3.883 4.812.609-3.824 6.497-8.104 6.929-11.599-1.295.659-6.853 8.813-8.122 10.89-.431.709-1.396 3.774-2.132 5.318-.787 1.672-1.802 4.66-2.563 5.091 1.548-3.951 3.02-9.776 5-14.157.888-1.975 7.309-14.106 7.309-14.765-3.401 1.596-3.02 5.015-5 8.079-.66-2.887 6.447-13.903 5.838-17.576-1.244.507-.508 1.064-1.219 2.558-.634 1.292-.736.963-1.269 2.989-.456 1.722-1.218 6.002-2.893 6.559l2.081-6.331-1.573 1.139c.685-1.747 1.472-4.862 1.751-6.736-1.32.582-1.193 2.127-1.777 3.621-2.563-9.851-3.426-6.584-4.594-9.801.229-2.532-.431-4.508.483-6.61-1.193-.962-.686-.607-.787-1.848-.026-.431-.279-1.013-.381-1.418-.279-1.267 0-1.419-.761-2.837-.711 1.064-.533-.253-.432 1.266.026.532.305.836.533 1.393.939 2.279 1.548 7.193.482 9.472-1.395-1.14-2.868-1.342-4.111-1.697-1.396 1.114-3.706.304-7.107 4.28-.888 1.064-1.319 2.786-1.878 4.179-.558 1.418-.888 2.811-.939 4.178l-.761-.076c.355-1.114.609.507.05-1.494-.33-1.165-1.675-3.824-2.284-4.66-.203 1.748 1.472 4.913 2.259 6.154-.634 2.026.203.406.305 2.533.05.912-.33 1.773-.457 2.684-.381 2.634.101 14.689.431 16.487 1.345 7.268 6.117 14.866 3.046 21.83-5.685-5.9-1.954-2.228-3.985-9.927-1.066 1.519-.076 3.621.381 4.964-.863.101-.939-.33-2.234 0-.71 1.722-.863 3.646-1.142 5.039-1.573-1.696-1.751-5.217-3.35-6.736-.381 1.342 2.081 5.723 3.046 8.712.482 1.469.812 3.039 1.116 4.482.229 1.115.229 1.089.28 2.254l.228 2.33c-.685-.05-1.396-.177-2.03-.278.253-2.001.482-2.482-.026-4.382-.33-1.291-.913-3.191-1.497-4.482-.279 1.367 1.624 5.546.025 4.862-.33 2.381.254 2.938-1.193.887-1.142 2.988 2.944 10.079-1.294 12.434-.229-2.608 1.117-6.508-.102-8.788-.482.735-.457 6.864-.431 8.028.051 1.976.507 2.28-1.548 4.356-1.066 1.089-2.31 2.026-3.63 2.153-.177-1.646 2.513-3.596 1.98-6.584l-1.523 3.798c.076-1.291.482-1.342.152-2.659l-.456-1.165c1.04-2 2.258-2.912 1.675-4.938-.863.506-2.716 3.216-3.071 4.026-.66 1.596-1.219 4.407-1.625 5.344-.761 1.773-2.512 2.862-4.01 3.85-1.294.886-2.995 2.203-4.543 2.329.609-2.228 1.751-2.709 2.589-3.292.33-.126.66-.38.812-.608.305-.43.33-.43.406-.633.381-.405.355-.456.355-1.165 1.092-1.772 1.777-4.482 1.472-6.078-.964 1.14-.533.735-.862 2.305-.254 1.266-.33 1.671-1.066 2.659l-.813-.557c-.456.734-.533.633-.812 1.393-.127.354-.203.582-.228.734-.026.051-.076.076-.102.127-.279.405-.406.835-.355 1.215-2.234 4.306-5.127 8.56-4.39-1.114.228-2.912 1.395-2.71 2.359-6.179.61-2.178.711-4.255 1.168-6.585l.761-5.09c0-1.621.559-.633-.583-1.418-.609 2.608-.533 4.381-1.371 7.572-.66 2.456-.558 4.862-1.954 7.876-.355-1.747-.482-5.344-.254-7.116l-1.878-.558c-.66.076.304.912-1.04-.253l.634-1.215c.787-1.317 1.117-2.305 1.243-3.698.254-2.456.051-2.507-.66-3.672-1.37 5.242.534 2.456-3.984 9.294-.914 1.368-2.437 3.748-3.579 4.812-.99.912-2.665 2.127-4.01 2.786a.87.87 0 0 0-.305-.304s-.05-.025-.076-.051c.076-.202.508-.43.965-.861 1.193-1.899 3.122-5.749 4.67-6.483-.482 1.57-1.117 2.431-1.7 3.773l-.432 1.343c1.497-2.305 4.517-5.876 4.086-8.51-1.599.836-.203 2.153-2.665 2.305l1.777-3.571c-2.716.76-4.518 8.307-6.092 10.485l-1.446 1.367c-.33.051-.635.254-.863.532-.102-.608.431-1.874 1.98-4.128 1.675-2.456 1.624-2.077 2.436-4.609 1.04-3.216 2.919-5.268 2.183-8.408-1.27.709-3.071 6.382-4.188 8.433-1.523 2.811-3.909 5.724-6.244 7.902a1.437 1.437 0 0 0-.609-.355l-.127.177Zm.356 2.406s.177-.126.253-.228c.254-.202.483-.278 2.03-.759.915 1.747-.811.253 1.016 2.102.761 0 2.259-.279 2.411-.279 1.93-1.443 4.01-2.76 5.787-4.356 1.777-1.595 3.046-3.419 5.355-4.001 3.376 3.951-1.472 14.714 1.98 17.398 2.157-1.317 7.563-1.722 12.868-7.42.711 1.545-.051 1.089 1.117 2.583 2.69.025 3.857-2.127 5.863-3.495.913-1.215 1.903-2.938 2.817-4.026 1.878-2.254 1.142-.355 2.893-1.875.305-1.139.838-3.621.279-5.065 1.878-1.165.533.482 2.31-1.139-.533-3.824-2.462-12.334-.736-15.221 2.639 1.064 3.325 4.078 5.507 5.167 3.757-6.281.787-13.727-1.192-20.083-.406-1.266-.432-2.128-.787-3.368-.838-2.812-1.066-13.955-.685-16.994.609-4.837 1.04-7.141 3.197-11.016.94-1.672.178-1.722 1.802-3.166 5.203-4.66 10.99.456 12.107 7.902.254 1.722.152 1.798.203 3.469.228 8.13-1.675 13.6-4.772 21.4-4.289 10.839-2.817 10.383-4.213 14.562 3.046 1.545 1.269.962 3.782.329-1.472 4.736-4.035 11.245-3.502 17.095.126 1.342 0 1.874.126 2.887.102.684.356 2.026.508 2.71 4.162 2.456 4.34.734 7.284-1.621.762 1.443.406 3.723.279 5.419-.152 1.798-.685 4.002-1.015 5.977-.279 1.596-1.472 7.319-1.446 8.661 0 1.216.203 1.646 0 2.887l1.497.963c.863-.836 2.893-.836 7.106-3.065 2.64-1.392.508-.734 1.955-.354 1.345.354.584 1.038 2.106.278.686-.329 2.564-2.709 3.477-3.317 1.473.532 2.006 4.28 3.985 6.559 7.107-4.482 7.64-6.129 12.411-13.524 2.741 3.191 3.731 6.965 10.432-1.747 1.7-2.203 3.934-6.762 5.71-8.281 2.589-.279 5.533 2.254 8.63 1.139 2.335-1.722 2.588-5.875 4.238-8.509 1.345-.101 1.396-.633 3.706.329 5.507 2.33 3.655.583 5.482-3.419 2.513 2.457.406 2.026 3.325 4.306 6.218-12.207 2.893-30.998 3.299-33.43 1.422 1.495 2.691 3.242 4.34 3.824 1.98-2.76.178-13.65-1.37-17.246-.914-2.077-3.554-5.977-4.924-7.901-1.345-1.875-8.655-14.284-9.442-16.183-.33-.811.153.076-.431-.811-1.269-2-4.086-6.052.051-6.837 3.654-.684 14.847 10.433 18.781 12.941 5.711-4.483 1.878-2.938 5.102-5.901 1.573.304 8.553 3.773 10.05 4.761 6.346 4.179 5.711 6.103 6.828 8.231.888-.76.127-.279.888-.127.33.532 0 .051-.178.76l.711 1.291.838 1.064.558-1.215c2.487-4.736 2.64-12.536 2.284-17.779-.051-.886.051-1.621-.152-2.887-.228-1.545-.533-1.595-.279-3.14 2.411.278-.787 0 1.167.228.939.126-.228.228 1.117.05 1.802-2.633-.66-5.267-2.513-7.85-1.751-2.406-4.162-5.37-6.167-7.395 1.954-1.09 4.289.48 5.177-.912.584-2.684-1.725-3.267-3.933-4.812-3.325-2.33-8.833-6.56-12.615-7.85l-6.446-2.128c1.979-1.19 3.731-1.368 5.558-2.963-.736-1.038-7.69-6.23-9.238-7.142-11.549-6.736-28.833-8.408-40.254-5.647-7.716 1.874-9.314.76-14.695.937-3.325.101-12.538-.735-15.127-2.229-8.655-4.989-9.467-17.246-11.7-26.54-.635-2.635-2.64-6.51-3.96-9.244C135.151 14.26 121.649 5.7 108.882 1.369c-3.578-1.216-3.68-1.975-5.127-.836l3.833 3.774c-3.858.101-2.107-2.001-12.107-1.19-1.472.1-.533.38-1.446-.077-1.904.786-2.158.102-3.63 1.393l1.726 2.735c-4.695.304-3.426.203-6.117 4.255-2.893-.304-1.725-.557-4.543.33-1.446.455-3.07.683-4.467 1.266-2.335.987-7.03 4.76-6.802 7.774 1.7.76 4.137-.303 8.655-.05 2.335.126 7.564 1.14 8.782 3.647-.305 2-1.548.633-2.183 4.077-3.553-2.305-3.452.658-3.96 1.24-4.415-1.038-7.512 0-10.304.127-3.73-3.646-5.99-3.47-9.771-3.596-3.452-.101-6.37-.405-9.62-.557.229.583-.101.279-.228.861l-1.294-.684-1.549-.227s.102.1.153.05l1.167.81c-2.055.71-4.543.507-5.152 2.862-.28 1.013.431-.633-.178 1.292-1.7.86-3.223.937-4.517 2.152 1.903 3.242 1.65-.177 4.264 2.685-1.955 1.469-8.325 1.19-10.635 3.52 3.097 3.09.787.127 2.944 2.153-1.396.987-6.624 1.14-8.756 1.671-3.35.81-5.888 3.622-4.112 6.23L25 50.424c-4.137 4.23-6.954 5.217-7.792 6.458-1.396 2.051.482 1.064-.94 3.241-1.446 2.204-3.045 4.255-5.202 5.496-4.924 2.836-1.624 2.786-.94 4.128-.786.177-1.624.582-2.588.937-1.853.633-1.548 0-3.071 1.494l1.193 1.343c-2.005 2.101-3.807 2.735-5.71 5.04 3.629 2.101 9.618 3.14 13.248 3.52 3.908.43 5.127.76 9.314 0 1.193-.229 1.549-.482 2.97-.608-.025.81-.254.05-.558 2.254 4.619 3.165 12.182-1.267 14.923-.178-.355 2.026-1.193 2.026-2.64 3.698 1.422.886 1.6.531 2.818.48 2.614-.075 2.995.837 8.147-1.924 7.132-3.824 7.284-4.736 15.228-8.306 1.879-.836 3.401-1.697 5.203-1.976 9.417-1.52 18.274 11.017-10.076 16.664-4.39.886-3.3.228-5.431.583-2.741.456-8.3 1.418-10.685 2.33-3.249 1.215-3.198.151-2.97 3.545-3.807 1.418.102.557-5.406.405-4.213-.126-7.182 1.925-10.685 4.306-2.97 2.026-3.3 1.646-2.69 4.887-1.244 1.545-2.92 2.811-2.741 4.508l.355.912.61.684c-2.057 2.127-5.864 5.343-6.65 7.445-.864 2.356-1.879 6.61-.432 8.408 2.36-.633 3.477-2.963 6.497-2.684-1.142 1.747-1.929 2.684-1.903 4.584l1.903 1.291-2.284 2.102c-2.792 4.002-5.127 7.015-5.888 11.928-.406 2.533-.584 2.761 0 3.951.101 0 .203 0 .33-.101 1.345-1.317 5.406-1.748 6.142-2.102.634 1.19-.203.785.558 2 .99-1.798.71-1.519 2.056-.607-.355 3.165-9.975 13.143-8.452 15.879 1.498.329 1.853-.937 3.757-1.495 1.522-.455 3.07-.329 3.857 1.495-.507 1.266-3.375 3.292-4.568 6.255-.508 1.241-.94 2.507-1.447 3.672-.33.735-.558 1.216-.736 1.874-.177.659-.127.355-.177.912-.051.608-.051.405 0 .912 2.588.911 2.944-2.685 7.715-.684-1.954 2.76-3.68 6.964-4.34 10.282-.355 1.849-.05 1.646.38 3.089l-2.131 2.077c2.284 0 .38-.785 2.487-.278-.076 1.114.28 2 .127 3.089-.863 5.724-5.584 7.572-3.35 10.409 4.848-.253.28 1.19 11.548-.405 5.482-.785 10-3.85 11.015-3.824 1.904-1.419 4.086-2.28 6.168-3.343 1.37-.709 4.923-1.545 5.862-1.52 1.219 2.735.534 2.457-3.07 8.079l.913 1.165c.99-.405 3.731.101 5.102-.203 2.056-.481 3.198-1.772 4.949-2.406 1.447-2.076 2.411-4.634 4.441-5.824l4.594-2.634c2.208.405 2.843 5.571.559 7.091 1.142.912.609-.329.507 1.317-.152 2.076-1.37 1.165.584 2.355 5.203-.81 6.294-.152 12.513-4.027 1.243-.785 1.726-1.165 2.005-1.418v.025Zm17.106-62.705.152 1.216c.457-1.191.432-.456-.152-1.216.305-.861 1.066-.05-.152-1.722-.305 1.494-.254.684.152 1.722ZM89.365 34.469c1.015.557 1.32.127 2.766.152.305 0 .736.05.94.05 1.42-.075 2.233.735 3.73.66-.761-.963-3.4-1.242-4.67-1.267-.203 0-.71 0-.863.05-.71.152-1.117.33-1.903.355Zm-26.497 92.969c-.432.152-8.198 1.671-9.747 2.811 2.513-.101 5.787-1.342 8.198-1.899.787-.178.863-.051 1.7-.228 5.965-1.241 4.798-2.381-.126-.684h-.026Zm27.03-36.24c-.356.354-.483-.811-1.422.38l1.422-.38Zm78.172 65.389 1.319-.43-1.091-.076-3.071.607s-.203.026-.279.051c-.457.127-.381.127-.812.304l-6.879 3.621c-1.37 0-3.68 1.216-4.644 2.128 1.396-.304 3.452-.937 4.644-2.128 1.041.127 10.102-3.697 10.813-4.077Zm-24.213-73.646c-.432-2.507-.28-5.546-.229-8.078-1.32 1.823-.863 6.458.229 8.078Zm-14.391 6.56c-.914 2.076-.482.38.051 1.57l-.051-1.57Zm93.527 23.501c-1.117-.81-.305.735-.178.963 2.158 1.823 1.777 3.064 3.147 4.609.584-1.899-1.395-4.128-2.969-5.572ZM137.08 93.958c-.102 1.013-.685.127.381 1.798l-.381-1.798Zm6.218 4.71c.66-2.33-1.726-7.572-2.081-10.332-.178-1.292-.355-.912-.711-1.976l-.456-.354c-.102 3.267 1.395 10.89 3.274 12.662h-.026ZM30.863 82.536c1.852.76 6.75-3.393 8.172-4.685 2.919-2.684 4.086-5.166 6.32-8.408-.431.101-.61-.304-1.802 1.241-1.65 2.102-1.168 3.064-4.645 6.382-2.41 2.305-6.091 3.799-8.045 5.47ZM141.496 35.61c-.304 1.798 1.853 7.141 2.132 8.762l.482 3.09c.153.988.457 1.849 1.092 2.81.304-2.202-.076-1.645-.508-3.215-.939-3.42-.964-8.484-3.223-11.473l.025.026Zm-11.269 58.83c-.304 1.266-.507.025.229 1.342.507-1.62.406-.278-.229-1.342.026-.734.254.279-.076-1.089-.178-.709-.254-.861-.584-1.646-.101.608-.685.734.66 2.735ZM71.7 152.84c-.152-.937.127.025-.685-.962.431 1.291.253 2.178.634 3.292.28.861.508 1.14.71 2.001.255 1.063.432.886.305 2.76-2.157 3.444-.99 10.637-8.147 18.969-2.74 1.114-.939 1.443-3.452 3.165-1.192.836-2.182 1.849-3.223 2.938 1.853-.507 2.386-1.798 4.112-3.014 1.523-1.063 1.599-.202 4.086-2.507 2.132-.861 4.416-3.166 5.736-5.647 1.193-2.229 2.741-5.167 1.548-7.547-1.218 2.076-.482 3.95-2.183 7.141-2.055 3.9-2.817 3.571-5.482 5.926l-1.32.431.483-.912c2.538-1.038 5.38-6.331 5.888-8.762.355-1.748 1.04-3.318 1.624-4.939.61-1.696.381-2.735.736-4.432l.432-.202c0 .785.127 1.317.558 2.355.178 2.659 1.27 4.964 1.93 7.826.608 11.7-2.006 16.132-2.31 20.336 6.37-3.52 1.522-22.337 1.32-27.757-.254-1.114-.813-2.406-1.168-3.52-.584-1.798-1.04-3.419-1.65-5.014-.33-.887-.33-1.064-.482-1.95v.025Zm134.034-77.495-.964.456c1.37.937.279.329 1.066.101.609-.38 2.005-.912 2.741-1.114 1.396-.38 1.243 0 2.436-.735 2.285.659 3.427-.506 7.615.026l.913.076c-1.65-.887-2.817-.988-4.518-.912-2.081.101-2.69-.177-4.01.785-1.726-.38-3.807.101-5.304 1.317h.025Zm-104.517 93.475c.635-1.773-1.802-6.787-2.64-8.484l-3.045-8.788c-.685-1.722-.964-2.811-1.726-4.659l-1.751-9.295c0-1.671-.38-2.862-.558-4.558-.229-2.229-.102-2.659-.584-4.761l-.61.278c-.837-1.418-1.04-3.267.153-4.913-1.168-.329-.05-.633-1.04-.025-.686 3.191-.584 2.709.05 5.521l.838-.583.152.861c.863 9.168.863 11.396 4.01 21.147l2.792 8.256c.533 1.696 1.218 2.456 1.853 4.178 1.167 1.976.964 3.824 2.106 5.8v.025Zm90.101 20.007.457.228c-.66 1.469-1.751 3.9-1.396 5.318.508-.557 1.726-2.937 2.107-3.672 1.091-2.102.304-1.874.736-3.621 1.421-5.648 3.883-10.029 5.025-14.765.279-1.19.508-2.254.584-3.596.076-1.646-.33-1.216-.153-2.583l.102-1.064s-.127-.152-.152-.177c-1.904-2.583-.153.101-.127-3.394l-.203-1.342c-.711 1.342-1.625 6.585-1.625 6.812 0 .811.533.861 0 3.242-.253 1.064-.558 1.697-.533 2.71 0 .582.051.557.127.962l1.447-4.736c-1.015 10.055-6.447 16.69-10.051 25.148-1.243 2.938-2.309 6.256-3.451 8.738 1.903-1.469 3.756-8.94 7.081-14.233l.025.025ZM204.262 73.09c.203.785-1.015 0 .457.861l1.142-.633c1.853-.962 3.452-1.013 5.178-1.342 2.715-.532 3.02-.558 5.203-.228 3.578.531 7.081.152 10.634 1.19l.584-.71c-2.183-.531-4.264-.48-6.32-.683-2.716-.279-.939-.836-2.487-1.089-.888-.152-5.178.507-6.015.583-1.041.076-1.853.126-2.868.329-1.548.278-3.934.912-5.508 1.747v-.025Zm-38.375 36.468c-.711 2.077-.229.836.051 1.773.406-1.621.228 0 .177-.81-.05-.811 0-.33-.228-.937.482-2.128.076-5.369-1.117-7.319-.381 1.139 0 2.431.305 3.697.406 1.747 0 2.229.837 3.622l-.025-.026Zm-65.863 41.609c-1.624-.557-.862-.227-1.827-.126l2.411 1.317c.305 1.722.559 1.519.305 2.228l-.305.558c2.919.962 1.396 1.468 2.538 3.115-.127-1.292-.457-1.292-.33-2.558 1.498 0 1.599.278 2.589.962l.762.456c-.863-1.596-2.538-2.077-4.137-2.659l-.381-1.52c.482-.101 1.091-.177 1.497-.304-1.903-1.114-2.233-2.431-3.096-3.039-.558-.785-.178-.81-.432-1.57-.304-.962-.862-2.228-1.345-3.14-.05.912-.228.202.026 1.038.228.735.431 1.241.66 1.95.431 1.368 1.065 1.976 1.015 3.343l.05-.051ZM13.807 74.913l-2.462 1.165c1.396-.177 3.579-.506 3.985-1.089 1.624-1.266 4.188-.506 5.964-1.722-2.589-.886-5.254 1.115-7.512 1.646h.025ZM130.862 61.77c-.609 1.392-.508.455-.279 1.747.507-.253.786.658.837-1.19.66-1.697.635-.963 0-2.102l-.533 1.545h-.025Zm6.624-15.22c-.508-1.318-.888-2.913-1.472-4.129-.457-.937-.33-.86-.736-1.95-.228-.658-.076-.152-.482-.785-.279-.456-.609-1.013-1.117-1.672 0 .28-.102.102.102.71.126.405.253.607.431 1.063.66 1.646 2.107 5.648 3.249 6.762h.025Zm-96.852 84.079c.762-.076-.228.684.889-.203 1.142-.937.177.127.228-.912l-1.117 1.115c-1.37-.102-2.36.278-3.502 1.494-2.894.152-11.751 6.509-13.553 8.535 1.218 0 5.304-3.267 6.75-4.331 2.031-1.494 5.254-2.406 6.803-4.204.685.051.101.177 1.167-.127 0 0 .812-.329.838-.329 1.193-.532.66-.127 1.523-1.013l-.026-.025Zm21.599 27.857c.584-1.519.355-3.95.761-6.002-1.142 1.469-1.523 4.331-.761 6.002Zm31.421-113.76c.508 1.013 1.117.557 2.081.684 5.66.709 11.421 2.05 17.081 3.216-.152-.405 1.041-.481-1.548-1.14-.838-.203-1.32-.304-2.157-.532a70.917 70.917 0 0 0-4.213-.886l-6.27-.734c-.228 0-.736-.102-.888-.102-1.497.05-3.02-.785-4.086-.557v.05Zm50.33 38.19c-.457 1.368-.559.253-.356 1.241.203.988-.152-.101.533 1.089l-.177-2.33Zm60.71 84.384c-.762 2.228-.254.937.152 1.95.381-1.925.228.076.127-.861-.102-.887.076-.254-.279-1.089ZM68.807 126.323c-2.03.152-.254.71 1.09.203-1.09-.203-.202-.278-1.09-.203Zm-14.01-23.476c-1.32.051-2.742.127-4.214.101.61.507 3.477.507 4.594.456 2.411-.076 6.447.38 8.655-.962-1.523-.456-2.335.101-3.858.05-1.421-.05-.736 0-1.98.203-.507.076-.837.025-1.167.076-.863.152-1.142.051-2.03.076Zm91.344 88.436c-.355.152 0-.735-.762.455-.456.684-.203.482-.228.887l1.091-.709 1.447-1.596 2.183-1.57.812.861 1.041-.962 9.974-4.381c-2.538-.71-6.218 2.127-8.502 3.013 2.538-3.621 8.959-4.66 11.192-7.015.686-.734 2.919-3.495 3.071-4.001-2.081.405-3.071 3.165-5.025 4.482-1.472.988-13.604 6.332-16.294 10.586v-.05Zm-98.73-40.977c-1.396.482-3.274.735-4.899 1.495.762.202 1.37.101 2.208-.051 1.066-.177 2.107-.608 3.046-.962.71-.254 1.142-.482 1.929-.76 3.553-1.342 11.447-8.965 12.792-11.042-1.828.81-5.102 4.28-6.93 6.002-2.588 2.406-5.025 4.255-8.146 5.344v-.026Zm94.339-39.583c-.33.507-.634-.126-.482 1.14.127 1.19-.685-.304.66.836l-.203-1.976h.025Zm26.446-44.446c-2.131-.253-4.34-.405-6.548-.76-2.538-.404-2.817-1.772-5.609-1.493.051.202-1.015.126.686 1.316.507.355 3.705.71 4.441.81 2.614.457 2.284.305 4.442.406 1.193-.076 1.497.101 2.614.253 1.04.127 2.157.203 3.274.279 2.132.152 1.091.253 2.081-.608-1.447-.582-1.117-.532-3.325-.05-.939.202-1.04 0-2.03-.127l-.026-.026Zm-72.537 99.174c-.05-.127-.178-.228-.127-.405.05-.178-.101-.279-.152-.355a6.05 6.05 0 0 0-.533-.785l.228-1.114c.203-2.887 1.27-3.698-.888-5.749-.584 1.519-.254.203.102 1.722 1.142 4.964-3.072 9.421-5.305 12.815 2.056-1.039 3.909-4.179 5.178-6.433l.482.279c.71 3.115-.71 6.154-3.68 8.813-1.295 1.165-2.59 1.975-3.858 3.165-3.528 3.293-1.98 3.065-2.386 3.926-.076.152 0 .228 0 .329-2.462 2.051-1.421 3.09-2.589 4.559-1.446 1.798-1.903.937-3.147 4.102-.584 2.381-.837.937.254 2.558.33-1.19.304-2.38.939-3.495 1.04-1.823 2.183-1.747 2.792-2.532 2.462-3.191 3.172-4.888 2.487-6.686 2.69-3.9 7.766-5.141 9.797-10.814.61-1.722.152-2.836.406-3.9Zm-13.807-32.847.965-2.203c-.457.228-.483-.304-.965.962-.761 1.976-.152.405 0 1.216-.838 1.291-1.345 2.634-.838 3.799.534-.887 1.067-2.761.838-3.799v.025ZM81.65 14.69c3.173-.456 4.67-.076 7.995.203-.99-2.229-6.447-1.419-7.995-.203Zm20.964 168.615c.559-1.722.254-3.571.102-5.242-.356.608-.559.684-.609 1.443-.051.735.127 3.242.507 3.774v.025Zm-31.345-31.276c.254-1.697.28-.507.051-1.799-.05-.227-.38-.81-.431-.987-.127 1.595-.203 1.19.406 2.786h-.026Zm41.954-37.608c.153.531.457.81.762 1.215-.102-1.494-.762-2.887-1.015-4.406-.229-1.874-.838-4.559-.66-5.977.253-2.102.152-4.533.761-6.23.152-.38.279-.583.381-.912.38-1.317.177-.76.152-1.342-1.802 1.089-1.472 4.103-1.751 5.926-.178 1.266-.508 1.165-.508 2.406.026 3.191 1.041 6.509 1.878 9.294v.026ZM67.258 152.94c.635-.405.762-.354.736-1.823-.025-1.52.686-2.963 1.219-4.483-.736.33.228-.987-.813.659-.634 1.013-1.167 4.381-1.142 5.647Zm30.178-11.928c-.127 1.697.152 2.178.786 3.546.077-1.241-.253-2.052-.786-3.546ZM30.558 45.637c-.609.102-.355.076-.939.279 2.97.836 5.761.05 9.34 1.444 2.005.785 5.127 2.532 6.878 3.038-.584-2.05-9.644-4.76-11.827-5.014-1.091-.127-2.259.279-3.452.253Zm26.218 134.73s-.355.102-.33.026c0-.076-.254.05-.304.076-1.295.76-.635 0-2.538.861-.863.405-.711.43-1.6.684-.43.126-1.015.228-1.624.354-1.624.355-.254-.532-2.183 1.064 2.133 0 1.041-.507 3.884-1.114 1.65-.355 3.02-.634 4.035-.735-1.015.557-2.182.709-3.375 1.14-1.041.405-2.615 1.038-3.833 1.595-2.842 1.342-4.797 2.533-7.335 5.47 1.193-.202 1.422-.937 2.411-1.215-.355 2.076-1.396 3.849-2.487 5.825-1.066 1.899-2.487 4.026-4.441 4.508-.051-1.697.964-2.66 1.42-3.951l.204-.963s.025-.202 0-.329c-1.218 1.418-1.904 3.698-2.944 4.331.736-1.874 1.015-1.672.863-2.786-1.472.886-1.041 1.621-1.904 3.242-.914 1.722-1.827 1.418-1.421 2.887 1.243-.633 1.32-1.342 2.259-2.761 1.878 1.52 2.512 1.115 4.035-.43 5.812-5.926 3.35-7.319 8.706-11.321-2.107-.228-1.295.254-2.97 1.292-.203-2.305 8.02-4.533 9.822-4.862 1.422-.254 2.03-.786 3.275-1.596 8.35-5.546 6.675-6.686 8.299-9.674.761-1.368 2.386-2.837 2.487-4.255-5.863 6.458-4.06 8.535-12.41 12.637Zm89.872-86.03c.102-1.012.356-.151-.101-1.645-.457-1.52-.787-2.913-1.32-4.432-.254-.735-.279-.557-.482-1.368-.178-.684 0-.633-.533-1.62-.305 2.076 1.37 7.065 2.436 9.066Zm34.67 68.936.152.329c.635 1.697-.558.785.457 2.634.863 1.595 1.574.886 1.498 5.572 0 1.013-.127 2 .177 3.039 1.396-5.775-.634-6.585-.279-12.891.076-1.342.254-3.039.356-4.432.355-4.938-2.31 2.887 1.395-8.965.559-1.773 1.879-7.37 1.346-8.99-2.31 6.711-2.818 12.282-6.828 22.134-.964 2.355-1.649 5.191-3.045 7.623-.686-1.95-.127-.735.101-2.406-2.106.43-.584 3.115-4.086 8.306-2.183 3.242-3.376 6.205-5.685 9.751l6.776-10.13.051.709v.937c.914-1.013.685-.659 1.294-1.849.28-.557.153-.025.407-.912.279-.937.152-.785.177-1.139 1.092-1.849 4.366-8.206 5.711-9.396l.025.076Zm13.173-80.686c-1.396-.76-1.853-1.19-3.249-.735 1.371.482 1.903.861 3.249.735Zm-64.721 94.235c1.599-5.85-3.223-21.299-6.903-25.604-.279 1.545.837 2.533 1.878 5.47 2.589 4.711 4.239 16.538 5.025 20.134Zm-51.344-1.266c.05 3.52 0 7.749-.965 11.497-1.675 6.61-2.106 6.028-3.858 10.789l-.38 1.038c1.827-1.975 3.984-6.736 4.188-8.965 2.208-4.609 1.65-9.877 1.624-14.739 0-2.761-.838-5.926-.787-8.915-.178-.81-.152-.861-.482-1.418-.559 3.546.609 7.192.66 10.713Zm53.02-64.757c-1.32.228-1.346.329-2.209.988 1.625.354 2.234-.836 3.681-1.064.228-.025.659-.126 1.142-.202.71-.102.99-.203 1.903-.152l.356-.304c-2.234-1.089-3.021.683-4.873.734Zm-59.29 11.472c1.346.431.458.228 1.777 0l2.005-.455h-.431l-1.624-.076c-.686 0-.686-.406-1.7.531-1.701-.177-1.676-.379-3.148.507 1.624.532 1.269.633 3.147-.507h-.025Zm-22.791-18.436c-.28 0-.635.076-.837.101-2.59.507-4.899 0-7.59.988 2.006.202 1.777 0 3.63-.304 1.751-.279 3.198-.102 4.924-.127 1.827-.354 3.858.709 5.38 0a7.594 7.594 0 0 0-1.98-.582c-1.192-.178-2.309-.178-3.527-.102v.026Zm-8.528 1.19c-1.218-.177.026-.608-1.802.101-.66.254-.584.38-.964.684 1.878.304 1.193.329 2.766-.785Zm63.832 78.939c-.533 2.406-.634 6.382-.66 8.939-.051 4.508-.761 4.407.356 5.344.279-.81.685-7.724.736-9.573-.178-1.697.583-3.166-.432-4.71Zm-66.725-67.973c-.94-.177-1.32-.228-2.056-.203-1.65.102-3.883-.05-5.406.811 1.853.253 5.787.152 7.462-.608Zm146.674 19.171c-.305 1.393-.533 2.254.482 3.064.482-1.063.228-1.95-.482-3.064Zm-132.207 22.97c-.66.304-.889.506-1.523 1.317-.482.633-.736 1.013-.432 1.57l1.32-1.241c3.553-4.66 11.726-12.865 15.61-19.5 1.573-2.659.913-2.837.913-3.115-2.767 3.393-4.95 7.825-7.564 10.839l-8.324 10.13Zm189.541-68.986c-1.979-.836-2.132-.937-3.655-.481.635.253 1.295.532 2.005.658 2.158.355.483.228 1.65-.177ZM66.294 123.69l2.106-.861c-1.65-.152-3.629.152-5.076.202-1.243.887-2.284.861-3.73 1.57.913.178.05.228 1.344.026 1.726-.254 3.808-.557 5.381-.963l-.025.026Zm68.984-63.845c-.457 1.24-.711 1.671-.609 2.786 0 0 .584.86 1.04-.912.229-.937 0-1.013-.431-1.874ZM46.573 34.849l3.528.608c3.401.152-2.056-.963-3.528-.608Zm86.015 10.485c1.345-1.419.457-.304.355-1.064-.178 0-.787-.203-1.091-.228l-1.371.557s-.101.101-.152.127c.101.101.101.304.66.456.685.202.558-.178 1.624.151h-.025Zm-30.685 128.373c.38 1.519-.127 1.925.863 3.419.152-.633.279-.937.304-1.52.102-1.545-.254-1.317-.406-1.519.152-.912.127-.279.127-1.039 0-1.443-.406-2.228-1.168-3.469-.482 2.583.711 1.95.305 4.128h-.025Zm73.857-27.047c-1.878 1.317-3.02 2.633-4.899 3.824-1.548.987-4.289 2.456-5.203 3.317 2.005-.456 10.026-4.558 10.102-7.141ZM130.024 39.99c1.092.101 0 .937 1.244-.279l-1.98-.608-1.37.608c1.548 1.596.304.861 2.132.279h-.026Zm-1.903 17.07c-.939.354-2.488 1.139-3.122 1.95.914.252.888.151 2.056-.507 1.852-1.039 1.091-1.039 1.066-1.444Zm3.68-9.22c1.218-.936 1.015-.658 2.208-1.29-1.015-.33-.711-.305-1.599-.406l-1.853 1.114c.736.253.965.456 1.244.583ZM75.888 156.689c.025-1.595-.965-3.52-1.7-5.065-.102.836.075 1.267.481 2.761.28.987.457 1.545 1.193 2.304h.026Zm144.237-43.787c-.051 1.393.051 2.533 1.167 3.672.483-1.19-.101-2.634-1.167-3.672ZM104.009 53.893c1.523.482-.457.634 3.147-1.823-.685-.05-1.167.05-1.802.304-1.954.836-1.345 1.52-1.345 1.52Zm141.293 62.275c-.203-1.114-.406-1.393-1.396-2.456-.786-.862-1.269-1.444-2.233-1.495l3.604 3.976.025-.025Zm-38.908 66.15c-.634.227-.228-.33-.888.43l-1.371 3.773c.33-.177.356.887 1.269-1.747.305-.912.635-1.697.965-2.456h.025ZM11.7 73.166c.254 1.317.051.506-.101 1.469l1.548-.532c1.091-.304-.101.506 1.421-.507-.101 0-.863.203-1.396-.253-.203-.177 1.143-1.317-1.472-.202v.025Zm96.091 94.59c-.406-1.672-2.31-2.812-3.934-3.343.609 1.443.736.481 2.157 1.747.863.734.812 1.494 1.777 1.596Zm25.177-51.993c1.472-1.114 1.244-.912 2.894-1.52-1.625-.38-.076-.304-1.193-.152-.863.102-2.513.988-3.249 1.545l1.548.127ZM26.472 58.477c-1.675-1.14-4.492-.354-5.736-.126 1.776.557 1.142.101 2.893.152 1.142 0 1.828.202 2.843 0v-.026Zm81.167 16.766c-.127-.836.253-.228-.635-1.216-.025-.025-.66-.532-.837-.71-1.016-1.012-.28-.91-1.32-1.088.127 1.19 1.193 2.608 2.792 2.988v.026Zm20.456-38.039a29.97 29.97 0 0 1 1.396-.405c-1.193-.937-1.243-.658-2.462-.886l-1.319 1.19c2.132.456.076.05 1.599.05 1.04 0-.584-.354.786.051ZM97.08 89.095l-5.609 1.799c2.767.227 6.117-1.292 8.731-2.28l6.523-2.963c3.604-1.52 5-3.57 8.096-5.85-2.538-.253-2.969 2.76-8.502 5.344-2.894 1.342-6.904 3.723-9.239 3.95ZM124.34 55.97a6.227 6.227 0 0 0-4.213 1.266c1.802 1.013.533.532 2.284-.278 1.244-.583.558.278 1.929-.988Zm-28.248 58.831c-.863 1.494-1.193 4.254-.635 5.622.431-1.039.482-2.558.685-4.078l-.05-1.544Zm6.725 45.408c.584.987.254.228 1.447 1.241.939.81 1.193 1.468 1.878 2.355.051-.912.102-2.102-1.954-3.267-1.98-1.165-.711-.304-1.371-.304v-.025Zm-30.99-13.321c1.118.101.711.734 1.194-3.85.152-1.443.355-.304-.305-1.317l-.863 5.167h-.025Zm21.752-26.896c-1.218-.506-.026-.658-1.066-.126-.305 1.266-.229.683-.178 2 .051 1.469.203.532-.203 1.95.888.785-.228-.456.812.684.305-1.621-.482-2.76.635-4.508Zm-61.65-9.547-6.141 2.152c-3.731 1.165-3.68 2.254-5.28 1.545-.456-1.418-1.167-1.342 3.046-2.634 1.04-.329 1.142-.38 2.234-.557 1.928-.304 4.162-1.241 6.142-.506Zm68.858-37.482c.355 1.216.634 1.19 1.472 2.305 1.015 1.342.584 1.342 2.056 1.114.152-.304-2.614-2.912-3.528-3.419Zm30.533-29.934c.685-.43 1.091-.608 1.776-1.013-1.066-.177-1.751-.152-2.589-.279-.076.051-.177.102-.228.102l-.736.253c-.609.279-.406.076-.939.633 1.954 1.064.787-.71 2.716.279v.025Zm68.375 84.307c-.635-1.696-3.021-2.836-4.67-3.57.33 1.013-.863-.102.71 1.139.026 0 1.295.659 1.574.836 1.244.81 1.447 1.418 2.386 1.595ZM98.426 74.939c-.838-1.368-.863-.608-1.143-.608l.127.253.559 1.064c.837 1.925.533 2.76 2.106 3.672l-1.65-4.356v-.025Zm-.584-37.558c-1.168-.303-1.447-.658-2.665-.962-.28-.076-1.218-.203-1.523-.253-1.167-.127-.482-.152-1.421 0 .025.076-.838.456.837.836l4.772.354v.025Zm102.638 93.02s.736-.076-1.192-1.849c-2.107-1.975-2.031-1.14-2.285-1.14.635.963 2.437 2.837 3.477 2.989Zm-52.41-12.156c.457-1.748.431-3.596-.863-5.091-.33 1.419 0 1.419.177 2.634.305 1.9-.177 1.292.686 2.457-.178.76-.254 1.139-.254 1.848 0 1.191.178.938.279 1.976l.305 3.799.076.304.228-6.813c-.228-.988.051-.304-.609-1.114h-.025Zm47.69 69.365c-.483.178.152-.937-.787.558-.102.152-.508 1.291-.635 1.57-.406.962-.939 1.849-1.116 2.684 1.066-.38 2.639-3.343 2.538-4.812Zm33.375-69.087c.076-1.139.508.178.076-1.57-.076-.354-.279-.734-.431-1.089-1.142-2.963-1.422-1.722-1.549-1.747.077 1.241.178.911.838 2.178.736 1.367.33 1.114 1.066 2.228ZM36.04 77.471c-1.066.456-3.756 2.457-4.771 3.47.837 0 .431.709 2.842-1.343.863-.734 1.549-1.19 1.93-2.127Zm39.974 64.301c.457-1.976.534-3.875.229-6.002-.431.911-1.396 4.888-.228 6.002Zm65.127-66.479c-1.32 2-.939 5.09-.076 7.066.051-.861.051-.05.025-.988 0-.456 0-.329-.051-.86-.177-2.913.381-4.053.102-5.192v-.026Zm-59.187-57.26c-1.016 1.064 2.512.278 2.944.228 2.665-.177 4.67-.659 7.462-.71 1.675-.025 3.68.482 4.416 0l.507-.38c1.98-.835 6.066.052 8.173.38 1.574.254 3.655.887 5 1.95 3.35 0 9.315 5.572 12.259 7.27-4.797-4.382-12.031-9.776-19.137-10.182-2.005-.1-3.833-.05-5.838-.05-3.68 0-1.32.608-4.594.38-.685-.051-1.472-.051-1.75-.051-1.016.05-.33.05-1.448.05-2.538-.025-5.253.836-7.994 1.09v.025Zm53.502 100.288-.863.532c-.457.227-.99.405-1.371.607-.914.482-1.345.937-2.411 1.368l-.279.988c1.624-.988 3.934-2.508 5.584-2.66-.051-.759.38-.025-.66-.81v-.025Zm76.903-42.47c-2.31-.051-5.077.177-6.98 1.494 1.421.329 2.183-.102 3.553-.482l3.427-1.013ZM29.569 57.26c-1.752-.86-6.041-1.494-7.031-.38 1.117.127 1.827.077 3.223.229 1.295.126 2.589.709 3.807.152Zm66.623 22.895c-.076-.684.178-.228-.304-1.292-1.244-2.71-2.336-4.001-4.366-4.508 4.518 4.508 2.589 3.495 4.67 5.8Zm21.218 116.723c-.711.608-1.65 6.357-1.624 6.636.279-.178.304-.076.558-.456.812-1.317 1.295-4.939 1.066-6.18Zm18.249-79.369.304-.734c-1.37-.152-1.624.101-2.944-.127-1.167 1.317-1.675 1.064-3.046 2.254 2.158.329 2.056-.937 4.341-1.494 1.548-.355.253-.38 1.319.127l.026-.026Zm.507-5.926c-1.7-.05-1.497.102-2.995.684-1.091.431-2.182.608-2.969 1.165l.203.81c2.233-1.215 3.731-1.62 6.091-2.279l-.33-.354v-.026Zm66.04 22.869c-.863-.962-2.03-2.786-3.629-3.267-1.751-.507-.457-.304-1.421.253 3.299 1.418 2.208 1.342 3.553 2.482 1.853 1.57.533.557 1.497.532Zm-49.923 76.026c-1.904 1.596-3.883 3.444-5.558 5.622.482-.152.203.051.812-.38.99-.683 1.573-1.62 2.233-2.228.482-.456 1.219-.735 1.675-1.165 1.675-1.469.813-1.52.838-1.849Zm-66.04-77.596c.533-2.887-.33-.912.634-6.635-1.852.861-1.624 5.267-.634 6.635Zm12.893-22.286c-1.142.81-1.573 1.266-1.573 2.861.05 3.774-.356 2.001.786 3.318.432-1.418.457-.152.178-1.722-.66-3.672.482-2.128.61-4.457Zm-1.573-97.781c-1.879-1.114-2.132-1.57-4.29-2.127-1.421-.38-2.462-.785-3.654-.43 1.675.987 3.172.632 5.609 1.848 1.472.734 1.066.886 2.335.709ZM50.05 191.207c-.786.253.33-1.089-1.04.759-.787 1.039-2.462 3.749-2.386 4.711 1.218-.659 3.071-3.799 3.426-5.47Zm72.792-51.385c-.61 1.291.126 1.595.786 3.089.559 1.267 1.041 2.381 1.675 3.597.356-1.545.61 0-.786-3.47-.381-.937-.99-2.431-1.701-3.216h.026Zm-89.213 56.804c-.33.076-.33-.785-2.03 2.229-.254.456-.686 1.114-.889 1.494-.964 1.798-.533 1.368-.533 1.773.66-.304-.076 1.342 1.904-2.406.508-.962 1.269-2.102 1.548-3.09Zm180.252-86.612c-.964-2.381-4.847-3.824-6.954-4.457.508 1.139 1.701 1.063 3.452 2.102 1.167.684 2.487 2.127 3.502 2.355Zm-7.69 12.916c-.304 1.874 1.802 6.154 2.919 7.648-.152-1.747-2.031-6.432-2.919-7.648ZM89.314 82.207c.38-1.747.61-.127.152-2.305-.482-2.304-.761-3.9-2.64-4.102.508 1.393 1.6 1.722 1.98 4.786.127 1.09-.152.608.508 1.646v-.025Zm-58.045 24.338c-1.7-1.368-6.04.303-7.792 1.316.939.203.406.178 1.269.051.127 0 .584-.203.838-.279 2.867-.861 2.766-.557 5.685-1.063v-.025Zm75.278 66.782c-.025-1.798-.279-1.443-.025-3.292 1.244 1.114.888.937 1.853 2.304.076.102.177.254.279.355.076-.734.761-.962-.863-2.609-1.904-1.924-2.081-1.342-2.564-1.241.559 1.165 1.244 1.925.94 3.977l-.813.911 1.371.887c-.812 5.09-.914 15.853-1.371 21.172 1.041-.634 1.168-6.94 1.371-8.611.305-2.507.178-7.547.711-9.421.533.38 1.142.861 1.675 1.114.913.456 1.015.38 1.675.38l-3.782-2.634v-2.355c1.726 1.064.965 1.444 2.107 1.393-.609-1.241-1.371-1.975-2.564-2.355v.025Zm.254-165.956c-1.396-1.292-4.34-1.975-6.269-2.153-1.066-.1-1.142 0-1.827.203 1.523.43 6.193 1.671 8.096 1.975v-.025Zm27.487 44.294.99-.532c-.051-.152-.178-.228-.127-.38l-.178-.684c-.482-1.393.153-.532-.837-1.317l-1.828 1.039c1.498.532.508.278 2.006.48-1.447.38-1.396.178-2.437 1.216 1.447.583.558-.48 2.411.178Zm-23.578 21.07c-1.853-.683-.356-.177-1.675-1.215a1.192 1.192 0 0 0-.229-.152l-.533-.177c.838 3.494 4.264 2.583 5.203 1.874-1.421-.81-.863.86-2.766-1.874v1.544Zm4.695-3.317c-.634 1.266-.33.734-.482 1.95-.939-.988-.711-1.47-1.675-1.596-.076.963.228 1.697 1.396 2.229l2.766.734-.761-1.063c-.457-.583-.153.05-.609-.785-.711-1.292.406-.228-.635-1.47Zm-1.269 31.403c-.508 2.355-.178 2.533.152 4.66.153.937.33 1.367.457 2.279.229 1.748-.584.684.838 2.178.203-1.114-1.015-5.04-.965-6.812.051-1.773.584-.785-.457-2.305h-.025ZM22.208 67.063c-1.675-.735-3.96.658-7.766.785-1.498.05-.61-.102-1.676.456 2.158.329 8.452-.507 9.442-1.242Zm14.594-17.45c-1.675-1.595-6.675-2.861-8.376-1.823 1.218.684.533.304 1.954.33 2.335.075 4.239 1.266 6.422 1.468v.026Zm108.806 69.265c-.178 1.291-.508 7.623 0 8.914.837-2.355.609-4.356.482-6.534-.152-2.228.305-.911-.457-2.38h-.025ZM92.512 80.814c-.05-.836.584-1.063-.863-3.875-.635-1.215-1.168-2.684-2.513-3.14.28 1.368.026.506.965 1.95 2.614 4.052.787 3.394 2.41 5.065ZM181.8 197.31c-1.675 1.013-3.274 5.445-3.908 7.319 1.091-.431 1.776-2.684 3.122-5.141.203-.355.304-.507.482-.912l.304-1.291v.025ZM138.984 85.17h.533c-1.422-2.406-1.244-5.166-.356-8.307-.507.076-1.015-1.114-1.193 1.495-.203 2.785-.355 4.558 1.016 6.812Zm-84.797 64.098c-1.294-.228-.786 0-2.157.785-.99.608-.838.481-1.904.836-1.522.506-2.944.481-4.137 1.519 1.777.558.61.355 2.31-.329 2.513-1.013 1.04.836 5.888-2.836v.025Zm106.903 3.85c-1.447.076.025-.304-1.396.152-1.345.455-5.939 4.077-6.624 4.887 1.726-.886 6.852-3.874 8.045-5.039h-.025Zm55.101-74.102c-1.472-.507-3.198-.684-4.695-.684-3.655 0-3.071-.304-4.264.912.99.228 4.314-.228 6.7-.177 1.218 0 1.701.05 2.234-.051h.025Zm-32.512 120.776c-.533.127-.305-1.038-1.295 1.165-.304.684-.533 1.469-.863 2.228l-1.548 2.837c-.66 1.367.203-.709-.305.709l-.126.709c.533-.253.203.431 1.218-1.418 1.193-2.178 2.233-3.926 2.969-6.23h-.05ZM50.126 42.446c-1.269-2.228-6.37-3.621-7.944-2.456 1.117.33 2.26.33 3.579.709 1.98.557 1.954.836 3.173 1.393l1.218.354h-.026Zm-5.38 64.428c-2.614-.912-7.259.278-9.823 1.342 1.523.253 1.295.203 2.945-.304 2.918-.886 4.492-.127 6.878-1.038Zm4.594-61.946c-.61-1.646-3.807-2.304-5.406-2.887-1.574-.557-1.066-.48-2.234.05l7.64 2.837Zm36.979 37.456c.05-1.9-.203-2.659-.914-4.432-.228-.582-.583-1.443-1.091-2.178-1.32-1.95-1.954-1.19-1.954-1.19.05.101.101.253.152.304l1.345 1.9c1.624 2.43 1.117 2.456 2.462 5.596Zm16.497 23.806s-1.193-.658-1.345 1.671c0 .304-.228 5.268.229 5.8.228-.861 1.091-6.205 1.116-7.471Zm149.974 14.79c.025-1.824-1.752-7.091-3.681-8.839.153 1.241 3.249 8.282 3.681 8.839Zm-48.452-8.18c-.71 1.19-.863 7.876.051 9.218.355-1.595.432-7.851-.051-9.218ZM65.126 188.851c-.913.127-.025-1.544-3.35 2.761-.812 1.064-2.107 2.482-2.36 3.317.634-.202-.33.836 1.32-.785l4.416-5.293h-.026Zm57.284-44.977c0 1.798.812 2.406 1.574 4.229.482 1.216 1.37 3.951 1.852 4.635-.177-2.077-.837-4.534-1.852-6.712-.584-1.215-.609-1.544-1.574-2.177v.025Zm-30.863 18.791c-.304 1.342-1.066 2.305-1.42 3.47-.382 1.165-.102.506-.153.962 1.7-2.431 2.513-3.925 2.842-6.914.178-1.621.305-1.013-.33-2.152-.786 1.899-.532 2.861-.939 4.659v-.025Zm60.711-17.905c-1.422 1.545-1.955 2.533-2.742 4.407-.355.836-.507 1.342-.939 2.127-.203.355-.583.861-.736 1.216-.66 1.469-.33.734-.33 1.469 1.422-2.001 1.828-2.457 2.792-4.686 1.015-2.279 2.005-3.191 1.98-4.533h-.025Zm69.161 1.14c.153 1.342.406 3.09.711 4.508.203.886.279 1.317.482 2.254.279 1.367.203 1.545 1.193 2.456.33-1.215-1.7-8.56-2.386-9.218ZM119.491 93.502c-1.142 2.178-.177 5.597-.101 6.838.127 1.975-.762.937.558 2.152.203-.911.051-3.14 0-4.28-.051-1.19.076-3.393-.457-4.71Zm5.686-2c-.94 2.836-.203 6.457 1.319 8.509.076-.963-.939-7.573-1.319-8.51Zm-1.574 40.418c-.381 1.925.178 2.837.99 4.761.584 1.343 1.269 3.293 2.081 4.508.33-.861.33-.253.127-1.114l-3.223-8.155h.025Zm92.004 40.951c-.431 1.317-.152 7.648.254 9.092.66-1.545.584-3.115.584-4.761s0-2.786-.838-4.305v-.026ZM33.097 69.595c-1.498.633-.382.05-2.057 2.127-2.385 3.014-4.441 4.204-5.761 5.648 2.944-1.494 6.853-4.964 7.665-6.737.38-.785.177-.43.152-1.038Zm179.896 37.861c-.508 2.001-1.117-.658 3.096 3.444 1.422 1.368 2.513 2.786 3.782 3.976-.076-.683.152-.759-.863-2.051-1.37-1.722-4.289-4.128-6.015-5.369Zm-28.807 72.76c-1.04 1.494-.761 2.963-.914 4.685-.152 1.671-.685 3.495-.659 5.09 1.497-2.507 2.106-7.749 1.548-9.775h.025Zm-1.142-62.908c-.152 2.102.787 6.002.761 7.952 0 1.646-.659 1.443.863 2.862.305-1.317-.507-8.966-1.624-10.84v.026Zm34.619 50.245c-.381 1.418-.228 1.393-.228 2.811 0 1.849.152 6.863.736 7.977.253-1.418.33-1.772.253-2.912-.177-2.153.33-6.129-.761-7.876ZM35.482 56.426c-.761-1.748-6.117-2.988-8.782-2.305-1.142.304-1.802.355-2.868.735 3.452-1.47 10.28 1.646 11.65 1.57Zm102.842 66.149c1.726-.937 1.193.076 2.842-.785-1.979-.785-3.274-.304-4.974-.076-2.437.33-3.376 1.089-5.127 1.368l-1.117 1.367c1.599-.177 0 .38 2.208-.911 1.599-.937 4.391-1.494 6.193-.937l-.025-.026ZM35.533 59.971c-2.767 2.356-5.787 4.66-8.249 6.205 1.447.152-.203.481 1.421-.05.711-.228 5.94-4.154 6.295-4.61 2.005-2.355.583-.987.533-1.544Zm131.648 23.73c-1.649 2.431 1.752 9.016 3.046 10.687.127-2.127-.812-2.076-1.904-5.546-.406-1.317-.786-4.381-1.142-5.166v.025Zm4.264-9.117c-.203-.633-6.523-4.964-7.741-5.42.432 1.9 5.406 5.319 7.741 5.42Zm77.969 45.408c-.406-2.304-4.315-9.269-6.98-10.738.127.33 6.879 10.662 6.98 10.738Zm-96.192-37.38c-.178-.76-.076-2.203-.178-3.165-.177-1.697-.812-4.28-1.649-5.876-1.066 4.255 1.751 12.79 5.025 15.879 2.969 2.786 5.837 8.763 6.523 12.232-.762-8.788-7.944-11.725-9.721-19.07Zm26.802 112.317c-2.081.482-3.63 7.446-3.274 8.662.939-1.039 2.918-7.015 3.274-8.662ZM77.157 63.846l.761-1.24c2.741-.178 6.599-6.357 7.157-9.22-.888-1.215 0-.379-1.142.355.305 2.989-5.228 8.46-7.284 9.75l.508.355Zm-44.137 1.52c-1.878.177-4.873 2.102-8.274 3.419-1.447.557-1.7.43-2.843 1.443 1.574.304 1.346-.101 2.995-.785.99-.405 1.6-.532 2.741-1.013 1.853-.81 3.96-1.57 5.406-3.064h-.025Zm129.593 138.402c-1.751.684-2.284 3.773-5.152 7.116-.204.228-.914.912-.965.988-.584.734-.33.557-.33.861 2.64-1.925 6.168-6.002 6.472-8.965h-.025Zm-6.498-5.698c-1.726.405-3.35 3.545-4.619 5.039-1.244 1.419-3.579 3.875-4.416 5.091 2.284-1.368 7.969-7.294 9.035-10.105v-.025Zm3.021-32.366c-1.802.988-9.645 9.345-11.117 11.27 1.65-1.14 10.812-9.598 11.117-11.27ZM134.72 78.889c-1.65 1.773 1.167 12.46 2.106 14.74l-1.7-10.992c0-.785.101-1.088.101-2.076 0-1.241.153-.963-.482-1.697l-.025.025Zm87.029 29.479c-.355-2.077-2.462-4.533-3.807-6.154-1.446-1.748-3.756-4.128-5.812-4.356 1.624 1.773 3.223 2.406 5.355 5.09 1.447 1.824 2.792 3.85 4.29 5.42h-.026Zm-32.284 61.186c-1.015 1.975.28 3.672-.177 6.483l-.914 5.09c-.152 1.596-.33.659.228 1.748.559-1.444 1.269-5.192 1.549-6.939.456-2.837.228-4.204-.686-6.357v-.025Zm-76.852 18.107-3.02 10.991c-.203.659-.457 1.267-.635 1.824l-.279 1.848c.99-1.848 2.234-5.419 2.868-7.471.889-2.836 2.208-5.52 1.066-7.192Zm-20.279-94.59c-1.548-.253-2.462.153-3.858.33l-5.71.608c-1.523.05-4.366-.355-5.305.329 1.32.734 6.04.608 7.462.304 4.188-.912 4.873-.076 7.437-1.596l-.026.025Zm-8.705-8.433c.558-3.19.152-.05.101-3.799-.025-3.596-3.274-7.09-6.32-7.85-.253.76-.862.177.534 1.14.685.455 1.269.734 2.004 1.316 1.067.836 1.777 1.646 2.31 2.76.889 1.9.254 4.205 1.37 6.459v-.026ZM209.21 92.54c-1.726-2.989-7.385-6.889-10.761-8.712-.609-.33-1.193-.659-1.853-.912-1.446-.532-1.396-.304-2.081-.228 1.548.912 2.69 1.064 4.01 1.824 4.289 2.456 8.3 6.635 10.685 8.002v.026Zm-12.741 57.184c-.304 1.545-.203 2.608-.279 4.28-.101 1.671-.279 2.862-.304 4.407l-.356 8.635c1.675-2.076.965-10.054 1.295-12.839.253-1.976.457-2.786-.356-4.508v.025Zm-144.135 2.229a47.72 47.72 0 0 0-4.417 1.013c-6.446 1.772-8.756.101-13.121 3.57 1.446-.076.431.228 2.538-.785 4.188-2 10.786-.43 15.025-3.798h-.025Zm99.136-38.545c-.863 1.393 0 8.18 0 10.434.05 6.23-1.117 8.61-1.219 10.104-.05.633 0 .583.102 1.013 1.396-2.279 1.65-8.281 1.7-11.193 0-.811.153-1.596.102-2.634l-.685-7.724Zm-2.665-41.027c-2.538 3.14-.305 4.888.38 8.56.559 3.064.635 4.963 1.879 8.382l-1.752-12.763c-.152-1.014 0-3.369-.507-4.18Zm-112.36 85.447c-1.675-.633-1.066-.76-2.715.38.05-.101.076-.152.127-.304.228-.481.127-1.19.05-1.722-2.132 2.178-2.36.658-5.837 4.204l-3.376 2.558s.635-.329.812-.405l10.94-4.711Zm170.989-55.994c-.051-2.938-11.168-13.752-14.543-15.702.685 1.444 2.69 2.685 4.137 3.9 1.319 1.14 2.538 2.634 3.731 4.002 1.573 1.798 5.076 6.939 6.675 7.775v.025Zm-7.056-23.704c-2.614-1.748-7.538-1.874-10.178-1.9-2.995 0-9.035-.734-10.05-.05 9.061 2.253 7.132.43 12.791.911 2.513.203 4.315.051 7.437 1.039ZM120.71 21.4c-4.061-2.304-10.939-7.268-17.259-7.293-2.665 0-3.35.86-5.152.202l-2.716 1.342c1.573.178 1.675-.405 3.096-.405l2.868-.202c2.411-.102 3.046-.102 5.914.582 2.284.532 4.365 1.292 6.497 2.203 2.564 1.09 5.254 3.926 6.752 3.597V21.4Zm59.339 111.862-4.061 4.786c.787-.025 2.513-2.254 3.477-2.76.863 5.166-4.111 9.598-7.817 13.447.356-.101.381-.025.914-.354l2.589-2.254c2.995-2.862 6.979-8.535 4.898-12.891v.026Zm-145.075 34.29c-1.624-.583-3.3-.329-4.797.152l-2.487.785c-.761.228-1.548.557-2.462.937-2.766 1.114-7.386 3.368-9.847 5.723 1.802-.379 7.969-4.634 14.67-6.533 1.852-.532 3.451-.152 4.949-1.039l-.026-.025Zm12.894-3.647c-1.117.481-11.955 13.726-13.325 15.93 1.802-1.039 13.096-13.752 13.325-15.93Zm9.187-113.254c-1.852-.507-3.248.177-5.152.734-3.528 1.013-12.03 5.319-14.34 7.193 1.447.227 3.35-1.039 4.72-1.85 3.859-2.228 5.432-2.86 9.493-4.33l5.254-1.773.025.026Zm127.842 112.013c-1.574 4.761 2.919 3.52 2.309 10.561-.38 4.153-1.852 7.496-1.218 11.118.178-.38 2.081-10.358 2.132-11.245.102-2.406.203-3.241-1.091-5.369-2.767-4.558-.66-2.279-2.132-5.065Zm20.66-53.613s.609.304.71.329c1.625.456-1.167-.127.635.152h.736c-2.259-2.153-7.614-5.242-10.482-5.673 4.111 3.014 6.142 1.469 4.264 5.47-.508 1.064-.66 1.115-.813 2.204.229-.102.178.177.635-.456.33-.456.66-1.722 2.081-3.647l1.193.76c-.102.962-3.629 6.559-2.767 8.281.61-1.646 2.412-6.23 3.833-7.42h-.025Zm-79.01-74.634c.711 0 .685.456 2.487-.658-1.472-.633-1.345-.279-2.868-.228l-1.599-1.57c1.752-.355.356.709 1.701-.684-2.107-1.19-1.827.355-3.553-1.089-2.741-2.305-1.65-3.09-9.315-7.116-3.046-1.596-1.218-.912-2.411-.304 4.34 1.823 8.553 4.786 12.081 8.079-2.335 1.595-1.523.126-1.421 1.595 1.675-1.19 2.106-1.013 3.731.81-.254.71 0 .228-.61.735-.989.81.584-.76-.761.532 1.015.354 1.701.126 2.513-.076l.025-.026Zm38.934 134.401c-7.97 11.017-5.559 10.789-16.777 17.702.812.304.812.38 2.386-.557 2.157-1.291 5.609-3.697 7.183-5.521 1.675-1.95 7.284-9.876 7.182-11.599l.026-.025Zm47.157-65.668c0-.659.482-.025-.508-1.368-2.005-2.735-5.558-7.141-7.817-9.32-.838-.784-.279-2.05-6.269-5.748 0 .025 3.274 3.748 3.731 4.254 1.599 1.773 10.457 12.106 10.863 12.182Zm23.604-1.621c-1.346-2-8.173-8.864-10.635-10.788-2.03-1.596-9.416-6.256-12.106-7.345-1.549-.608-1.066-.253-1.599-.202 4.644 2.937 9.035 4.989 13.604 8.408 3.934 2.963 6.751 6.837 10.761 9.902l-.025.025ZM106.217 91.527c-3.071 3.064-5.863 6.534-8.68 9.978-.939 1.139-6.853 8.737-6.98 9.269 1.523-.659 13.528-15.322 15.33-18.057.635-.962.305-.405.356-1.19h-.026ZM90.329 45.359c-.38-.532.762-.026-.533-.532-.025 0-.71-.127-.812-.127l-8.985.406c-1.421 0-6.066.455-7.157.785-1.447.456-1.954.734-3.604 1.038-1.142.228-6.193 1.393-7.056 2.026 1.472.633 1.523-.203 3.173-.684 1.193-.329 2.08-.38 3.375-.709.686-.177 9.315-1.697 10.483-1.62 1.015.05 10.126-.203 11.09-.608l.026.025ZM88.4 114.37c-2.233 1.823-2.462 2.482-4.34 4.913-5.913 7.598-9.619 8.383-13.73 14.435.608-.126.253.152 1.065-.303l1.802-1.976c3.477-4.229 6.142-4.457 11.345-11.32.66-.861 1.65-1.925 2.36-2.811 2.793-3.343 1.549-2.305 1.473-2.938h.025Zm47.766-58.197c.102.86.203 1.393.483 2.203.177-.734-.051-.734-.127-1.469-.051-.709-.051-.253 0-1.013 3.705 1.393 2.538 1.52 2.918 1.95.457.507 10.153 4.407 9.112-.532-2.03.634-.228 2.963-6.32-.126l-7.792-3.065c-3.274-.734-12.817-5.976-15.05-4.609 2.106.304 14.771 5.217 16.751 6.66h.025Zm-74.67 122.523c-1.294 2.862-2.766 1.975-2.79 1.95.177-.861-1.168.431.507-.962l2.284-.988Zm106.472 2.051c-.685-.076-.533.482-1.193-.152 2.462-3.95 7.69-11.573 8.553-15.904.965-4.862 3.478-10.408 4.62-15.524 1.979-8.864 2.284-9.371 2.715-18.462.203-4.23.229-3.52-.05-7.547-.102-1.292-.559-2.355-1.168-3.799-.685 2.279.305 1.722-.101 3.723-.483 2.431-1.549 1.013-1.726 3.039l1.802-1.216c.304 1.115.228 1.545-.584 3.141-.305.582-.609 1.038-.914 1.544-.66 1.14-.761 1.216-.761 2.026l2.36-2.709c.381.987.178 1.038.203 2.203.254 12.257-6.421 34.113-12.132 44.446-1.573 2.861-3.096 4.71-4.822 7.496.508-.279.178-.152.711-.507.076-.05.406-.278.507-.354l.508-.329c0 1.165-.711 2.33-1.32 3.368-.71 1.266-5.71 9.598-5.71 10.687 2.69-3.52 7.436-11.371 8.553-15.17h-.051Zm68.35-75.317c-2.005-1.621-5.229-6.078-8.071-8.585-9.213-8.155-20.178-14.385-31.904-17.044-3.147-.709-6.7-.557-10.329-.785-12.868-.76-16.371 1.19-30.609-11.346-.406 1.292-.584.988.66 2.305 1.522 1.595 4.923 3.976 6.802 5.116 2.994 1.772 6.421 3.09 9.517 4.153l-.076.684c.305.506 3.173.835 3.807.987 4.975 1.115 14.949 6.382 15.787 6.509-3.02-2.836-6.371-3.444-9.721-5.065-4.162-2-6.015-1.62-9.289-2.71h.634c2.919 0 4.036.38 7.386.228 2.817-.126 12.614 0 15.863.937 3.401.963 3.325.304 7.969 2.33 7.082 3.09 10.356 5.065 17.005 9.598 8.503 5.8 10.279 9.472 14.594 12.764l-.025-.076ZM86.497 49.056c2.715.507 8.147-.05 12.106.659-1.04.937-2.74 1.798-2.715 2.988 3.121-2.305 2.436-3.368 6.319-2.634-1.167 1.343-1.903.861-2.335 2.38-.304 1.065-.254 0 .051.913 2.843-1.95.101-4.939 12.639-1.039-2.436 1.419-5.532 1.165-4.543 2.989 1.498-.81 1.193-1.267 3.071-1.798 2.513-.735 2.361-.988 2.361-.988 0 .05.127-.101.177-.127 1.371.33 3.452.785 4.721 1.368-1.979 1.291-2.03.228-3.756 2.051 2.538.735 2.69-1.9 5.609-1.646 4.112.33 14.086 4.938 17.766 6.94-1.319 2.101-2.588 2.835-.736 4.28.279-1.292-.482-.457 0-1.976.356-1.064.635-1.19 1.371-1.976 5.71 1.368.457 3.8-2.107 5.015-2.589 1.24-5.304 2.71-7.69 4.609-6.954 5.52-9.137 7.825-15.152 13.169 1.624.279.457.456 2.005-.785 1.04-.836.228-.836 1.599-1.038 1.117-2.001 11.776-10.46 14.061-11.929l10.964-5.926c1.371-.532 2.563-.202 3.68-1.62-2.03-1.09-.177.303-2.056-.254.178-.228 1.092-1.063 1.168-1.19.127-.304.736-.355-.127-1.596-.838.634.127-.303-.558.659-.077.101-.381.633-.533.836-.686 1.013-.381.835-1.32 1.494-1.168-2 .228-.279-.305-2.38-3.096.354-3.705-.38-7.132-2.128-7.741-3.925-27.334-9.244-35.05-9.776-5.584-.38-8.731-.1-13.731-.303-2.234-.102-10.914.354-13.249.86-13.603 2.888-21.218 3.369-35.228 12.511-.685.43-1.066.583-1.624 1.115-1.472 1.367-.838.557-.787 1.468 1.04-.278 4.924-2.887 6.04-3.57 5.813-3.52 18.655-9.016 25.254-9.345 2.158-.102 9.823-1.85 13.071-1.95 1.092-.026 5.812-.102 6.65-.38l.05.05Zm51.751 22.717c-.229 1.24-.102.912-1.447 1.773-1.904 1.215-1.269.937-2.208 1.114 0-.203-1.371-.658 1.726-2.077 2.005-.937.101-1.24 1.903-.785l.026-.025Zm-4.544 3.47c-.076.303.102.582-1.015 1.443-1.726 1.292-.71 1.038-1.954.05 3.655-2.658 1.345-1.924 2.969-1.493Zm-4.34 1.671 1.016.861c-.381 1.013-2.082 1.874-3.224 2.735-.761.583-1.878 1.722-2.614 2.026-1.853.785-.558.102-.787 0 .127-.582-.152-.608 1.117-1.671 2.665-2.229 1.497-.456 4.492-3.951Zm-5.66 6.103c-1.979 1.925-2.69 3.09-4.111 2.786.025-1.266 1.878-3.267 4.111-2.786Zm-19.669 18.412c-.229 1.519-.178 1.241-1.574 2.608-.914-1.722.051-2.254 1.574-2.608Zm-4.569 5.369c-.05-.329-.99 0 .406-1.672 1.345-1.595.609-.456 1.193-.582 0 .304.888.684-1.599 2.254Zm-10.203 12.029c0 .253 1.091.076-1.142 1.95-.761.633-1.269.937-2.005 1.418.558-1.316 1.903-2.861 3.147-3.342v-.026Zm1.523.912c1.091-1.95 2.132-2.33 3.528-3.723 1.37-1.367.761-.785 1.294-2.178.051-.126.051-.228.102-.354.05-.127.076-.203.127-.33.355-.785-.508.33 1.294-2 1.396-1.798 2.335-2.457 3.807-3.976 5.812-6.028 10.279-12.511 18.401-19.171 4.873-4.002 17.868-14.233 22.842-16.74 5.914-2.989 2.589-2.786 8.148-3.571.431-1.115-.787-1.722 1.015-2.33 1.32-.456 1.218.177 2.766.785 1.016.38.203.278 1.041.253-.152-1.291-1.168-1.494-1.726-2.684l-.838.202c-.279.076-.406.127-.812.228-.71.177-1.396.177-2.03.33-4.01.886 2.106.936-2.132 2.507-1.853.683-.355-.532-.939-.735-.457-.152-.66.177-1.117.43-2.259 1.19-1.523.735-2.741-.76-.508 2.027.355 1.52-1.624 2.736-.939-1.114.152-.253-1.117-1.798l-.406 2.203c-.99-1.013-.66-.912-2.132-.38-.152 2.102 1.015.76-.533 2.609-.66-.152-.482-.102-1.193-1.216-.025-.05-.076-.177-.152-.253-.432 2.051.71 1.19-.736 2.988l-.762-.506c-.584-.583.939.456-.66-.836-.406 1.368.28 1.52-.736 2.71-.304.355-.761.658-1.319.912-1.117.506-1.447.228-1.98.785-.711.76 0 .709-1.599 1.9-2.157 1.67-1.396 1.012-3.097.759-.533 1.925.407 1.393-1.421 2.28-.939.455-.203-.178-.914.48-.431.406-2.182 2.609-2.994 3.42-1.295-.178-.863-.837-1.98-.583.761 2.051.025 1.57 2.106 2.102-1.167 1.266-2.131 2.127-3.375 2.507-1.828-1.266-.508-.71-1.624-2.558-.889 1.9-.305 1.747-.026 3.52l-2.462 2.38c-1.776-.91.305-1.417-2.056-1.62-.279 1.114-.127.152.178 1.165.558 1.9.939.988-.051 2.634 1.574-.481 1.828-1.57 1.675-.785 0 .05.178-.127.28-.178l-1.701 1.115-.355.177c-2.234 1.317-3.097 1.747-4.518 3.546v.937c-.101 1.823-.939 1.139-1.041 1.165v-.355l-.076-.684s-.05-.202-.05-.304c-2.462 1.216 1.218-.709-2.843 3.166-1.624 1.57-1.244 2.305-3.731 3.799.406 1.367.61.329-.457 1.823.888-.278.406-.329.66.101-.812 1.14-.28.963-1.523 1.165l-5.05 6.382.685-.405s.203-.126.33-.202c1.066-.735.583-.71 1.421-1.064-.152 1.418-2.513 3.672-3.68 4.28.076-1.342.152-.481.558-1.368l.432-.962s.101-.228.177-.304l-5.761 6.483c.38.912.102.254.076 1.292l-1.142-.735-.812.836.533.709c-.33.456-.66.988-1.091 1.368-1.473 1.215-.584.38-1.219.557-.457.734-3.96 4.077-5.05 5.318-5.356 6.002-10.051 13.321-15.178 19.779-2.36 2.963-19.62 22.59-19.771 23.679 2.791-.962 21.32-23.653 24.238-27.731 3.706-5.217 7.944-11.118 12.157-15.777 1.498-1.647 11.193-11.017 12.386-11.422l.076.076Zm130.481-51.182c-5.101-.76-1.574-.608-4.01-1.343-1.193-.354-2.183.254-4.239-.683 2.005-.583 2.158 0 4.163.228.533.076 2.233-.203 3.299.633 1.726 1.342.457.228.787 1.165Zm14.264 14.131c.558-.304-.279-.658.863-.304 1.878.583.584.481.736.887l-1.599-.583Zm7.335 4.204c1.472.659 2.792.102 3.68 1.646l-10.99-1.798c1.472-.684 3.325-.177 5.33.127 1.371.202 1.066.228 1.98.025ZM120.1 8.257c-.126 0-8.121-3.773-8.35-4.507 1.878.633 8.021 2.836 8.35 4.507Zm135.786 98.921c-.888-.051.761 1.165-1.218-.406-.99-.785-.432-1.392-3.122-3.621 0 0 1.294-.76 2.944 1.266.533.659 1.142 1.925 1.371 2.761h.025ZM110.837 4.104c-1.32.659-2.107-.076-2.716-1.443.228 0 .914 0 1.345.151 1.726.634 1.091.507 1.371 1.317v-.025Zm140.887 102.542c-1.828-1.292-1.853-.608-2.741-2.431l.863.05c.812.38.025-.38.989.659.203.202.686 1.367.863 1.722h.026Zm-10.584 12.916c1.168.329.711.354 1.7 1.519-.203 0 0 1.19-1.421-.228-.939-.937-.304-.962-.279-1.317v.026Zm6.497 5.951c-.863-1.114-.685-.304-.507-1.621.71 1.089.152-.228.431.861l.102.76h-.026ZM69.162 30.163c-.914-.278-3.249-1.164-3.731-2.177 1.015-.076 2.106.405 2.919 1.063 1.75 1.368.507.304.812 1.14v-.025Zm-20.33-1.443-2.132.76c.761-1.064.736-1.241 2.132-.76ZM37.69 43.535c-1.37 1.115-.101.532-1.574.608-1.472.076-4.187.583-4.213-.734 2.03.177 3.985-.735 5.787.126Zm163.983 137.997c.051-.987-.228-.43.686-.962 0 .152 1.218.886-.686.962Zm7.767 6.61c-.153-.937-.584-1.899.304-2.963.736 1.52.305 1.191-.304 2.963Zm1.167-.481c-.203-1.545-.076-3.191.762-4.964.228 1.419-.305 2.938-.051 4.255l.152.583c.152.455.508.709-.482 1.19l-.381-1.089v.025ZM45.533 80.156c-.28 1.165-.635 1.418-1.7 1.646l1.7-1.646ZM197.587 196.22c-.127-.354-.711.051-.127-1.19 1.015-2.128.356-.532 1.041-.836 1.751.709.584 2.026-.889 2.026h-.025Zm-57.842-9.902c-.152-.583-.381-.228-.076-1.57l.964-2.963c.762-.988 1.193-.608 1.422-.659-.584 1.241-.736 1.191-.94 2.507-.304 1.773-.076 1.216-1.345 2.685h-.025ZM26.446 103.556l-.431-.278c3.502-1.799 1.7-1.495 5.939-2.71.812 1.139-.102 1.19 1.294.76 1.27-.38.508-.836 2.234-.38-.736.81-3.173 1.874-4.264 2.051-1.98.329-2.767-.886-4.771.582v-.025Zm115.202 89.398c.127.735.153.177.077 1.038l-.914 2.533-1.472-1.393 1.193.076 1.116-2.254Zm-18.273-4.356c.05 1.165.076.583-.432 1.342-1.497-1.975.279-4.33.432-1.342Zm-.863 2.254.736.228c-.051.127 1.167 2.862-.254 6.129-1.548-1.976-1.498-6.205-.482-6.357ZM13.959 122.525c1.396-2.254 2.462-2.229 5.889-3.596 1.192-.456.837-.355 2.208-.279l-8.122 3.875h.025Zm.127 2.254s-.203.05-.431 0l.634-.887c.863 1.469.812-.81-.203.887Zm9.188 5.622c-.33.304-.965.988-1.32 1.165-1.7.962-.203.202-1.269.278 1.04-1.468 1.27-1.443 2.589-1.443Zm-5.355 26.287c-.736 1.013.177.304-.457-.101-.584-.354 1.142-.836.457.101Zm45.202 37.938c.33 1.291 0 .709-.71.962.076-1.342.583-.937.71-.962Zm-10.127 1.57c.153.608-.583.911-.71.987l.406-.835.304-.152Zm-3.934 10.332c-1.015.406-.736.456-2.538.026.305-2.28.863-2.533 2.26-3.343.1-.051 1.065-.709 1.116-.456l.71.43c-1.268 1.14-1.522 1.039-2.207 2.584l.66.759Zm-23.857-24.286c-.838 1.114-5.812 6.027-7.234 6.888-1.42.861-.253.253-1.142.279.203-2.33.381-1.241 1.726-2.026 1.04-.608 3.325-2.761 4.34-3.673 1.675-1.519 1.015-1.139 2.31-1.468Zm-3.198 13.65c.05.608.888-.152-.406 1.899-.66 1.064-2.614 2.229-3.858 2.558 1.269-1.798 2.792-3.216 4.264-4.457Zm-2.944 5.419c-.863 1.292-3.147 3.47-4.188 4.052.152-.506.99-1.418 1.599-2.228 2.106-2.811 2.005-1.722 2.614-1.798l-.025-.026Z" clip-rule="evenodd"/>
  </g>
  <defs>
    <clipPath id="a">
      <path fill="#fff" d="M0 0h257.409v220H0z"/>
    </clipPath>
  </defs>
</svg>
