<svg xmlns="http://www.w3.org/2000/svg" viewBox="0 0 1440 40" fill="none">
  <path d="M1440 0H0v31.138l10.757-.733 12.901 1.384 12.588 4.697 13.003-1.748 13.182-2.425 12.832.953 13.16-1.121 11.565 3.264 12.111.07 12.196 2.168 11.84-.11 6.344-.491 5.668-.447 32.459-6.088 4.506 3.095c3.662-.996 8.023-2.685 8.023-3.003.165 3.073 7.411 8.01 7.361 7.036-.006-.15 11.64-2.56 11.805.147 0-.483 2.259-.114 4.614.7.54.038 1.058.077 1.548.113 2.53.188 4.298.319 4.298.128 0 .895 3.967.861 8.744.82h.003c1.558-.013 3.202-.027 4.823-.01.385-.476.793-1 1.207-1.531 2.244-2.879 4.688-6.014 4.827-3.37-.004-.086 3.341.415 6.561.897 2.991.447 5.874.878 5.869.81.047.86 2.265-.918 4.536-2.738 2.38-1.907 4.817-3.86 4.867-2.867.096 1.736 13.297 4.982 13.297 4.279.021.119.75-.66 1.796-1.776 2.705-2.89 7.526-8.038 7.65-5.708.129 2.42 3.423 1.273 6.48.21 2.64-.919 5.102-1.776 5.196-.221 0-.478 2.018-.177 4.367.174h.002c3.301.493 7.256 1.083 7.185-.255.043.74 11.695 2.077 11.695.99.064.875 2.627-.5 5.392-1.985 3.247-1.743 6.772-3.635 6.851-2.203-.102-1.952 12.555-2.758 12.581-2.23-.102-1.982 13.639 3.241 13.685 4.018-.013-.238 12.503-5.293 12.704-1.557.073 1.375 3.213-.138 6.314-1.633h.001c3.028-1.46 6.02-2.902 6.089-1.623.02.417 1.712 1.326 3.886 2.157 3.063-.608 5.342-.886 5.342-.113 0 .575 1.555 1.026 3.838 1.297.23-.224.352-.524.329-.924.026.418.109.74.24.986.827.088 1.73.15 2.672.19 3.504-1.56 8.906-7.077 8.853-8.113-.152-2.726 12.404.655 12.489 2.267-.184-3.495 11.923-5.169 12.256 1.015.091 1.73 5.851-1.244 9.164-2.954 1.336-.69 2.274-1.174 2.281-1.061.001.01.329.017.878.029h.013c2.812.06 11.326.241 11.394 1.572.014.198 12.062 2.264 11.877-1.253.099 1.864 11.679-2.93 11.551-5.311-.001-.023.823.223 2.045.589 3.494 1.045 10.237 3.061 10.237 2.535.072 1.181 3.296 1.245 6.388 1.305h.001c2.851.056 5.589.11 5.636 1.036-.092-1.757 6.103-1.281 9.586-1.014h.003c1.36.105 2.306.177 2.301.072-.129-2.4 11.824-2.732 11.933-.692-.106-1.93 11.659-1.755 11.794.846.026.442 1.877-.165 4.131-.904h.001c3.517-1.154 8.016-2.63 8.104-.95.01.181.945.02 2.284-.21h.001c3.388-.583 9.368-1.611 9.526 1.313.02.322 12.308.443 12.246-.743.005.103 1.341.078 3.116.044h.002c3.507-.066 8.721-.164 8.765.633-.265-4.985 5.453-3.31 9.16-2.224 1.78.522 3.096.907 3.066.356.073 1.392 11.389 6.275 11.389 5.773.014.253.06.465.132.641.794-.355 1.245-.637 1.245-.798 0-.693 1.275-.381 3.221.44 3.264-1.733 7.184-5.074 7.786-6.364-.033-3.842 14.624 3.088 13.527 4.326.969-.314 2.39-.404 3.955-.503h.002c2.578-.164 5.545-.353 7.525-1.606.399.34 3.034.951 5.728 1.577 2.887.67 5.842 1.357 6.192 1.741 1.046-.848 4.286-.811 7.188-.778 2.697.03 5.103.058 5.186-.632-.337-.116 2.935-.264 7.884-.489h.007c10.732-.487 29.34-1.33 36.161-2.973 6.821 1.642 25.429 2.486 36.161 2.973h.007c4.949.225 8.221.373 7.884.489.083.69 2.489.663 5.186.632 2.902-.033 6.142-.07 7.188.778.35-.384 3.305-1.07 6.192-1.741 2.694-.626 5.329-1.238 5.728-1.577 1.98 1.253 4.947 1.442 7.525 1.606h.002c1.565.1 2.986.19 3.955.503-1.097-1.238 13.56-8.168 13.527-4.325.602 1.289 4.522 4.63 7.786 6.362 1.946-.82 3.221-1.132 3.221-.44 0 .162.451.444 1.245.8.072-.177.118-.389.132-.642 0 .502 11.317-4.38 11.389-5.773-.03.551 1.286.166 3.066-.356 3.707-1.086 9.425-2.76 9.16 2.224.044-.797 5.258-.699 8.765-.633h.002c1.775.034 3.111.059 3.116-.044-.062 1.186 12.226 1.066 12.246.743.158-2.924 6.138-1.896 9.526-1.313 1.34.23 2.275.391 2.285.21.088-1.68 4.587-.204 8.104.95 2.255.74 4.106 1.346 4.132.904.135-2.6 11.9-2.776 11.794-.846.109-2.04 12.062-1.707 11.933.692-.005.105.94.033 2.301-.072h.003c3.483-.267 9.678-.743 9.586 1.014.047-.926 2.785-.98 5.636-1.036h.001c3.091-.06 6.316-.123 6.388-1.305 0 .526 6.734-1.488 10.229-2.533l.021-.006c1.214-.364 2.033-.608 2.032-.585-.128 2.38 11.452 7.175 11.551 5.31-.185 3.517 11.864 1.451 11.877 1.254.068-1.33 8.582-1.512 11.394-1.572h.013c.549-.012.877-.019.878-.03.007-.112.945.373 2.281 1.062 3.313 1.71 9.072 4.684 9.162 2.954.33-6.184 12.44-4.51 12.26-1.015.08-1.612 12.64-4.993 12.49-2.267-.06 1.036 5.35 6.553 8.85 8.113.94-.04 1.84-.102 2.67-.19.13-.246.22-.568.24-.986-.02.4.1.7.33.924 2.28-.271 3.84-.722 3.84-1.297 0-.773 2.28-.495 5.34.113 2.17-.831 3.87-1.74 3.89-2.157.07-1.28 3.06.163 6.09 1.623 3.1 1.495 6.24 3.008 6.31 1.633.2-3.736 12.72 1.319 12.7 1.557.05-.776 13.79-6 13.69-4.018.03-.528 12.68.278 12.58 2.23.08-1.432 3.6.46 6.85 2.203 2.77 1.484 5.33 2.86 5.39 1.984 0 1.088 11.66-.249 11.7-.989-.07 1.338 3.88.748 7.19.255 2.35-.351 4.36-.652 4.36-.174.1-1.555 2.56-.698 5.2.22 3.06 1.064 6.35 2.21 6.48-.209.12-2.33 4.94 2.818 7.65 5.708 1.04 1.116 1.77 1.895 1.8 1.776 0 .703 13.2-2.543 13.29-4.279.05-.993 2.49.96 4.87 2.867 2.27 1.82 4.49 3.598 4.54 2.738-.01.068 2.87-.363 5.86-.81l.02-.003c3.21-.48 6.55-.98 6.55-.894.13-2.644 2.58.491 4.82 3.37.42.532.82 1.055 1.21 1.53 1.62-.016 3.26-.002 4.82.011 4.78.041 8.75.075 8.75-.82 0 .19 1.77.06 4.3-.128l1.54-.113c2.36-.814 4.62-1.183 4.62-.7.16-2.707 11.81-.297 11.8-.147-.05.975 7.2-3.963 7.37-7.036 0 .318 4.36 2.007 8.02 3.003l4.5-3.095 32.46 6.088 5.67.447 6.34.49 11.85.11 12.19-2.168 12.11-.07 11.57-3.263 13.16 1.12 12.83-.952 13.18 2.425 13 1.748 12.59-4.696 12.9-1.385 10.76.733V0Z"/>
</svg>
