<svg xmlns="http://www.w3.org/2000/svg" viewBox="0 0 2048 22" fill="none">
  <path fill="#F2E8DE" d="M1007.08 11.364c-1 .092-8.815.591-14.161.624-4.307.03-8.572.552-12.58 1.589-6.253 1.611-14.121 3.54-14.121 3.315 0-.697-4.232-1.014-8.868-1.36-3.773-.283-7.812-.586-10.056-1.13-1.1-.26-1.767-.584-1.767-.99 0 .485-20.006 7.612-20.006 6.07 0-2.586-17.2-6.463-17.2-3.527 0-.011-.169-.121-.456-.307-1.549-1.002-6.51-4.21-6.51-5.919 0-.332-2.61-.701-5.891-1.164-5.549-.784-13.015-1.838-13.015-3.446 0-2.82-22.113 2.866-22.113 3.028 0-1.168-6.605-1.023-12.278-.897-4.268.094-8.009.176-8.009-.322 0-.612-4.889-1.086-9.931-1.575-5.367-.52-10.908-1.057-10.908-1.796 0-.113-20.618-.631-20.618 1.988 0-.877-5.654.924-10.834 2.575h-.003c-4.379 1.396-8.419 2.684-8.419 2.154 0 .837-6.942.603-12.716.408-4.111-.139-7.63-.258-7.63.045 0 2.13-5.796 1.874-11.064 1.642-4.387-.193-8.408-.37-8.408.86 0-3.896-20.876-2.407-20.876-.303 0 .126-21.612.112-21.612-1.483 0 .624-18.621 5.083-18.621 4.257 0-.888-10.987-.825-17.158-.79h-.003c-2.408.014-4.083.024-4.083-.029 0 .09-.073.179-.221.264-.676.393-2.843.687-5.521.872-6.06.416-14.747.268-14.747-.627 0 .307-1.928.207-4.579.069-5.834-.304-15.169-.79-15.169 2.487 0-.855-20.673-2.15-20.673.063 0 1.203-5.406.31-10.69-.563-5.054-.835-9.997-1.652-9.997-.6 0-.046-.845.037-2.191.17-5.244.519-18.087 1.788-18.087-.969 0 .3-21.096 5.205-21.096 3.167 0 4.76-19.693 2.137-19.693-2.15 0 3.039-19.445-1.05-19.445-1.922 0 .813-18.869-.505-18.869-2.57 0 .21-2.903-.068-6.501-.413-5.859-.563-13.561-1.302-13.561-.396 0 .033-.603-.101-1.601-.324-4.757-1.059-18.469-4.112-18.469-.577 0-.063-17.77-4.069-17.77-3.957 0-1.367-21.179-.26-21.179.539 0 1.882-17.738-2.794-17.738-4.528 0-3.253-19.955-3.164-19.955-1.661 0-.482-2.836.44-6.474 1.622-6.51 2.117-15.589 5.068-15.589 2.308 0 .112-19.237-3.868-19.237-5.116 0-.45-20.503 1.387-20.503 2.794 0-3.17-14.682 1.278-18.393 2.402-.537.163-.845.256-.845.247 0 2.668-17.94 4.065-17.94 2.922 0-2.305-19.265-1.317-19.265.876 0 2.691-18.4 4.24-18.4 3.216 0-1.926-5.869-.82-11.477.236-2.275.428-4.508.849-6.288 1.056-.454-.612-3.848-1.777-6.532-2.699h-.002c-1.837-.631-3.341-1.148-3.341-1.294 0-2.982-13.674-2.527-13.674-1.239h-.052l-.104-.001c-1.529-.02-13.83-.18-13.933.537-3.189.049-5.674-.096-5.674-.998 0-.119-2.263.132-5.13.694-1.127-.46-1.868-1.074-1.868-1.866l-39.639 1.82c0 .648-1.734.616-3.865.576-2.282-.042-5.022-.093-6.575.675-1.639-.45-3.459-.915-5.108-1.336l-.004-.001h-.002c-2.855-.73-5.198-1.327-5.198-1.497 0-3.424-21.147-2.903-21.147-1.423l-.203-.002h-.005c-2.227-.022-21.583-.211-21.583.63 0 1.529-19.587 1.258-19.587-2.504L0 4.973V22h2048V4.973l-31.78-1.083c0 3.762-19.58 4.033-19.58 2.503 0-.84-19.36-.65-21.59-.629l-.2.002c0-1.48-21.15-2.001-21.15 1.423 0 .17-2.34.767-5.19 1.495l-.01.002-.01.001c-1.65.421-3.47.886-5.1 1.336-1.56-.769-4.3-.717-6.58-.675-2.13.04-3.86.072-3.86-.577l-39.64-1.82c0 .793-.74 1.408-1.87 1.867-2.87-.562-5.13-.813-5.13-.694 0 .902-2.48 1.047-5.67.998-.11-.716-12.41-.557-13.94-.537l-.15.001c0-1.288-13.68-1.743-13.68 1.239 0 .146-1.5.663-3.34 1.293v.001c-2.68.922-6.08 2.087-6.53 2.699-1.78-.207-4.01-.627-6.28-1.055l-.01-.001c-5.61-1.057-11.48-2.162-11.48-.236 0 1.024-18.4-.525-18.4-3.216 0-2.193-19.26-3.18-19.26-.876 0 1.143-17.94-.254-17.94-2.922 0 .01-.31-.084-.85-.246v-.001c-3.71-1.126-18.39-5.572-18.39-2.402 0-1.407-20.5-3.243-20.5-2.794 0 1.248-19.24 5.228-19.24 5.116 0 2.76-9.08-.191-15.59-2.308-3.64-1.182-6.47-2.104-6.47-1.622 0-1.503-19.96-1.592-19.96 1.66 0 1.735-17.74 6.411-17.74 4.529 0-.8-21.18-1.906-21.18-.539 0-.112-17.76 3.894-17.76 3.957 0-3.535-13.72-.482-18.47.577-.68.151-1.17.261-1.42.307-.12.021-.19.028-.19.018 0-.907-7.7-.168-13.56.395-3.59.345-6.5.623-6.5.414 0 2.064-18.87 3.381-18.87 2.57 0 .871-19.44 4.96-19.44 1.921 0 4.287-19.69 6.91-19.69 2.15 0 2.038-21.1-2.866-21.1-3.167 0 2.757-12.84 1.488-18.09.97-1.34-.134-2.19-.217-2.19-.17 0-1.053-4.94-.236-9.99.599-5.29.873-10.69 1.766-10.69.563 0-2.213-20.68-.918-20.68-.063 0-3.277-9.33-2.79-15.17-2.487-2.65.138-4.58.238-4.58-.07 0 .896-8.68 1.044-14.74.628-2.68-.185-4.85-.479-5.52-.872a.566.566 0 0 1-.2-.167.182.182 0 0 1-.03-.097c0 .053-1.67.043-4.08.03-6.17-.036-17.16-.1-17.16.79 0 .825-18.62-3.634-18.62-4.258 0 1.595-21.61 1.609-21.61 1.483 0-2.104-20.88-3.593-20.88.304 0-1.23-4.02-1.054-8.41-.86-5.26.231-11.06.486-11.06-1.643 0-.303-3.52-.184-7.63-.045-5.77.195-12.72.43-12.72-.408 0 .53-4.03-.757-8.41-2.153h-.01V8.12c-5.18-1.651-10.83-3.452-10.83-2.575 0-2.62-20.62-2.1-20.62-1.988 0 .739-5.54 1.276-10.91 1.796-5.04.489-9.93.963-9.93 1.575 0 .498-3.74.416-8.01.322-5.67-.126-12.28-.271-12.28.897 0-.162-22.11-5.849-22.11-3.028 0 1.608-7.46 2.662-13.01 3.446-3.28.463-5.9.832-5.9 1.164 0 1.709-4.96 4.917-6.5 5.92-.29.185-.46.295-.46.306 0-2.937-17.2.94-17.2 3.527 0 1.542-20.01-5.585-20.01-6.07 0 .406-.66.73-1.76.99-2.25.544-6.29.847-10.06 1.13-4.64.346-8.87.663-8.87 1.36 0 .225-7.87-1.704-14.12-3.315-4.01-1.037-8.27-1.56-12.58-1.589-5.35-.033-13.16-.532-14.16-.624-3.86-.354-11.34 4.762-16.92 8.587-5.58-3.825-13.06-8.94-16.92-8.587Z"/>
</svg>
