<svg xmlns="http://www.w3.org/2000/svg" width="1466" height="22" fill="none">
  <path fill="#F2E8DE" d="M720.889 11.364c-.718.092-6.31.591-10.137.624-3.083.03-6.136.552-9.005 1.589-4.476 1.611-10.108 3.54-10.108 3.315 0-.697-3.03-1.014-6.349-1.361-2.7-.282-5.592-.585-7.198-1.129-.787-.26-1.265-.584-1.265-.99 0 .485-14.321 7.612-14.321 6.07 0-2.586-12.311-6.463-12.311-3.527 0-.011-.122-.121-.327-.307-1.109-1.002-4.66-4.21-4.66-5.919 0-.332-1.868-.701-4.217-1.164-3.972-.784-9.316-1.838-9.316-3.446 0-2.82-15.829 2.866-15.829 3.028 0-1.168-4.728-1.023-8.789-.898-3.055.095-5.733.177-5.733-.32 0-.613-3.5-1.087-7.109-1.576-3.842-.52-7.808-1.057-7.808-1.796 0-.113-14.759-.631-14.759 1.988 0-.877-4.047.924-7.755 2.575h-.002c-3.134 1.396-6.026 2.684-6.026 2.154 0 .837-4.969.603-9.103.408-2.943-.139-5.462-.258-5.462.044 0 2.13-4.149 1.875-7.919 1.643-3.141-.193-6.019-.37-6.019.86 0-3.896-14.944-2.407-14.944-.303 0 .126-15.47.112-15.47-1.483 0 .624-13.329 5.083-13.329 4.257 0-.888-7.865-.825-12.282-.79h-.002c-1.724.014-2.923.024-2.923-.029 0 .09-.052.179-.158.264-.484.393-2.035.687-3.952.872-4.338.416-10.556.268-10.556-.627 0 .307-1.38.207-3.278.069-4.176-.304-10.858-.79-10.858 2.487 0-.855-14.799-2.15-14.799.063 0 1.203-3.869.31-7.652-.563-3.617-.835-7.156-1.652-7.156-.6 0-.046-.605.037-1.568.17-3.754.519-12.947 1.788-12.947-.969 0 .3-15.101 5.205-15.101 3.167 0 4.76-14.097 2.137-14.097-2.15 0 3.039-13.919-1.05-13.919-1.922 0 .813-13.507-.505-13.507-2.57 0 .21-2.078-.068-4.653-.413-4.194-.563-9.707-1.302-9.707-.396 0 .033-.432-.101-1.147-.324-3.405-1.059-13.22-4.112-13.22-.577 0-.063-12.72-4.069-12.72-3.957 0-1.367-15.161-.26-15.161.539 0 1.882-12.696-2.794-12.696-4.528 0-3.253-14.285-3.164-14.285-1.661 0-.482-2.03.44-4.634 1.622-4.66 2.117-11.159 5.068-11.159 2.308 0 .112-13.77-3.868-13.77-5.116 0-.45-14.677 1.387-14.677 2.794 0-3.17-10.509 1.278-13.166 2.402-.384.163-.605.256-.605.247 0 2.668-12.841 4.065-12.841 2.922 0-2.305-13.791-1.317-13.791.876 0 2.691-13.171 4.24-13.171 3.216 0-1.926-4.201-.82-8.216.236-1.628.428-3.226.849-4.501 1.056-.324-.612-2.754-1.777-4.675-2.699h-.002c-1.314-.631-2.391-1.148-2.391-1.294 0-2.982-9.789-2.527-9.789-1.239h-.036l-.075-.001c-1.094-.02-9.9-.18-9.974.536-2.282.05-4.061-.095-4.061-.997 0-.119-1.62.132-3.672.694-.807-.46-1.337-1.074-1.337-1.866l-28.375 1.82c0 .648-1.24.616-2.766.576-1.634-.042-3.595-.094-4.707.675-1.173-.45-2.476-.915-3.657-1.336l-.002-.001h-.002c-2.043-.73-3.72-1.327-3.72-1.497 0-3.424-15.138-2.903-15.138-1.423l-.145-.002h-.003c-1.595-.022-15.45-.211-15.45.63 0 1.529-14.021 1.258-14.021-2.504L0 4.973V22h1466V4.973l-22.75-1.083c0 3.762-14.02 4.033-14.02 2.503 0-.84-13.85-.65-15.45-.629l-.15.002c0-1.48-15.13-2.001-15.13 1.423 0 .17-1.68.767-3.72 1.495v.002l-.01.001c-1.18.421-2.48.885-3.65 1.336-1.12-.769-3.08-.717-4.71-.675-1.53.04-2.77.072-2.77-.577l-28.37-1.82c0 .793-.53 1.408-1.34 1.867-2.05-.562-3.67-.813-3.67-.694 0 .902-1.78 1.047-4.06.997-.08-.715-8.88-.556-9.98-.536l-.11.001c0-1.288-9.79-1.743-9.79 1.239 0 .146-1.07.663-2.39 1.293v.001c-1.92.922-4.35 2.087-4.67 2.699-1.28-.207-2.87-.627-4.5-1.055l-.01-.001c-4.01-1.057-8.21-2.162-8.21-.236 0 1.024-13.17-.525-13.17-3.216 0-2.193-13.79-3.18-13.79-.876 0 1.143-12.84-.254-12.84-2.922 0 .01-.22-.084-.61-.246v-.001c-2.66-1.126-13.17-5.572-13.17-2.402 0-1.407-14.67-3.243-14.67-2.794 0 1.248-13.77 5.228-13.77 5.116 0 2.76-6.5-.191-11.16-2.308-2.61-1.182-4.64-2.104-4.64-1.622 0-1.503-14.28-1.592-14.28 1.66 0 1.735-12.7 6.411-12.7 4.529 0-.8-15.16-1.906-15.16-.539 0-.112-12.72 3.894-12.72 3.957 0-3.535-9.81-.482-13.22.577-.48.151-.84.261-1.01.307-.09.021-.13.028-.13.018 0-.907-5.52-.168-9.71.395-2.58.345-4.65.623-4.65.414 0 2.064-13.51 3.381-13.51 2.57 0 .871-13.92 4.96-13.92 1.921 0 4.287-14.1 6.91-14.1 2.15 0 2.038-15.1-2.866-15.1-3.167 0 2.757-9.19 1.488-12.95.97-.96-.134-1.56-.217-1.56-.17 0-1.053-3.54-.236-7.16.599-3.78.873-7.65 1.766-7.65.563 0-2.213-14.8-.918-14.8-.063 0-3.277-6.68-2.79-10.86-2.487-1.9.138-3.28.238-3.28-.07 0 .896-6.21 1.044-10.552.628-1.917-.185-3.468-.479-3.952-.872a.456.456 0 0 1-.137-.167.24.24 0 0 1-.021-.097c0 .053-1.199.043-2.923.03h-.002c-4.417-.036-12.282-.1-12.282.79 0 .825-13.329-3.634-13.329-4.258 0 1.595-15.471 1.609-15.471 1.483 0-2.104-14.943-3.593-14.943.304 0-1.23-2.878-1.054-6.018-.86-3.771.231-7.92.486-7.92-1.643 0-.303-2.519-.184-5.462-.045-4.133.195-9.103.43-9.103-.408 0 .53-2.891-.757-6.025-2.153h-.001l-.003-.001c-3.708-1.651-7.754-3.452-7.754-2.575 0-2.62-14.759-2.1-14.759-1.988 0 .739-3.966 1.276-7.807 1.796-3.609.489-7.11.963-7.11 1.575 0 .498-2.677.416-5.733.321-4.06-.125-8.789-.27-8.789.898 0-.162-15.829-5.849-15.829-3.028 0 1.608-5.344 2.662-9.316 3.446-2.349.463-4.217.832-4.217 1.164 0 1.709-3.551 4.917-4.66 5.92-.205.185-.327.295-.327.306 0-2.937-12.311.94-12.311 3.527 0 1.542-14.321-5.585-14.321-6.07 0 .406-.478.73-1.265.99-1.606.544-4.498.847-7.198 1.129-3.319.347-6.349.664-6.349 1.361 0 .225-5.632-1.704-10.108-3.315-2.869-1.037-5.922-1.56-9.005-1.589-3.827-.033-9.419-.532-10.137-.624-2.76-.354-8.119 4.762-12.111 8.587-3.992-3.825-9.351-8.94-12.111-8.587Z"/>
</svg>
