<svg viewBox="0 0 580 416" fill="none" xmlns="http://www.w3.org/2000/svg">
<path fill-rule="evenodd" clip-rule="evenodd" d="M388.752 566.5H192.388C192.271 566.623 192.139 566.689 191.991 566.689C190.788 566.689 191.681 570.558 192.554 574.341C193.389 577.958 194.206 581.497 193.154 581.497C193.2 581.497 193.117 582.102 192.984 583.065C192.465 586.818 191.196 596.012 193.953 596.012C193.652 596.012 188.748 611.113 190.786 611.113C186.027 611.113 188.649 625.21 192.936 625.21C189.897 625.21 193.986 639.129 194.858 639.129C194.045 639.129 195.363 652.636 197.427 652.636C197.217 652.636 197.496 654.714 197.841 657.289L197.842 657.291C198.404 661.485 199.143 666.996 198.236 666.996C198.204 666.996 198.338 667.428 198.561 668.143C199.62 671.547 202.673 681.363 199.138 681.363C199.201 681.363 203.207 694.083 203.095 694.083C204.462 694.083 203.355 709.244 202.556 709.244C200.674 709.244 205.35 721.94 207.084 721.94C210.337 721.94 210.248 736.225 208.745 736.225C209.227 736.225 208.305 738.255 207.123 740.859C205.006 745.519 202.055 752.018 204.815 752.018C204.703 752.018 208.683 765.789 209.931 765.789C210.38 765.789 208.544 780.465 207.137 780.465C210.307 780.465 205.861 790.969 204.736 793.629L204.734 793.632C204.572 794.016 204.479 794.235 204.488 794.235C201.82 794.235 200.423 807.078 201.566 807.078C203.871 807.078 202.883 820.868 200.69 820.868C197.999 820.868 196.45 834.039 197.474 834.039C199.4 834.039 198.295 838.24 197.238 842.254L197.237 842.258C196.809 843.885 196.389 845.482 196.182 846.756C196.794 847.08 197.96 849.51 198.881 851.432C199.512 852.747 200.029 853.824 200.175 853.824C203.157 853.824 202.702 863.612 201.414 863.612C201.413 863.612 201.414 863.651 201.415 863.724C201.435 864.818 201.594 873.623 200.878 873.698C200.829 875.98 200.974 877.759 201.876 877.759C201.995 877.759 201.744 879.379 201.182 881.431C201.641 882.238 202.256 882.768 203.048 882.768L201.229 911.143C200.58 911.143 200.612 912.384 200.652 913.909C200.694 915.543 200.746 917.504 199.977 918.616C200.427 919.787 200.891 921.088 201.311 922.267L201.314 922.275L201.315 922.278L201.317 922.283C202.044 924.324 202.641 925.997 202.811 925.997C206.235 925.997 205.714 941.135 204.234 941.135L204.236 941.28L204.236 941.284C204.258 942.882 204.447 956.733 203.606 956.733C202.077 956.733 202.348 970.754 206.11 970.754L205.027 993.5H20.2957L18.2911 982.703L17.4952 969.743L18.7435 956.842L22.9774 944.254L21.4021 931.25L19.2158 918.069L20.0744 905.237L19.0639 892.076L22.0065 880.512L22.0692 868.401L24.0243 856.205L23.9253 844.365L23.4827 838.021L23.0798 832.353L17.5909 799.894L20.3816 795.388C19.4832 791.726 17.9608 787.365 17.6735 787.365C20.4443 787.2 24.8963 779.954 24.0177 780.004C23.8823 780.01 21.7092 768.364 24.1499 768.2C23.714 768.2 24.0475 765.94 24.7807 763.585C24.8155 763.045 24.8501 762.527 24.8829 762.037C25.052 759.507 25.1702 757.739 24.9986 757.739C25.8053 757.739 25.7747 753.771 25.7379 748.995L25.7379 748.992C25.7258 747.434 25.7131 745.79 25.7285 744.169C25.2992 743.784 24.8278 743.376 24.3485 742.962C21.7527 740.718 18.926 738.274 21.3096 738.135C21.2326 738.139 21.6823 734.805 22.1161 731.59L22.1183 731.573C22.5217 728.583 22.9106 725.7 22.8486 725.705C23.6242 725.658 22.021 723.439 20.3803 721.169C18.6606 718.789 16.8998 716.352 17.7957 716.302C19.361 716.206 22.2871 703.005 21.6531 703.005C21.7607 702.984 21.0583 702.255 20.0518 701.209C17.4465 698.504 12.8048 693.683 14.9059 693.559C17.0875 693.43 16.0539 690.136 15.0948 687.079C14.2667 684.439 13.4942 681.976 14.896 681.883C14.4648 681.883 14.7364 679.865 15.0526 677.516C15.4969 674.214 16.0293 670.258 14.8233 670.329C15.4904 670.286 16.6959 658.634 15.715 658.634C16.5047 658.57 15.2641 656.006 13.9261 653.242C12.3545 649.995 10.6486 646.47 11.9401 646.391C10.1798 646.493 9.45332 633.836 9.92881 633.809C8.14221 633.912 12.8517 620.171 13.5518 620.125C13.3371 620.138 8.7796 607.622 12.1482 607.421C13.3881 607.348 12.0239 604.209 10.6758 601.107L10.6753 601.106C9.35924 598.078 8.05884 595.086 9.21216 595.017C9.58871 594.997 10.4078 593.304 11.1574 591.131C10.6093 588.068 10.3583 585.788 11.055 585.788C11.5735 585.788 11.9798 584.234 12.2242 581.951C12.0228 581.721 11.7519 581.599 11.3919 581.622C11.7684 581.596 12.059 581.513 12.2804 581.382C12.3596 580.555 12.4158 579.652 12.4521 578.71C11.0452 575.206 6.0714 569.804 5.13685 569.857C2.67965 570.009 5.72794 557.453 7.18116 557.368C4.03045 557.552 2.52111 545.445 8.09593 545.112C9.65614 545.021 6.9756 539.262 5.43359 535.949L5.43314 535.948C4.81132 534.612 4.37478 533.674 4.47632 533.667C4.48546 533.666 4.49178 533.338 4.50234 532.79L4.50258 532.778L4.50261 532.776C4.55665 529.964 4.7202 521.45 5.91946 521.382C6.09791 521.369 7.96054 509.32 4.79004 509.505C6.47111 509.406 2.14791 497.826 0.00131214 497.954C-0.0191346 497.955 0.201297 497.137 0.528541 495.923L0.529095 495.921L0.532674 495.908L0.534497 495.901C1.47703 492.406 3.29271 485.672 2.8184 485.672C3.88362 485.6 3.94059 482.375 3.99522 479.284L3.99524 479.283C4.04551 476.432 4.09379 473.694 4.92879 473.647C3.34516 473.739 3.77386 467.544 4.0149 464.061L4.01511 464.058C4.1092 462.697 4.17461 461.752 4.07998 461.757C1.9167 461.886 1.61618 449.933 3.45579 449.824C1.71536 449.93 1.87377 438.165 4.21861 438.03C4.61732 438.004 4.0699 436.153 3.40302 433.898C2.36283 430.381 1.03218 425.882 2.5475 425.794C2.71023 425.784 2.56534 424.849 2.35771 423.51L2.3576 423.509C1.83209 420.121 0.904879 414.141 3.54165 413.983C3.83222 413.963 3.94123 401.675 2.87117 401.737C2.96437 401.732 2.9416 400.396 2.91136 398.621L2.91132 398.619C2.85171 395.112 2.76306 389.898 3.48217 389.854C-1.0122 390.119 0.497801 384.401 1.47703 380.694L1.47706 380.694C1.94707 378.914 2.29476 377.598 1.79787 377.628C3.05285 377.556 7.45519 366.239 7.00272 366.239C7.2307 366.225 7.42221 366.179 7.58075 366.107C7.26044 365.313 7.00608 364.862 6.86074 364.862C6.23654 364.862 6.51728 363.587 7.25708 361.641C5.69498 358.377 2.68301 354.457 1.52049 353.855C-1.94394 353.888 4.3046 339.231 5.42083 340.328C5.13761 339.359 5.05617 337.938 4.9665 336.373L4.96638 336.371C4.81867 333.793 4.64868 330.826 3.51851 328.846C3.82463 328.447 4.3764 325.812 4.94062 323.118C5.54503 320.231 6.16387 317.276 6.51069 316.926C5.7455 315.88 5.77885 312.64 5.80872 309.738C5.83647 307.041 5.86123 304.635 5.23915 304.552C5.13491 304.889 5.00108 301.617 4.79862 296.668L4.79838 296.662L4.79831 296.661C4.3594 285.929 3.59832 267.321 2.11818 260.5C3.59832 253.679 4.3594 235.071 4.79832 224.339L4.79839 224.338L4.79862 224.332C5.00108 219.383 5.13491 216.111 5.23916 216.448C5.86123 216.365 5.83647 213.959 5.80872 211.262C5.77886 208.36 5.74551 205.12 6.51069 204.074C6.16387 203.724 5.54503 200.769 4.94062 197.882C4.37641 195.188 3.82464 192.553 3.51852 192.154C4.64869 190.174 4.81867 187.207 4.96638 184.629L4.96651 184.627C5.05618 183.062 5.13762 181.641 5.42084 180.672C4.30461 181.769 -1.94393 167.112 1.5205 167.145C2.68302 166.543 5.69498 162.623 7.25709 159.359C6.51729 157.413 6.23655 156.138 6.86074 156.138C7.00609 156.138 7.26045 155.687 7.58076 154.893C7.42222 154.821 7.23071 154.775 7.00273 154.761C7.4552 154.761 3.05286 143.445 1.79788 143.372C2.29477 143.402 1.94708 142.086 1.47707 140.306L1.47704 140.306C0.497812 136.599 -1.01219 130.881 3.48218 131.146C2.76307 131.102 2.85173 125.888 2.91133 122.381L2.91137 122.379C2.94161 120.604 2.96438 119.268 2.87118 119.263C3.94124 119.325 3.83223 107.037 3.54167 107.017C0.904893 106.859 1.8321 100.879 2.35761 97.4907L2.35777 97.4896C2.56538 96.1506 2.71024 95.2164 2.54751 95.2061C1.03227 95.1178 2.36272 90.6192 3.40277 87.1027L3.40292 87.1021L3.40324 87.101C4.06997 84.8466 4.61727 82.996 4.21862 82.9702C1.87379 82.8351 1.71538 71.0703 3.4558 71.1757C1.6162 71.067 1.91672 59.1144 4.08 59.2429C4.17463 59.2485 4.1092 58.3024 4.0151 56.9418L4.01492 56.9391C3.77387 53.4559 3.34518 47.2606 4.92881 47.353C4.09381 47.3056 4.04553 44.5681 3.99525 41.7171L3.99524 41.716C3.94061 38.6245 3.88364 35.3998 2.81842 35.3279C3.293 35.3279 1.4749 28.5857 0.532813 25.0921L0.53257 25.0912C0.203051 23.8693 -0.0191998 23.0451 0.0013329 23.046C2.14793 23.1744 6.47113 11.594 4.79006 11.4952C7.96056 11.6796 6.09793 -0.368408 5.91948 -0.381592C4.72022 -0.450439 4.55667 -8.96371 4.50263 -11.7765L4.5026 -11.778L4.50239 -11.789C4.49182 -12.3381 4.48549 -12.6664 4.47634 -12.6668C4.3748 -12.6744 4.81121 -13.612 5.43292 -14.9475L5.43312 -14.948C6.9751 -18.2606 9.65637 -24.0207 8.09595 -24.1122C2.52113 -24.4448 4.03047 -36.5522 7.18119 -36.3678C5.72797 -36.4535 2.67967 -49.0088 5.13688 -48.8573C6.07143 -48.8045 11.0452 -54.2061 12.4521 -57.7104C12.4158 -58.6525 12.3597 -59.5549 12.2804 -60.3816C12.059 -60.5133 11.7684 -60.5957 11.3919 -60.6221C11.7519 -60.599 12.0228 -60.7209 12.2243 -60.9514C11.9799 -63.2338 11.5736 -64.7885 11.055 -64.7885C10.3583 -64.7885 10.6093 -67.0677 11.1574 -70.1307C10.4078 -72.3045 9.58874 -73.9975 9.21218 -74.0172C8.05887 -74.0856 9.35927 -77.0776 10.6754 -80.1057L10.6758 -80.1066L10.6759 -80.1069C12.0239 -83.2087 13.3881 -86.3477 12.1482 -86.4211C8.77963 -86.622 13.3371 -99.1377 13.5518 -99.1245C12.8517 -99.1706 8.14225 -112.912 9.92884 -112.81C9.45335 -112.836 10.1798 -125.493 11.9402 -125.391C10.6487 -125.47 12.3546 -128.994 13.9261 -132.242L13.9264 -132.242L13.9265 -132.243C15.2644 -135.007 16.5047 -137.57 15.7151 -137.634C16.6959 -137.634 15.4905 -149.286 14.8233 -149.329C16.0292 -149.258 15.497 -153.213 15.0528 -156.514L15.0527 -156.515L15.0526 -156.516C14.7364 -158.865 14.4649 -160.883 14.896 -160.883C13.4942 -160.977 14.2667 -163.439 15.0948 -166.078L15.0949 -166.079C16.0539 -169.136 17.0875 -172.43 14.906 -172.559C12.8048 -172.683 17.4466 -177.504 20.0518 -180.209C21.0583 -181.255 21.7608 -181.984 21.6531 -182.005C22.2872 -182.005 19.3611 -195.206 17.7957 -195.302C16.8999 -195.352 18.6605 -197.789 20.3802 -200.169L20.3805 -200.169C22.021 -202.44 23.6242 -204.658 22.8486 -204.705C22.9106 -204.7 22.5217 -207.583 22.1183 -210.574C21.6838 -213.794 21.2325 -217.139 21.3097 -217.135C18.9264 -217.274 21.7519 -219.717 24.3473 -221.961L24.3476 -221.961L24.348 -221.962C24.8275 -222.376 25.2991 -222.784 25.7286 -223.169C25.7131 -224.79 25.7258 -226.434 25.7379 -227.992L25.7379 -227.995C25.7748 -232.772 25.8053 -236.739 24.9986 -236.739C25.1702 -236.739 25.052 -238.507 24.8829 -241.037L24.8827 -241.04C24.8501 -241.529 24.8155 -242.046 24.7807 -242.585C24.0475 -244.94 23.714 -247.199 24.1499 -247.199C21.7093 -247.364 23.8824 -259.01 24.0178 -259.004C24.8963 -258.954 20.4443 -266.2 17.6735 -266.365C17.9609 -266.365 19.4833 -270.726 20.3816 -274.388L17.5909 -278.894L23.0799 -311.353L23.4828 -317.021L23.9253 -323.365L24.0244 -335.205L22.0693 -347.401L22.0066 -359.512L19.0639 -371.076L20.0745 -384.237L19.2159 -397.069L21.4022 -410.25L22.9775 -423.254L18.7436 -435.842L17.4952 -448.743L18.2911 -461.704L20.2958 -472.5L205.027 -472.5L206.11 -449.754C202.348 -449.754 202.077 -435.733 203.607 -435.733C204.447 -435.733 204.258 -421.882 204.236 -420.284L204.236 -420.28L204.234 -420.135C205.714 -420.135 206.235 -404.997 202.811 -404.997C202.641 -404.997 202.043 -403.32 201.314 -401.275L201.312 -401.269L201.312 -401.269C200.891 -400.089 200.427 -398.788 199.977 -397.616C200.746 -396.504 200.694 -394.543 200.652 -392.91V-392.909C200.612 -391.384 200.58 -390.143 201.229 -390.143L203.048 -361.768C202.256 -361.768 201.641 -361.238 201.182 -360.431C201.744 -358.379 201.995 -356.759 201.876 -356.759C200.974 -356.759 200.829 -354.98 200.879 -352.698C201.594 -352.624 201.435 -343.818 201.415 -342.724L201.414 -342.661L201.414 -342.613C202.702 -342.613 203.157 -332.824 200.175 -332.824C200.029 -332.824 199.512 -331.747 198.882 -330.432L198.881 -330.432C197.96 -328.51 196.794 -326.08 196.182 -325.756C196.389 -324.481 196.81 -322.883 197.238 -321.254C198.295 -317.24 199.4 -313.039 197.474 -313.039C196.45 -313.039 197.999 -299.868 200.69 -299.868C202.883 -299.868 203.871 -286.077 201.566 -286.077C200.423 -286.077 201.82 -273.236 204.488 -273.236C204.479 -273.236 204.572 -273.016 204.734 -272.632L204.735 -272.631C205.86 -269.974 210.308 -259.465 207.137 -259.465C208.544 -259.465 210.38 -244.788 209.931 -244.788C208.683 -244.788 204.703 -231.018 204.815 -231.018C202.055 -231.018 205.006 -224.519 207.123 -219.859C208.305 -217.255 209.227 -215.225 208.745 -215.225C210.248 -215.225 210.337 -200.94 207.084 -200.94C205.35 -200.94 200.674 -188.244 202.556 -188.244C203.356 -188.244 204.462 -173.083 203.095 -173.083C203.207 -173.083 199.201 -160.363 199.138 -160.363C202.673 -160.363 199.62 -150.547 198.561 -147.143C198.338 -146.428 198.204 -145.996 198.237 -145.996C199.143 -145.996 198.404 -140.484 197.842 -136.29L197.841 -136.289C197.496 -133.714 197.217 -131.636 197.427 -131.636C195.363 -131.636 194.045 -118.129 194.858 -118.129C193.986 -118.129 189.897 -104.21 192.936 -104.21C188.649 -104.21 186.027 -90.1131 190.786 -90.1131C188.748 -90.1131 193.652 -75.0119 193.953 -75.0119C191.196 -75.0119 192.465 -65.8206 192.984 -62.066L192.984 -62.0656L192.984 -62.0648C193.117 -61.1019 193.2 -60.4969 193.154 -60.4969C194.206 -60.4969 193.389 -56.9585 192.554 -53.341C191.681 -49.558 190.788 -45.6888 191.991 -45.6888C194.204 -45.6888 192.909 -30.8904 192.054 -30.8904C195.331 -30.8904 194.845 -24.2079 194.541 -20.0321C194.403 -18.1343 194.303 -16.7542 194.61 -16.7542C193.715 -16.7542 193.567 -10.5359 193.983 -6.19812C194.168 -4.28131 194.462 -2.72998 194.855 -2.24582C194.94 -2.14044 195.03 -2.08774 195.119 -2.08774C195.081 -2.08774 195.075 -1.47687 195.08 -0.500031L382.944 -0.5C382.845 -5.07224 382.476 -11.5517 381.443 -11.5517C382.067 -11.5517 386.526 -24.881 385.7 -24.881C384.812 -24.881 384.875 -32.7444 384.911 -37.162V-37.1627V-37.1652C384.924 -38.8892 384.934 -40.0877 384.881 -40.0877C384.97 -40.0877 385.06 -40.1404 385.146 -40.2458C385.538 -40.73 385.832 -42.2813 386.017 -44.1981C386.433 -48.5359 386.285 -54.7542 385.39 -54.7542C385.697 -54.7542 385.597 -56.1343 385.459 -58.0321C385.155 -62.2079 384.67 -68.8904 387.946 -68.8904C387.091 -68.8904 385.796 -83.6888 388.009 -83.6888C389.212 -83.6888 388.319 -87.558 387.446 -91.341C386.611 -94.9585 385.794 -98.4969 386.846 -98.4969C386.8 -98.4969 386.883 -99.1019 387.016 -100.065L387.016 -100.066C387.535 -103.82 388.804 -113.012 386.047 -113.012C386.348 -113.012 391.252 -128.113 389.214 -128.113C393.973 -128.113 391.351 -142.21 387.064 -142.21C390.103 -142.21 386.014 -156.129 385.142 -156.129C385.955 -156.129 384.637 -169.636 382.573 -169.636C382.783 -169.636 382.504 -171.714 382.159 -174.289L382.159 -174.29L382.158 -174.291C381.596 -178.485 380.857 -183.996 381.764 -183.996C381.796 -183.996 381.662 -184.428 381.44 -185.143C380.38 -188.547 377.327 -198.363 380.862 -198.363C380.799 -198.363 376.793 -211.083 376.906 -211.083C375.538 -211.083 376.645 -226.244 377.444 -226.244C379.326 -226.244 374.65 -238.94 372.916 -238.94C369.663 -238.94 369.752 -253.225 371.255 -253.225C370.773 -253.225 371.695 -255.255 372.878 -257.859C374.994 -262.519 377.945 -269.018 375.185 -269.018C375.297 -269.018 371.318 -282.788 370.069 -282.788C369.62 -282.788 371.456 -297.465 372.863 -297.465C369.692 -297.465 374.141 -307.974 375.265 -310.631L375.266 -310.632L375.267 -310.635C375.429 -311.017 375.521 -311.236 375.512 -311.236C378.18 -311.236 379.577 -324.077 378.435 -324.077C376.129 -324.077 377.117 -337.868 379.31 -337.868C382.001 -337.868 383.55 -351.039 382.527 -351.039C380.6 -351.039 381.705 -355.24 382.762 -359.254C383.191 -360.883 383.611 -362.481 383.818 -363.756C383.206 -364.08 382.04 -366.51 381.119 -368.432L381.118 -368.433C380.488 -369.747 379.971 -370.824 379.825 -370.824C376.843 -370.824 377.299 -380.613 378.586 -380.613L378.586 -380.66L378.585 -380.724C378.565 -381.818 378.406 -390.624 379.122 -390.698C379.171 -392.98 379.026 -394.759 378.124 -394.759C378.005 -394.759 378.256 -396.379 378.818 -398.431C378.359 -399.238 377.744 -399.768 376.952 -399.768L378.771 -428.143C379.42 -428.143 379.388 -429.384 379.348 -430.909V-430.909C379.306 -432.543 379.255 -434.504 380.023 -435.616C379.572 -436.789 379.108 -438.092 378.687 -439.273L378.686 -439.275C377.957 -441.32 377.359 -442.997 377.19 -442.997C373.765 -442.997 374.287 -458.135 375.766 -458.135L375.764 -458.28L375.764 -458.285V-458.286C375.742 -459.89 375.553 -473.733 376.394 -473.733C377.923 -473.733 377.652 -487.754 373.89 -487.754L374.973 -510.5L559.704 -510.5L561.709 -499.704L562.505 -486.743L561.256 -473.842L557.023 -461.254L558.598 -448.25L560.784 -435.069L559.926 -422.237L560.936 -409.076L557.994 -397.512L557.931 -385.401L555.976 -373.205L556.075 -361.365L556.517 -355.021L556.92 -349.353L562.409 -316.894L559.618 -312.388C560.517 -308.726 562.039 -304.365 562.327 -304.365C559.556 -304.2 555.104 -296.954 555.982 -297.004C556.118 -297.01 558.291 -285.364 555.85 -285.199C556.286 -285.199 555.953 -282.94 555.219 -280.585C555.185 -280.045 555.15 -279.526 555.117 -279.036L555.117 -279.033C554.948 -276.505 554.83 -274.739 555.002 -274.739C554.195 -274.739 554.225 -270.771 554.262 -265.994V-265.992C554.274 -264.434 554.287 -262.79 554.272 -261.169C554.701 -260.784 555.173 -260.376 555.652 -259.962L555.653 -259.961C558.248 -257.717 561.074 -255.274 558.69 -255.135C558.768 -255.139 558.316 -251.794 557.882 -248.574V-248.573L557.881 -248.568C557.478 -245.58 557.09 -242.7 557.151 -242.705C556.376 -242.658 557.979 -240.44 559.619 -238.17L559.62 -238.169L559.62 -238.168L559.621 -238.168C561.34 -235.788 563.1 -233.352 562.204 -233.302C560.639 -233.206 557.713 -220.005 558.347 -220.005C558.239 -219.984 558.942 -219.255 559.948 -218.209C562.554 -215.504 567.195 -210.683 565.094 -210.559C562.913 -210.43 563.946 -207.136 564.905 -204.079C565.733 -201.439 566.506 -198.977 565.104 -198.883C565.535 -198.883 565.264 -196.865 564.947 -194.516V-194.515L564.947 -194.514C564.503 -191.213 563.971 -187.258 565.177 -187.329C564.51 -187.286 563.304 -175.634 564.285 -175.634C563.496 -175.57 564.735 -173.008 566.072 -170.245L566.073 -170.243L566.074 -170.242C567.646 -166.994 569.351 -163.47 568.06 -163.391C569.82 -163.493 570.547 -150.836 570.071 -150.81C571.858 -150.912 567.148 -137.171 566.448 -137.125C566.663 -137.138 571.22 -124.622 567.852 -124.421C566.612 -124.348 567.976 -121.208 569.324 -118.107L569.325 -118.106C570.641 -115.078 571.941 -112.086 570.788 -112.017C570.411 -111.997 569.592 -110.305 568.843 -108.131C569.391 -105.068 569.642 -102.789 568.945 -102.789C568.427 -102.789 568.02 -101.234 567.776 -98.9514C567.977 -98.7209 568.248 -98.599 568.608 -98.6221C568.232 -98.5957 567.941 -98.5133 567.72 -98.3816C567.64 -97.5549 567.584 -96.6525 567.548 -95.7104C568.955 -92.2061 573.929 -86.8045 574.863 -86.8573C577.32 -87.0088 574.272 -74.4535 572.819 -74.3678C575.97 -74.5522 577.479 -62.4448 571.904 -62.1122C570.344 -62.0207 573.025 -56.2608 574.567 -52.9482L574.567 -52.9475C575.189 -51.612 575.625 -50.6744 575.524 -50.6668C575.515 -50.6664 575.508 -50.3417 575.498 -49.7983L575.498 -49.7866L575.497 -49.778V-49.7763V-49.774C575.443 -46.9587 575.28 -38.4504 574.081 -38.3816C573.902 -38.3684 572.04 -26.3204 575.21 -26.5048C573.529 -26.406 577.852 -14.8256 579.999 -14.954C580.019 -14.9549 579.797 -14.1307 579.468 -12.9088C578.526 -9.41547 576.707 -2.67209 577.182 -2.67209C576.116 -2.60013 576.059 0.624542 576.005 3.71619V3.7171C575.955 6.56805 575.906 9.3056 575.071 9.35297C576.655 9.26062 576.226 15.4559 575.985 18.9391L575.985 18.9438L575.985 18.9468C575.891 20.3047 575.826 21.2485 575.92 21.2429C578.083 21.1144 578.384 33.067 576.544 33.1757C578.285 33.0703 578.126 44.8351 575.781 44.9702C575.383 44.996 575.93 46.8464 576.597 49.1008L576.597 49.1021C577.637 52.6188 578.968 57.1178 577.453 57.2061C577.29 57.2164 577.434 58.1489 577.642 59.4861L577.642 59.4886L577.643 59.4907C578.168 62.8794 579.095 68.8589 576.458 69.017C576.168 69.0367 576.059 81.3252 577.129 81.2627C577.036 81.2681 577.058 82.6045 577.089 84.3791V84.3824V84.3829C577.148 87.8892 577.237 93.1023 576.518 93.1461C581.012 92.8812 579.502 98.5987 578.523 102.306C578.053 104.086 577.705 105.402 578.202 105.372C576.947 105.445 572.545 116.761 572.997 116.761C572.769 116.775 572.578 116.821 572.419 116.893C572.74 117.687 572.994 118.138 573.139 118.138C573.764 118.138 573.483 119.413 572.743 121.359C574.305 124.623 577.317 128.543 578.48 129.145C581.944 129.112 575.695 143.769 574.579 142.672C574.862 143.641 574.944 145.062 575.034 146.627L575.034 146.629V146.63C575.181 149.208 575.352 152.175 576.482 154.154C576.175 154.553 575.624 157.188 575.06 159.882C574.455 162.769 573.836 165.724 573.489 166.074C574.255 167.12 574.221 170.36 574.191 173.262C574.164 175.959 574.139 178.365 574.761 178.448C574.865 178.111 574.999 181.384 575.202 186.335L575.202 186.338L575.202 186.34C575.641 197.072 576.402 215.679 577.882 222.5C576.402 229.321 575.641 247.928 575.202 258.66L575.202 258.662L575.202 258.665C574.999 263.616 574.865 266.889 574.761 266.552C574.139 266.635 574.164 269.041 574.191 271.738C574.221 274.64 574.255 277.88 573.489 278.926C573.836 279.276 574.455 282.231 575.06 285.118C575.624 287.812 576.175 290.447 576.482 290.846C575.351 292.826 575.181 295.793 575.034 298.371V298.372C574.944 299.937 574.863 301.358 574.579 302.328C575.695 301.231 581.944 315.888 578.48 315.855C577.317 316.457 574.305 320.377 572.743 323.641C573.483 325.587 573.764 326.862 573.139 326.862C572.994 326.862 572.74 327.313 572.419 328.107C572.578 328.179 572.769 328.225 572.997 328.239C572.545 328.239 576.947 339.556 578.202 339.628C577.705 339.598 578.053 340.914 578.523 342.694C579.502 346.401 581.012 352.119 576.518 351.854C577.237 351.898 577.148 357.113 577.089 360.619V360.62V360.621V360.625V360.627C577.059 362.399 577.036 363.732 577.129 363.737C576.059 363.675 576.168 375.963 576.458 375.983C579.095 376.141 578.168 382.121 577.643 385.509C577.435 386.849 577.29 387.784 577.453 387.794C578.968 387.882 577.637 392.381 576.597 395.898C575.93 398.153 575.383 400.004 575.781 400.03C578.126 400.165 578.285 411.93 576.544 411.824C578.384 411.933 578.083 423.886 575.92 423.757C575.825 423.752 575.891 424.698 575.985 426.059V426.06V426.061C576.226 429.544 576.655 435.739 575.071 435.647C575.906 435.694 575.955 438.432 576.005 441.283V441.284C576.06 444.375 576.117 447.6 577.182 447.672C576.708 447.672 578.523 454.404 579.465 457.9L579.466 457.902L579.467 457.908L579.472 457.927L579.473 457.931C579.8 459.14 580.019 459.955 579.999 459.954C577.852 459.826 573.529 471.406 575.21 471.505C572.04 471.32 573.902 483.369 574.081 483.382C575.28 483.45 575.444 491.966 575.497 494.777V494.778L575.498 494.794C575.508 495.34 575.515 495.666 575.524 495.667C575.625 495.674 575.189 496.612 574.567 497.948C573.025 501.261 570.344 507.021 571.904 507.112C577.479 507.445 575.97 519.552 572.819 519.368C574.272 519.453 577.32 532.009 574.863 531.857C573.929 531.804 568.955 537.206 567.548 540.71C567.584 541.652 567.64 542.555 567.72 543.382C567.941 543.513 568.232 543.596 568.608 543.622C568.248 543.599 567.977 543.721 567.776 543.951C568.02 546.234 568.427 547.788 568.945 547.788C569.642 547.788 569.391 550.068 568.843 553.131C569.592 555.304 570.411 556.997 570.788 557.017C571.941 557.086 570.641 560.078 569.325 563.106L569.324 563.107C567.976 566.209 566.612 569.348 567.852 569.421C571.221 569.622 566.663 582.138 566.448 582.125C567.148 582.171 571.858 595.912 570.071 595.809C570.547 595.836 569.82 608.493 568.06 608.391C569.352 608.47 567.646 611.995 566.074 615.242C564.736 618.006 563.495 620.57 564.285 620.634C563.304 620.634 564.51 632.286 565.177 632.329C563.971 632.258 564.503 636.214 564.947 639.516C565.264 641.865 565.535 643.883 565.104 643.883C566.506 643.976 565.733 646.439 564.905 649.079C563.946 652.136 562.913 655.43 565.094 655.559C567.195 655.683 562.554 660.504 559.948 663.209C558.942 664.255 558.239 664.984 558.347 665.005C557.713 665.005 560.639 678.206 562.204 678.302C563.1 678.352 561.34 680.789 559.62 683.169C557.979 685.439 556.376 687.658 557.151 687.705C557.09 687.7 557.478 690.583 557.882 693.573L557.884 693.587C558.318 696.803 558.768 700.139 558.69 700.135C561.074 700.274 558.247 702.718 555.652 704.962C555.172 705.376 554.701 705.784 554.272 706.169C554.287 707.79 554.274 709.434 554.262 710.992V710.995C554.225 715.772 554.195 719.739 555.002 719.739C554.83 719.739 554.948 721.506 555.117 724.035L555.117 724.037L555.121 724.089C555.152 724.564 555.186 725.064 555.219 725.585C555.953 727.94 556.286 730.2 555.85 730.2C558.291 730.364 556.118 742.01 555.982 742.004C555.104 741.954 559.556 749.2 562.327 749.365C562.039 749.365 560.517 753.726 559.619 757.388L562.409 761.894L556.92 794.353L556.517 800.021L556.075 806.365L555.976 818.205L557.931 830.401L557.994 842.512L560.936 854.076L559.926 867.237L560.784 880.069L558.598 893.25L557.023 906.254L561.257 918.842L562.505 931.743L561.709 944.703L559.704 955.5H374.974L373.89 932.754C377.652 932.754 377.923 918.733 376.394 918.733C375.553 918.733 375.742 904.877 375.764 903.284L375.764 903.28L375.766 903.135C374.287 903.135 373.765 887.997 377.19 887.997C377.359 887.997 377.957 886.32 378.686 884.275C379.107 883.094 379.572 881.79 380.023 880.616C379.255 879.504 379.306 877.543 379.348 875.909C379.388 874.384 379.42 873.143 378.771 873.143L376.952 844.768C377.744 844.768 378.359 844.238 378.818 843.431C378.256 841.379 378.005 839.759 378.124 839.759C379.026 839.759 379.171 837.98 379.122 835.698C378.406 835.623 378.565 826.818 378.585 825.724L378.586 825.643L378.587 825.612C377.299 825.612 376.843 815.824 379.825 815.824C379.971 815.824 380.488 814.747 381.119 813.432C382.04 811.51 383.206 809.08 383.818 808.756C383.611 807.482 383.191 805.886 382.763 804.258L382.763 804.257L382.762 804.254C381.706 800.24 380.6 796.039 382.527 796.039C383.55 796.039 382.001 782.868 379.31 782.868C377.117 782.868 376.129 769.078 378.435 769.078C379.577 769.078 378.18 756.235 375.512 756.235C375.521 756.235 375.428 756.016 375.266 755.632L375.265 755.629C374.139 752.969 369.693 742.465 372.863 742.465C371.456 742.465 369.62 727.789 370.069 727.789C371.318 727.789 375.297 714.018 375.185 714.018C377.945 714.018 374.994 707.519 372.878 702.859C371.695 700.255 370.773 698.225 371.255 698.225C369.752 698.225 369.663 683.94 372.916 683.94C374.65 683.94 379.326 671.244 377.444 671.244C376.645 671.244 375.538 656.083 376.906 656.083C376.793 656.083 380.799 643.363 380.862 643.363C377.327 643.363 380.38 633.547 381.44 630.143C381.662 629.428 381.796 628.996 381.764 628.996C380.857 628.996 381.596 623.485 382.159 619.291L382.159 619.289C382.504 616.714 382.783 614.636 382.573 614.636C384.637 614.636 385.955 601.129 385.142 601.129C386.014 601.129 390.103 587.21 387.064 587.21C391.351 587.21 393.973 573.113 389.214 573.113C390.149 573.113 389.623 569.938 388.752 566.5Z" fill="white"/>
</svg>
