<svg xmlns="http://www.w3.org/2000/svg" width="1466" height="25" fill="none">
  <path fill="#F2E8DE" d="M1466 0H0v4.973L22.746 3.89c0 3.762 14.02 4.033 14.02 2.504 0-.84 13.85-.652 15.45-.63l.15.002c0-1.48 15.137-2.001 15.137 1.423 0 .17 1.677.768 3.722 1.497l.006.002c1.18.42 2.481.885 3.653 1.335 1.112-.769 3.073-.717 4.706-.675 1.526.04 2.767.072 2.767-.577l28.375-1.82c0 .793.53 1.408 1.337 1.867 2.052-.562 3.672-.813 3.672-.694 0 .902 1.779 1.047 4.061.997.074-.715 8.88-.556 9.974-.536a24.83 24.83 0 0 0 .111.001c0-1.288 9.789-1.743 9.789 1.239 0 .146 1.077.663 2.392 1.293 1.921.922 4.352 2.088 4.676 2.7 1.275-.207 2.873-.627 4.501-1.056 4.015-1.057 8.216-2.162 8.216-.236 0 1.024 13.171-.525 13.171-3.216 0-2.193 13.791-3.18 13.791-.876 0 1.143 12.841-.254 12.841-2.922 0 .01.22-.084.604-.246h.001c2.657-1.125 13.166-5.574 13.166-2.403 0-1.407 14.677-3.243 14.677-2.794 0 1.248 13.77 5.228 13.77 5.116 0 2.76 6.499-.191 11.159-2.308 2.604-1.182 4.634-2.104 4.634-1.622 0-1.503 14.285-1.592 14.285 1.66 0 1.735 12.696 6.411 12.696 4.529 0-.8 15.161-1.906 15.161-.539 0-.112 12.72 3.894 12.72 3.957 0-3.535 9.816-.482 13.22.578.715.222 1.147.356 1.147.324 0-.907 5.512-.168 9.706.395 2.575.345 4.654.623 4.654.414 0 2.064 13.507 3.381 13.507 2.57 0 .871 13.919 4.96 13.919 1.921 0 4.287 14.097 6.91 14.097 2.15 0 2.038 15.101-2.866 15.101-3.167 0 2.757 9.192 1.488 12.946.97.963-.134 1.569-.217 1.569-.17 0-1.053 3.539-.236 7.156.599 3.783.873 7.652 1.766 7.652.563 0-2.213 14.799-.918 14.799-.063 0-3.277 6.682-2.79 10.858-2.487 1.898.138 3.278.238 3.278-.07 0 .896 6.218 1.044 10.556.628 1.917-.185 3.468-.479 3.952-.872.106-.085.158-.175.158-.264 0 .053 1.199.043 2.923.03h.002c4.418-.036 12.282-.099 12.282.79 0 .825 13.329-3.634 13.329-4.258 0 1.595 15.47 1.609 15.47 1.483 0-2.104 14.944-3.593 14.944.304 0-1.23 2.878-1.054 6.019-.86 3.77.231 7.919.486 7.919-1.643 0-.303 2.519-.184 5.462-.045 4.134.195 9.103.43 9.103-.408 0 .53 2.892-.758 6.026-2.153l.002-.001c3.708-1.65 7.755-3.452 7.755-2.575 0-2.62 14.759-2.1 14.759-1.988 0 .739 3.966 1.276 7.808 1.796 3.609.489 7.109.963 7.109 1.575 0 .498 2.677.416 5.733.322 4.06-.126 8.789-.271 8.789.897 0-.162 15.829-5.849 15.829-3.028 0 1.608 5.344 2.662 9.316 3.446 2.349.463 4.217.832 4.217 1.164 0 1.709 3.551 4.917 4.66 5.92.205.185.327.295.327.306 0-2.937 12.311.94 12.311 3.527 0 1.542 14.321-5.585 14.321-6.07 0 .406.478.73 1.265.99 1.606.544 4.498.847 7.198 1.13 3.319.346 6.349.663 6.349 1.36 0 .225 5.632-1.704 10.108-3.315 2.869-1.037 5.922-1.56 9.005-1.589 3.827-.033 9.419-.532 10.137-.624 2.76-.354 8.119 4.762 12.111 8.587 3.992-3.825 9.351-8.94 12.111-8.587.718.092 6.31.591 10.137.624 3.083.03 6.136.552 9.005 1.589 4.476 1.611 10.108 3.54 10.108 3.315 0-.697 3.03-1.014 6.349-1.36 2.7-.283 5.592-.586 7.198-1.13.787-.26 1.265-.584 1.265-.99 0 .485 14.321 7.612 14.321 6.07 0-2.586 12.311-6.463 12.311-3.527 0-.011.121-.12.326-.306 1.109-1.002 4.661-4.211 4.661-5.92 0-.332 1.868-.701 4.217-1.164 3.972-.784 9.316-1.838 9.316-3.446 0-2.82 15.829 2.866 15.829 3.028 0-1.168 4.728-1.023 8.789-.897 3.055.094 5.733.176 5.733-.322 0-.612 3.5-1.086 7.109-1.575 3.842-.52 7.808-1.057 7.808-1.796 0-.113 14.759-.631 14.759 1.988 0-.877 4.046.924 7.754 2.575h.003l.001.002c3.135 1.395 6.025 2.681 6.025 2.152 0 .837 4.97.603 9.103.408 2.943-.139 5.462-.258 5.462.044 0 2.13 4.149 1.875 7.92 1.643 3.14-.193 6.018-.37 6.018.86 0-3.896 14.943-2.407 14.943-.303 0 .126 15.471.112 15.471-1.483 0 .624 13.329 5.083 13.329 4.257 0-.888 7.864-.825 12.282-.79h.002c1.724.014 2.923.024 2.923-.029a.24.24 0 0 0 .021.097c.024.056.07.113.137.167.484.393 2.035.687 3.952.872 4.342.416 10.552.268 10.552-.627 0 .307 1.38.207 3.28.069 4.18-.304 10.86-.79 10.86 2.487 0-.855 14.8-2.15 14.8.063 0 1.203 3.87.31 7.65-.563 3.62-.835 7.16-1.652 7.16-.6 0-.046.6.037 1.56.17 3.76.519 12.95 1.788 12.95-.969 0 .3 15.1 5.205 15.1 3.167 0 4.76 14.1 2.137 14.1-2.15 0 3.039 13.92-1.05 13.92-1.922 0 .813 13.51-.505 13.51-2.57 0 .21 2.07-.068 4.65-.413 4.19-.563 9.71-1.302 9.71-.396 0 .033.43-.101 1.14-.323 3.41-1.06 13.22-4.113 13.22-.578 0-.063 12.72-4.069 12.72-3.957 0-1.367 15.16-.26 15.16.539 0 1.882 12.7-2.794 12.7-4.528 0-3.253 14.28-3.164 14.28-1.661 0-.482 2.03.44 4.64 1.622 4.66 2.117 11.16 5.068 11.16 2.308 0 .112 13.77-3.868 13.77-5.116 0-.45 14.67 1.387 14.67 2.794 0-3.17 10.51 1.276 13.17 2.402.39.163.61.256.61.247 0 2.668 12.84 4.065 12.84 2.922 0-2.305 13.79-1.317 13.79.876 0 2.691 13.17 4.24 13.17 3.216 0-1.926 4.2-.82 8.21.236h.01c1.62.429 3.22.849 4.5 1.056.32-.612 2.75-1.778 4.67-2.7 1.32-.63 2.39-1.147 2.39-1.293 0-2.982 9.79-2.527 9.79-1.239l.11-.001c1.1-.02 9.9-.179 9.98.536 2.28.05 4.06-.095 4.06-.997 0-.119 1.62.132 3.67.694.81-.46 1.34-1.074 1.34-1.866l28.37 1.82c0 .648 1.24.616 2.77.576 1.63-.042 3.59-.094 4.71.675 1.17-.45 2.47-.914 3.65-1.335l.01-.002c2.04-.73 3.72-1.327 3.72-1.497 0-3.424 15.13-2.903 15.13-1.423l.15-.002c1.6-.022 15.45-.21 15.45.63 0 1.529 14.02 1.258 14.02-2.504L1466 4.973V0ZM724.404 24.26a.724.724 0 0 1-.172-.099c.039.02.071.04.103.06h.001l.006.003.062.037ZM741.768 24.162a.724.724 0 0 1-.172.099l.068-.04c.032-.02.064-.04.104-.06Z"/>
</svg>
