<svg xmlns="http://www.w3.org/2000/svg" width="1466" height="26" fill="none">
  <path fill="#F2E8DE" d="M0 5.457v20.296h1466V5.457l-10.8 2.005-12.96.795-12.9-1.248-12.59-4.234-13 1.575-13.18 2.187-12.83-.859-13.16 1.01-11.57-2.942-12.11-.063-12.19-1.955-11.85.1-6.34.442-5.67.403-32.46 5.489-4.5-2.791c-3.66.898-8.02 2.42-8.02 2.708-.17-2.77-7.42-7.223-7.37-6.344.01.135-11.64 2.308-11.8-.132 0 .436-2.26.102-4.62-.631l-1.54-.102c-2.53-.17-4.3-.288-4.3-.116 0-.807-3.97-.776-8.75-.74-1.56.013-3.2.025-4.82.01-.39.43-.79.9-1.21 1.38-2.24 2.596-4.69 5.423-4.82 3.039 0 .077-3.34-.373-6.55-.807l-.02-.002c-2.99-.403-5.87-.792-5.86-.73-.05-.776-2.27.828-4.54 2.468-2.38 1.72-4.82 3.48-4.87 2.585-.09-1.565-13.29-4.492-13.29-3.858-.03-.107-.76.595-1.8 1.602-2.71 2.605-7.53 7.247-7.65 5.146-.13-2.182-3.42-1.148-6.48-.19-2.64.829-5.1 1.601-5.2.2 0 .43-2.01.16-4.36-.157-3.31-.444-7.26-.977-7.19.23-.04-.668-11.7-1.873-11.7-.893-.06-.79-2.62.451-5.39 1.79-3.25 1.571-6.77 3.277-6.85 1.986.1 1.76-12.55 2.486-12.58 2.01.1 1.787-13.64-2.922-13.69-3.622.02.214-12.5 4.772-12.7 1.403-.07-1.24-3.21.125-6.31 1.473-3.03 1.316-6.02 2.617-6.09 1.463-.02-.376-1.72-1.195-3.89-1.945-3.06.548-5.34.8-5.34.103 0-.519-1.56-.925-3.84-1.17-.23.202-.35.473-.33.833-.02-.377-.11-.667-.24-.889-.83-.079-1.73-.135-2.67-.171-3.5 1.406-8.91 6.38-8.85 7.315.15 2.457-12.41-.591-12.49-2.045.18 3.151-11.93 4.66-12.26-.914-.09-1.56-5.85 1.12-9.16 2.663-1.34.621-2.28 1.058-2.28.956 0-.009-.34-.015-.89-.026-2.82-.054-11.33-.218-11.398-1.417-.013-.178-12.062-2.04-11.877 1.13-.099-1.681-11.679 2.642-11.551 4.788.001.02-.818-.2-2.032-.527l-.014-.004-.007-.002c-3.495-.942-10.229-2.758-10.229-2.284-.072-1.065-3.297-1.122-6.388-1.177h-.001c-2.851-.05-5.589-.098-5.636-.933.092 1.583-6.103 1.155-9.586.914h-.003c-1.361-.095-2.306-.16-2.301-.065.129 2.163-11.824 2.463-11.933.624.106 1.74-11.659 1.582-11.794-.763-.026-.399-1.877.149-4.132.816-3.517 1.04-8.016 2.37-8.104.855-.01-.163-.945-.018-2.284.19-3.389.525-9.369 1.453-9.527-1.184-.02-.29-12.308-.4-12.246.67-.005-.093-1.341-.07-3.116-.04h-.002c-3.507.06-8.721.148-8.765-.57.265 4.494-5.453 2.984-9.16 2.005-1.78-.47-3.096-.818-3.066-.321-.072-1.255-11.389-5.658-11.389-5.205a1.633 1.633 0 0 0-.132-.578c-.794.32-1.245.575-1.245.72 0 .624-1.275.343-3.221-.396-3.264 1.562-7.184 4.574-7.786 5.736.033 3.465-14.624-2.784-13.527-3.9-.969.283-2.39.364-3.955.454h-.002c-2.578.148-5.545.318-7.525 1.448-.399-.306-3.034-.858-5.728-1.422-2.887-.604-5.842-1.223-6.192-1.57-1.046.765-4.286.732-7.188.702-2.697-.028-5.103-.053-5.186.57.337.104-2.935.238-7.884.44h-.007c-10.732.44-29.34 1.2-36.161 2.68-6.821-1.48-25.429-2.24-36.161-2.68h-.007c-4.949-.203-8.221-.336-7.884-.44-.083-.623-2.489-.598-5.186-.57-2.902.03-6.142.063-7.188-.702-.35.347-3.305.966-6.192 1.57-2.694.564-5.329 1.116-5.728 1.422-1.98-1.13-4.947-1.3-7.525-1.448h-.002c-1.565-.09-2.986-.171-3.955-.454 1.097 1.116-13.56 7.364-13.527 3.9-.602-1.162-4.522-4.174-7.786-5.736-1.946.74-3.221 1.02-3.221.396 0-.145-.451-.4-1.245-.72-.072.158-.118.35-.132.578 0-.453-11.316 3.95-11.389 5.205.03-.497-1.286-.15-3.066.32-3.707.98-9.425 2.49-9.16-2.005-.044.72-5.259.63-8.765.571h-.002c-1.775-.03-3.111-.053-3.116.04.062-1.07-12.226-.96-12.246-.67-.158 2.637-6.138 1.71-9.526 1.184-1.339-.208-2.275-.353-2.285-.19-.088 1.515-4.587.185-8.103-.855h-.002c-2.254-.667-4.105-1.215-4.131-.816-.135 2.345-11.9 2.503-11.794.763-.109 1.84-12.062 1.539-11.933-.624.005-.095-.941-.03-2.301.065h-.003c-3.483.24-9.678.67-9.586-.914-.047.835-2.785.883-5.636.933h-.001c-3.092.055-6.316.112-6.388 1.177 0-.474-6.742 1.344-10.236 2.286-1.222.33-2.047.552-2.046.531.128-2.146-11.452-6.47-11.551-4.788.185-3.17-11.863-1.308-11.877-1.13-.068 1.2-8.582 1.363-11.394 1.417h-.013c-.549.01-.877.017-.878.026-.007.102-.945-.335-2.281-.956-3.312-1.542-9.073-4.224-9.164-2.663-.333 5.575-12.44 4.065-12.256.914-.085 1.454-12.641 4.502-12.489 2.045.053-.935-5.349-5.909-8.853-7.316-.942.037-1.845.093-2.672.172-.131.222-.214.512-.24.889.023-.36-.099-.631-.329-.833-2.283.245-3.838.651-3.838 1.17 0 .696-2.279.445-5.342-.103-2.174.75-3.866 1.569-3.886 1.945-.069 1.154-3.061-.147-6.089-1.463h-.001c-3.101-1.348-6.241-2.713-6.314-1.473-.201 3.369-12.717-1.188-12.704-1.403-.046.7-13.787 5.41-13.685 3.623-.026.475-12.683-.251-12.581-2.011-.079 1.29-3.603-.415-6.851-1.987-2.764-1.337-5.328-2.578-5.392-1.789 0-.98-11.652.225-11.695.892.071-1.206-3.884-.673-7.185-.23h-.001c-2.35.317-4.368.589-4.368.158-.094 1.401-2.556.629-5.195-.2-3.057-.958-6.352-1.992-6.481.19-.124 2.1-4.945-2.54-7.65-5.146-1.046-1.007-1.775-1.71-1.796-1.602 0-.634-13.201 2.293-13.297 3.858-.05.896-2.487-.865-4.867-2.585-2.27-1.64-4.489-3.244-4.536-2.468.005-.062-2.878.327-5.869.73-3.22.435-6.565.886-6.561.809-.139 2.383-2.582-.442-4.826-3.038-.415-.48-.823-.952-1.208-1.38-1.621.014-3.265.002-4.823-.01h-.003c-4.777-.037-8.744-.068-8.744.739 0-.172-1.768-.053-4.298.116l-1.548.102c-2.355.733-4.614 1.067-4.614.63-.165 2.441-11.811.268-11.805.133.05-.879-7.196 3.573-7.361 6.344 0-.287-4.361-1.81-8.023-2.708l-4.506 2.79-32.459-5.488-5.668-.403-6.344-.443-11.84-.099-12.196 1.955-12.111.063-11.564 2.943-13.161-1.01-12.832.858L62.25 4.35 49.245 2.775 36.658 7.01 23.757 8.257l-12.96-.795L0 5.457Z"/>
</svg>
