
<svg xmlns="http://www.w3.org/2000/svg"  viewBox="0 0 147 128" fill="none">
  <g clip-path="url(#a)">
    <path fill="#D0C5B9" fill-rule="evenodd" d="M84.78 2.052c.344.842.775-.475.194-.216-.26.108-.345-.13-.194.216ZM63.989 107.289l-.517-.496.71.064 1.53 1.685c.173-.691-.603-1.404-1.034-1.944l-2.8-3.369c-.41-.561-.949-1.468-1.487-1.814l.065-1.101 1.508 1.814c-.647-1.533-2.521-3.585-2.456-5.334.56.453 1.228 2.18 1.53 2.829 2.779 5.701.56 2.203 4.588 7.278v-.216c-.129-1.145.259.41-.086-.648-.172-.562-.086-.238-.323-.627-.065-.107-.647-.928-.797-1.166-1.25-1.943-3.49-7.213-3.275-7.969l1.034 1.253c.646-.864.043.086.237-.734 0-.065.022-.173.043-.238 0-.065 0-.28.043-.237.043.043 0-.173.043-.26.151.303 1.207 2.484.97 1.426 1.508.756.15.928 1.659.756.215-1.145-.065-2.96-1.724-2.722l-.388-1.727c-.043-.389-.086-.367-.129-.82l1.444 2.008s.043-.173.064-.238c0-.043.043-.151.065-.216.215-.54.194-.842 1.4-1.62l-.323-.712c.711-.972 1.034-3.326 1.314-4.406-.064 1.166-.668 3.974-.172 5.032l1.228-.194c-.065-1.102-.237-.324-.13-1.815 0-.086 0-.194.044-.28.323.648.495 1.015.754 1.706.43 1.08-.259.82.797.864-.13-1.188-.883-1.62-.84-2.635l.366.302c1.788 1.987.56 2.786 2.004 3.499-.302-1.145-.819-1.296-.539-2.203.668.626.797 1.037 1.077 2.03l.539.994s.13-.087.15-.108l.453-.54 2.155 5.377c.15-.151-.086-1.252.301-2.116.582 1.814.582 3.585 1.465 5.291.582.734-.107.345.647.54l-.065-.67-.194-.453c1.164.583-.883-.432.69.237.064-.151.237-.151.344-.799.582 1.231.604 3.823 1.444 4.535.452-1.641-1.077-5.204-1.94-6.91-.796-1.62-1.701-5.248-2.175-7.149-.647-2.526-.733-10.582-.043-12.353.948 3.218-.905 8.272.603 12.504.216-.669.108-1.533.194-2.18.065-.627.237-1.577.517-2.139l.69.238-.668.388.581.778c-.28 4.06-.474 4.535 1.38 9.005.042-.064.128-.107.128-.215l.539-1.34c-.215-1.144-.15-.863.302-1.684-.043-1.252.388-.885.064-2.267-.668-2.916-1.443-4.039-1.659-8.12.604.41.539 1.209.625 2.159-.15.864 0 1.469.237 2.31.172.54.237.67.345 1.124 0 .065.13.712.258 1.015H79.846s.108-.043.15 0c.044.043.087 0 .151 0 .151.648.647 2.613 1.336 2.548l.496.886c.344-.41.172.043.41-.713.15-.475.064-.173.15-.777.194-1.34.345-3.672 1.228-4.6l-.043-1.296.603-.756c.991 1.21.216.151.172.756-.474.648 0 0-.28.626-.366.756.065.173-.43.67.236 1.921-1.875 5.593-.604 7.407 1.638.26-.366-.713 1.271-.216l-.215 1.533c1.056.756 2.047.95 4.072 2.354-.862-.172-.69-.28-1.638-.475-.71 1.922-.258 1.901 1.229 2.743.861.475.861.518 2.111.367-.776-.691-.56-.389-1.25-.777.108-2.614-.258-.692.56-3.391.518 1.576-.538.885.798 3.11 1.034 1.727 1.12 1.058 3.145 1.166-1.422-1.771-1.185-.713-2.046-.691-.496-2.31-.582-4.924.107-6.781.56 1.77-1.206 5.464 1.336 6.111.43-.863.065-3.217 0-4.19.797.39.452-1.273.625 2.398.043.929-.043 2.03.581 2.635.733.712 3.448 1.619 4.482 1.619-1.056-.928-3.533-1.922-3.727-2.267-.173-.864-.496-1.965.021-2.721.733.626-.345 1.792.733 2.591.43-.669.215-1.101 0-2.051.668.431.452.302.797 1.814.215.928.237.907 1.163 1.36.194-.453.108.087.13-.626 0-1.901-.905-1.425.193-2.613.216 3.693.237 2.764 1.53 3.39.022-.064.086-.108.065-.194l.194-2.095c.538 1.663.172 2.203 1.335 3.499.324-.367.431-.216.28-1.706-.064-.54-.107-1.167-.28-1.642.517-.388.345-.453.561.13.215 1.944-.173 1.771 1.314 2.829 1.594 1.145 1.163.885 3.167.54l-.431-.885.151-.346c.668.648 1.163 1.253 2.176 1.145-.431-.648-.625-.778-1.293-1.145-.194-.475-.258-.302.237-.497 1.681 1.102 1.724 1.663 3.016 2.181.884.346.517.303 1.444.324-1.293-1.317-2.866-1.727-3.684-2.764 1.099-.108 4.093 2.073 4.244 2.592.129.453-.172-.152 0 .604 1.142.497 1.745.864 3.016.951-.883-1.447-1.465-1.404-2.348-2.527 2.241-.864.56-.475 2.564.928.581.411.301.346.991.389-.237-1.728-2.004-2.311-4.115-3.909 1.379.151 2.585 1.382 3.727 2.138 1.12.735.754.238 1.853.627l3.663 1.922c1.895.95 2.154.928 4.115 1.295.926.173 1.228.497 2.219.216.431.216.129.152.775.13.022 0 .647-.086.711-.086.97-.108.56.043 1.53-.346-.431-.626-.431-.95-1.12-.648-.733.324.861.346-.884.454-.538-.691-.517-.562-1.249-.951-1.939-.993-.927-1.015-.884-1.144 1.422.497.711.95 2.435 1.101-.496-.756-.151-.41-.905-.907-2.025-1.339-1.336-1.252-3.059-2.332-1.164-.734-1.056-1.253-1.164-1.404-.56-.734-.581 0-2.305-1.533.603.043.689-.043 1.573.496 2.585 1.577 1.12.605 3.555 1.685-1.099-1.598-3.232-2.354-5.042-2.635-1.379-.194-2.434-1.274-4.697-1.036-1.335.15-3.037.604-3.727-.735 1.314 0 1.487.281 2.93.151 2.349-.237 1.185 0 2.586-.561 1.335-.54 3.167 1.922 4.869 2.008-2.284-2.72-3.555-2.85-4.46-3.606.366-.346.711.043.991-.367-1.68-.778-4.589-1.34-6.226-2.916 1.378 0 3.942 1.836 5.989 2.117l.323-1.166c-.582-.692-.495-.281-1.249-.908 2.089-.323 1.422.713 2.844.39-.518-.54-.992-.627-1.681-.93-2.004-.863-2.047-1.814-4.331-2.332 0-1.382.496.281.13-.777-1.314-.562-2.025-.778-2.715-1.469.991-.065 2.499.864 3.361 1.296.539.13-.345.54.603.043-.323-1.123 0-.237-.452-.475-1.487-1.252-4.007-1.08-4.826-2.613 1.228.28 2.37 1.188 3.684 1.166-1.336-2.052-2.133-.95-3.49-2.613 1.142.043 1.551.54 2.197 1.037 1.508-.692.237-.281 1.25-.864 1.142-.648 2.435-.54 3.296-2.246-.452-.82-.624-.929-2.413-1.447-1.055-.303-1.379-.28-2.154-1.123.668-.087 2.176.583 3.232.799-.755-.993-.97-.82-1.918-1.231-1.487-.626-2.499-1.836-6.119-1.987-.711-.346-.237.432-.624-.777.581-.929.646-.648 1.917-.994-1.745-1.015-3.21-.648-4.417-2.98-1.163-2.246-1.206-3.823-1.012-5.745 2.908-1.727 9.997 1.685 13.702 1.944-1.702-3.542.733-.173-1.723-4.578-.711-1.296-2.198-3.844-1.918-5.227 1.12 2.635 2.435 6.976 4.805 7.991 1.012.432 2.499.82 3.576 1.101 1.314.346 2.93.195 4.374-.67-.668-1.576-1.207-.539-1.853-2.288 1.357-.994 2.93-.216 4.653-.735-1.292-1.274-1.486-.345-3.124-2.31-.624-.756-2.025-2.462-2.176-3.304 1.336 1.08 2.327 3.476 3.879 4.34.797.432 1.271.238 2.563 1.015.216.13.431.778 2.004 0 .539-.259.474-.237.646-.475-.667.087.431 1.123-2.563-.28-.992-.476-1.702-.41-2.435-1.512.711.388 1.163.324 2.133.712 1.142.454.991.562 2.348.562-.366-.972-.086-.497-1.098-.864-.388.151-.237.194-.431-.194.043-.065.129-.087.107-.195-.043-.259.237.108.108-.799-.84-.993-1.443-1.36-1.594-2.85.991.626 1.185 1.555 2.047 2.008l2.477 1.317c.086-2.678-4.46-3.196 1.077-4.75.862.345 3.06-.303 4.223-.454 1.056-.13 3.512 0 4.029-.497-1.013-1.274.151-.194-1.594-.216-.388 0-4.374-.583-5.279-1.296l1.832.087c-1.185-.648-2.952-1.015-4.159-1.706 1.81-.13 4.589 1.295 6.464 1.533.431-.173.345 0 .172-.475-.538-.324-.56-.26-1.249-.432-.668-.151-.711-.151-1.53-.41-1.056-.324-1.831-.605-2.952-.756-.237-.346-.301-.238.043-.367 1.336.086 1.853.54 3.448.669-1.444-2.008-5.43-2.052-6.528-3.175 1.184-.108 2.477.735 4.826 1.231-1.142-1.576-4.18-1.447-5.688-2.289 1.982-.993 2.262.95 5.235.756-.732-1.21-4.33-1.08-5.214-2.181 1.358-.432 1.982.626 3.361.54-.969-2.16-2.994-.994-4.503-1.944 1.293-.54 2.09.151 3.297-.043-.733-1.404-3.577-.67-4.912-1.404 2.003-.626 3.231.389 4.589.367.172-1.641-1.422-1.77-2.715-1.9l.388-.303c3.016.324 3.468 1.49 4.912.8-2.327-1.123-4.287-3.175-5.429-2.916.603 1.317.474 0 .883 1.188l-.926.497c-.496-.303-.302-.303-1.207-.39-.883-.086-.043-.064-.625 0-.323.605-.409-.625-.086.973-1.314-.864-6.7-.67-7.972-1.21-.667.108-2.843.151-3.533-.043l-.732-.302 3.188.065c.884.086-.086-.087.431.043.065 0 .151.043.216.065l.452.194c1.659-.367 4.417.583 6.593-.389l.323-1.447s.021-.173.021-.259c-1.465.151-5.106-.432-7.023-.605-1.982-.172-6.119.195-7.368-.086-.496.173-7.39 1.684-7.735 1.706.28-.756-.733-.065.603-.82.323-.195 5.903-1.21 7.132-.886 1.594-.648 7.325-.41 8.962-.194 1.465.172 7.778.928 8.618.69-.56-.626-1.831-.41-2.564-1.1 1.056-.39 1.293.366 2.456 0-.905-1.188-1.615-.497-2.757-1.275 1.228-.324 1.594.173 2.714.108.733-1.857.517-2.03 2.887-3.023-1.379-1.447-8.251-1.469-10.363-1.231-2.025.216-3.921.67-5.946 1.015-7.196 1.188-11.742 1.835-17.99 6.306-2.284 1.641-8.273 5.788-11.01 6.522.431-1.706 4.03-2.657 5.624-3.758 7.39-5.14 9.695-7.17 18.916-9.2 8.381-1.857 11.634-2.397 19.024-1.166 1.81.302 3.469 1.663 5.839 1.23-.603-.323-.56-.215-1.25-.582-.517-.26-.862-.54-1.379-.734-.538-.195-2.219-.432-2.951-.562-2.349-.432-3.728.086-5.817-.929 1.055-.518 3.533.432 5.364.216-.495-.367-.064-.108-.581-.324l-1.746-.54c1.401-.842 4.374.994 6.055 1.059-3.965-3.39-9.717-1.469-12.066-2.354 2.866-.648 6.313.043 8.058 0-1.616-1.512-4.46-1.814-7.023-2.333-1.465-.302-2.284-.41-3.706-.777-1.12-.302-2.542-.108-3.232-1.577.733-1.339 1.293-1.446 2.801-2.332 2.521-1.08 12.884-3.39 13.832-4.449-1.551-1.101-4.719 1.555-6.334.26 2.348-.454 1.68.345 2.736-.886.172-.216.56-.605.646-.648.69-.389 3.296-.26 4.503-.734l.495.518-1.594.605c.56.604.431.885 1.508.13.754-.519.388-.692 0-1.448l.043-.194c-3.899 1.058-7.109-.972-8.294-.583-.69.216-.173.324-1.379.432-.453.043-1.164 0-1.487 0 .474-.756 1.034-.346 1.853-.648l.452-.302c-1.508-.432-3.813.928-5.063.043 1.207-.432 2.284-.303 2.715-.626.754-.54.431.216.388-.713-.819-.734-1.551.28-3.9.583-1.379.173-2.865.518-4.029.454-1.422-.087-2.133-.216-3.425-.519-1.853-.432-2.521.907-4.051.605.841-.929 1.789-.367 2.629-1.253-1.034-.15-1.164.238-2.327.54-.862.216-1.4.281-1.788-.324 1.271-.907 1.788-.82 2.628-1.252l.582-.41s.129-.087.172-.152c-.689-.648-1.12.087-3.339.216h-.194l.948-.626 1.4-.842c-.797-.108-.883-.087-1.465.561l-3.361 1.382-.668-.626 1.013-.173 3.49-1.36c1.185-.54.345-.087.431-.497l-.969.108c-.948.432-2.737.756-3.835.67-1.508-.109-1.315-.562-3.555-.109-1.745.368-3.124.907-4.934 1.08l-.452.043c-1.961 0-.022-.367-2.456.238-1.056-.475-.733-.238-.927-.626l1.185-.648.948-.605c-.646-.086.711-.043-.56-.043-2.112 0-2.564.173-5.494 1.641-1.81.907-3.555 2.16-5.3 3.304l.797-1.295c2.155-2.7 8.338-3.024 10.988-5.723-.883.108-.56.108-1.207.561-1.443.994-1.185.67-1.68.519 1.077-.735 3.232-1.577 3.382-2.98-.237-.044-.15-.26-1.141.345-.302.173-.82.604-1.142.82-.69.497-1.272 1.08-1.94 1.275.862-1.534 3.555-2.549 4.159-3.629-.69-.064-1.487.627-2.22.95l-1.615.238c-.56-.928-.194-.173.086-.604l2.154-1.08c-1.788-.195-4.933 2.764-6.872 3.326.581-1.08 2.326-1.512 3.167-2.182l.301-.302s.108-.108.13-.173c-3.254.13-2.392 1.9-6.205-.13l-2.909 2.808c.323-1.49 1.207-1.36 2.004-2.807-2.09 1.209-1.293 1.317-3.727 2.094l-.798.627.324-.82c1.012-.498 3.016-2.16 3.598-2.916-1.142.043-5.128 3.498-6.55 4.254.15-.475 0-.13.28-.605.15-.259.28-.388.43-.647-3.101 1.598-2.326 2.16-7.69 4.491-.518.216-1.013.476-1.552.648 0 0-.668.151-.69.151-.516.022-.344.044-.732-.172l-.668.065-1.723 1.814c-.173-2.311 1.4-2.246 1.551-4.168-1.293.885-2.65 2.829-3.21 3.865-.819 1.512-1.702 3.736-2.284 4.211-.41-1.382 2.262-4.319 2.542-5.744-2.822 2.376-3.533 4.794-5.192 7.321-.71 1.08-1.68 2.613-2.284 3.715-.754 1.338-1.12 2.397-1.874 3.822.776.886 2.154 3.002 1.767 4.406.56 2.505 2.24 2.98.97 4.6-.13-.95.15-1.274-.518-2.268-.84.842.086.8-1.142 1.339 0 0 .496-5.701-.905-6.91l-.452-.066c-1.551-.323-.453.152-2.435-2.267-1.896-2.31-5.838-6.825-8.682-6.35l-.173 1.599c-1.12.194-1.422-.043-2.176-.281-1.099-.345-1.12-.151-2.327 0-1.68.194-3.511.929-5.084 1.728-2.93 1.468-5.559 3.455-7.929 5.355l1.185-.345.755.086-1.703.735c-.194.82.302-.087.367.648l-3.361 2.699c.668.28 1.314-.453 2.283-1.058.991-.605 2.112-1.382 2.974-.648-.862.734-2.176.67-2.78 1.706 3.77.54 10.126-3.326 13.487-2.419-2.843.95-7.325.713-9.285 3.456-3.685 5.14-4.999 5.14-5.84 6.111l3.06-.971c-.301.755.302.237-.71.626l-.367.367.388.345c-.819.605-1.94.864-2.715 1.534-.71.626-1.056 1.058-2.133 1.9l-.129-.54c.043-1.187 2.478-1.533 4.05-3.045-3.468.95-4.826 2.095-7.13 4.514-.82.864-1.358 1.252-1.574 2.181l3.447-2.635.302.151c-.28 1.123-1.142.648-2.542 2.484-.668.864-4.999 3.326-5.688 6.5l2.693-2.289c1.745-1.058.496-.453 1.25-.216-3.49 2.614-4.61 4.233-5.688 7.343l1.745-1.468c-.862 1.706-2.456 2.613-2.909 4.578 2.241-1.469 2.5-2.29 3.685-4.384 1.141-2.052 1.874-3.11 4.783-3.995 4.33-1.34 9.027-2.095 13.487-3.52 3.253-1.016 6.528-5.788 8.92-7.948l7.174-5.896c1.012-.82 1.443-1.576 2.262-1.036l-8.036 6.716c-5.128 4.19-5.58 8.099-12.346 9.502l-11.483 2.83c-.84.259-2.111.777-2.52 1.533-.647 1.188.085-.26.064.67 0 .626-.323.669-.776.971-.107.583-.603 1.102-1.055 1.663-.733.907-.582.842-1.702 1.641l.344.389-1.422 1.512 1.638-.929c.41-.022.107-.453.41.26.56-.454.085.043.473-.433l1.357-1.965c.28-.389.647-.95.862-1.339.496-.842.216-.648 1.013-1.36-.065 1.036-2.607 4.902-2.693 4.967-1.034.863-.56.345-1.034.13-5.84 4.513-2.09 1.943-3.598 4.427 0 0-.582.799-.604.82l-3.016 4.017c.776.086 3.641-1.641 4.61-2.7l3.34-4.124c1.056-1.706 2.025-2.635 2.866-4.32.474-.95.452-1.879.754-2.44.301-.583 1.53-1.576 2.176-1.9-.324 1.144-.733 1.058-1.358 1.835-1.012 1.253.022 2.073-2.994 5.745l-2.65 3.563c-.927 1.102-2.435 2.354-2.995 3.412.172-.086.797-.518.84-.54.797-.367.431-.345.97-.172-1.035 1.252-3.47 1.727-3.922 2.483 1.746.82 2.327-1.015 4.03-.734-.582.95-1.832.691-2.37 1.857 1.464 1.253-.13.065 3.727-.367.021 0 .107-.022.172 0-1.357 1.533-3.102-.065-4.675 3.995-.647 1.685-3.577 5.658-4.89 8.466 1.163-1.23 2.865-3.131 3.899-4.125 0 1.188-.388.994-1.25 2.181-.668.907.216-.367-.215.324-.216.346-.173.281-.28.519 1.141.259.754.108 1.68-.54l.883-.475-.107-.8c.99-2.03 2.068-1.684 2.671-3.196L8.21 76.536c.194-.69-.775.108 1.142-1.295.905-.648 1.875-2.786 4.481-3.672.065.584-.538 1.728-.861 2.03-.97.864-1.185.54-2.112 1.836-.668.95-.495 1.102-1.4 1.965-.668.648-1.185 1.512-1.918 1.966.108.69 0 .15.237.518l6.4-5.594c2.067-1.727.042-1.015 1.593-2.224.496 1.34 1.013 3.607.992 4.816-.044 3.844.043 2.872.344 2.937l.539.043c-.388.627-.474.562-.603 1.275.861-.648.818-1.34 1.939-2.117.086.972-.173.454-1.185 2.16-1.099 1.857.366 1.166-.604 2.548.755-.648.733-1.317 1.767-1.188-.108.583.108 0-.258.54-.151.216-.453.497-.56.626-2.112 2.182-1.875.627-2.004 3.477.194-.194 2.542-3.39 4.093-4.125-.474.95-1.723 2.16-2.37 3.067-.69.972-.409.864-1.314 1.75-.582.583-.797.453-.754 2.03 1.379-1.253 1.12-2.03 2.284-3.067.086.82-.259 1.166-1.25 2.656-.668.972-.646.562-1.034 1.058-.43.54-.194.67-.495 1.426.754.54-.194.216.667.15.087-.56-.129-.02.151-.604.323-.713 1.013-1.468 1.638-1.943-.173 1.058-.97 1.9-1.789 2.548l-.926 1.274-.926 3.023c-.28.648-.453.735-.518 1.62 1.315-1.036 2.069-2.462 2.672-3.693l-.819.54c.173-.928.065-.734.927-1.188.043-.367-.151-.086.108-.54.452-.755.064-.15.646-.712-.13 1.037 0 .842-.754 1.252-.043.605.345-.086-.108.648.56-.475.259-.28.862-.648.064.994-.366 1.21-1.099 2.268-.452.648-1.465 1.447-1.443 2.203l1.335-1.34.517-.431c.56 1.015.108.086.022.648l-.43.54c2.498-1.231 2.778-5.788 5.062-7.494.883.69.022.302.28.69 3.296-2.05 3.792-3.93 4.89-6.154l-.516-.043c-.13.648-2.672 3.714-2.736 3.78-.259.215-1.229.841-1.703 1.209.022-.087.108-.152.087-.281-.022-.28 2.865-3.93 4.352-4.686l.108-.39c.797-2.31 1.766-2.224 1.228-3.282-.862.605-1.422 1.944-1.595 2.095-1.508 1.36-.43.367-.905.237 3.017-3.865 2.327-4.837 3.318-5.809l-.517 2.527c1.724-1.404-.366-1.253 1.271-1.879 0 .886-.366 1.339-.452 2.31 1.4-.885.603-.95 1.443-1.921.173 1.036-.258 2.635.259 3.088.345-.475.323-4.298.237-5.118.474.28.366-.54.582 1.036.107.713-.108.67.129 1.577-.517.95 0 1.663-.022 2.743-1.098.755-1.034.54-2.068.194l-.345.151c-1.443 1.382-1.96 2.894-2.154 4.6 1.336-.993 1.616-2.073 2.844-3.067-.496 1.555-2.5 3.542-3.684 4.6-.733.648-1.595 1.318-2.392 1.944-1.767 1.339-.732.82-1.68 2.484-.539.95-1.1 1.533-1.509 2.332-.689 1.382-.129 1.296-1.788 2.462-1.766 1.23-.84 1.015-1.939 2.138-.905.907-1.659.993-1.745 2.289 1.508-.583 2.348-2.527 3.598-2.354-.646.821-2.65 1.965-2.865 3.024 1.896-.044 2.93-2.635 4.395-2.354.323 1.274.258.561-1.25 1.187-.775.324-1.508 1.037-1.831 1.555l1.034.605c2.628-1.404 1.96-1.339 3.08.777.647 1.188 1.552-.151 3.233-.086 2.003.086 5.257.734 6.959 2.138l.323.259.086-.972.819-.302c.387.994.818 3.088 1.034 4.19.13.691.108.324.065.907-.087 1.274-.69.972.84 2.483 0-.064.043-.108 0-.194v-.842c-.194-1.145-.754-2.419-.754-3.758.172.13.107-.043.388.518.15.281.15.367.258.627.237.691.043.496.474 1.295l.259-1.295c.474 1.576.323 2.289.646 3.757-.194.583-.582-.41-.086.67.797-.411.258-.043.366-.583l-.108-2.074c.323 0 .862-.064 1.207-.021.086.95 0 2.138.71 2.699l.173-2.375c.215.173.15-.043.302.54.064.237.043.367.064.604.043.627 0 .929.065 1.534.108 1.015.13 2.375.69 2.85l.689-2.332c.603 1.49-.517 1.598.56 2.592 1.013-.713 0-.216.948-1.318.086 1.123-.15 1.469.41 2.678l.129-.41c.452-1.901-.431-1.382.56-2.181.323 1.015-.13 2.267.366 3.477.582-.972.237-2.009.582-3.261.646 1.166.172 2.332.301 3.671 1.444-.756 1.68-.626 1.66-1.901l-1.207.087c1.616-1.361.646-2.678 1.874-3.672-.495-.583.043-.323-.69-.302.087 1.08 0 1.533-.861 2.138 0-.561 0-.605.194-1.166.323-.95.41-.778.668-.993.021-.929.775-4.363 1.465-4.924.258 1.101-.194 1.123-.151 2.375-.539.324-.905 1.058-.56 1.749.043-.302.065-.561.517-.496 0 .043-.086.734-.086.734-.28 1.058-.022.41-.517.864 0 1.533-1.25 3.002.366 4.19.776-.67.538-2.743 1.96-2.678-.215 1.144-.452.216-.452 1.814 0 2.202.043 3.606 1.896 5.485l.043-4.643c.517.086.065-.972.625.648.13 2.008-.086 5.183.646 6.911.69-.735.733-1.512.776-2.657l.43.519c-.409 1.9-.56 1.662-.43 2.958 1.4-1.015 1.422-2.267 1.465-2.44.194-.281 1.056-2.592 1.077-2.916.043-.712-.258-1.187-.172-1.727.086-.432-.022-.13.71-.886l.927 2.441c.259-.54.28-.238-.064-1.75-.151-.626-.324-1.252-.345-1.814.668.432 1.379 2.527 1.271 3.607.495.151 1.379.151 1.788.194l-.15-1.62c-.712.476 0 .281-.82 1.188-.883-1.9-.969-3.779-2.024-5.204-1.358-1.858-1.767-3.326-2.327-5.615-.733-2.981.107-7.278-1.983-10.043-.344.044-.215-.388-.517.627l-.258-.087c-.991-2.16-.086.065-.733-.604-1.012-.994.324-2.635-1.228-3.52-.387 1.425.733 3.476.194 4.945-.495-.346-.086.281-.345-.454a5.065 5.065 0 0 1-.107-.799c-.086-1.749-.668-4.47-.345-5.204l3.21 3.369 1.422 2.224c.819-1.015.776-1.252 1.38 0 .56 1.188 1.249 2.872.926 4.298l-.302.734c-.41 1.317.625 9.286 2.305 9.178.388 1.167.065 1.382.539 2.203l.344.259c.302-1.382-.43-1.339-.624-2.764l.323-.259h.194l.646 2.073c.431-.907-.517-2.375-.625-5.766-.043-.993.086-1.728.151-2.7.194-2.699-.086-1.857.647-2.613.301 1.318-.474 3.153-.41 4.643.065 1.555.517.907.603 2.182.065.95-.215 1.144.13 2.31 1.508-2.03.926-4.06 4.632-5.053-.97-2.052-1.336-1.944-3.017-2.613-.581.756-.193.756-.969 1.101-.948-.799-.366-.734-.733-2.073 1.293-.346.517.043 1.767-.346 1.034 1.793 1.379 1.339 2.973 1.793-.107 1.015-.28 0-.043.864.065.259.345.691.582.842.452.324 1.228.302 1.917.302l-1.141-1.965-.108-.173Zm26.435-21.164c-.732 0 0 .82-.754-.432l.754.432c1.078-.13 1.724.065 2.306 1.08l.474-.108c.689.518 1.766.95 2.65.778-.56-.346-1.336-.627-2.004-.778.108-.561-.15-.065.43-.41 2.414.496 4.46 1.144 7.068 1.23 2.477.087 2.262.13 5.3.972.344.087.495.109.754.238.754.324.452.151 1.012.648-1.788.173-2.951-.648-4.761-.756-1.767-.086-3.318.367-4.999.216-1.228-.108-6.054-1.123-6.786-1.598-1.056-.67-.065-.151-.625-.8-.366-.41-.345-.107-.797-.712h-.022ZM47.658 39.132l.172.346c.108.604-.021.086-.43.324-.044.626.172-.13-.044.626-.301 1.037-.021.194-.388.777-.064-.561-.237-.086-.064-.734.194-.67 0-.237.495-.67l.259-.669c.043-.777.15-.842.388-1.576.086-.26.15-.584.215-.756.323-.864.086-.389.539-.82.043-1.016.237-1.448.732-2.096 0 .583.043.562-.086 1.08-.237.907-.495.864-.646 1.015-.043 1.469-.431 2.57-1.142 3.175v-.022Zm-11.699 61.765c-.237.475.711.173-.517.475v-.648c.733-2.462 1.745-2.678 2.908-8.098.108-.497.668-.022-.732-2.246l-3.124-6.954c1.314.388 3.964 6.695 4.675 8.379l-.538-1.857.409-.238c.474 1.534 2.262 4.449 2.24 5.464l-1.68-2.376c.539 2.44 1.702 3.844 3.081 5.723.043-1.295 0 1.469-.086-.647v-1.037c.71 1.166 1.594 2.354 2.24 3.542 1.142 2.094-.086 2.116 1.078 3.93.625.972.172.216.754.799l.43.475c.733.972 2.586 5.227 2.63 5.529.15.821.172.129 0 .648-1.035-.972-1.207-2.549-2.048-3.672l.13 1.188 1.292 3.952c.388 1.447 1.013 3.693.604 4.859-.345-.691-1.358-5.118-1.918-6.694-.797-2.268-1.659-4.492-2.542-6.738-.84-2.138-1.788-4.212-3.146-5.874-2.003-2.462-1.831-3.11-3.274-5.788-.367.432-1.013 3.369-1.186 4.038-.71 2.743-1.465 2.333-1.55 3.952l-.108-.064-.022-.022Zm66.681-37.016c.539.454.539.281.065.843l-.108-.152-.668-1.015-.754-2.375c.431.172.302-.67.927 1.101.215.605.28.95.581 1.598h-.043ZM69.655 81.353l.13.82c-.324-.151-.345.95-.26-.605l-.258-.647c-.905 1.533-.452 1.77-1.055 2.397.387.885-.302 1.555-.884 3.045l.323-2.29c.259-.906-.581-.129.56-.755-.086-1.62 1.035-2.98 1.358-5.896.258-2.44.452-2.721.862-4.751.28-1.425-.259-.67.668-1.512.194 1.771-.539 3.326-.84 5.032-.26 1.447-.26 3.93-.582 5.14l-.022.022Zm35.592-24.555c.28-.497-.819-.346.56-.454v.627c.388 1.662 1.81 4.902 2.823 6.392.818 1.188 1.228.82.538 1.944l-.668-.8-1.551-3.26c-.775-1.642-1.077-2.894-1.702-4.428v-.021Zm-54.25 28.485.517-.26c-.194-1.122.151-.086-.129-2.267.431.41.323.367.948.756-.625 1.728 0 .82.69 2.419.301.713.797 2.375.689 3.131l-.603-1.339c-.302-.82-.13-.82-.797-1.403-.604.669-.044 1.36-.108 2.483-.086 1.404-.453.648-1.034 2.117.129 1.1 0 1.576-.56 2.462-.582-1.599-.367-1.534.56-2.463l-.065-1.749-.582 2.16c-.474-1.404.431-4.19-.775-6.025-.776-1.188-.388.496-1.12-1.793-1.638-4.945-6.809-16.802-5.753-22.352.13-.713.366-1.036.56-1.684.28-.886.15-1.21.668-2.03.56 2.85-1.745 4.276-.603 6.889.646 1.447.41 1.922.581 3.541.194 1.663.496 2.635 1.056 4.255.345 1.49 1.767 5.701 2.392 6.975 1.141 2.354 2.52 4.169 3.447 6.22l.021-.043Zm-35.44-9.46-.13-.625-.69-.152c-2.09 1.188-6.355 5.572-8.165 7.43-1.465 1.511-2.025 2.677-3.232 4.168-2.671 3.304-1.142 3.11-2.887 3.952-.926-1.318-.15-1.663.043-3.261.173-1.296-.086-2.311.173-3.348.818-3.218 1.077-2.807 2.542-5.528.302-.562 4.718-6.933 4.46-8.12-.324-1.512-1.53 0-2.349.302.022-1.123.69-.238.625-1.425-1.465 0-1.293.518-2.564.54-.603-1.145 0-1.858.323-3.024 1.422-5.032 4.654-3.499 4.115-7.213-.732-5.162.518-2.57 1.509-5.507.301-.886.366-1.922.668-2.7.452-1.101 2.154-3.887 2.994-4.924 2.995-3.714 1.142-2.418 5.451-6.63 3.124-3.066 8.661-6.284 8.963-8.357l-1.336-.497c-3.318-.842-5.386 3.909-8.877 4.427-.043-1.058.884-2.289 1.573-3.304 4.719-6.91 14.069-14.988 22.709-14.383.366-.907-.108-1.253 1.012-1.382 4.805-.54 9.738 7.386 11.311 8.336l2.65-4.989c2.305-4.168 4.805-8.487 8.381-11.748 3.921-3.585 2.629 0 3.835 1.404 3.038-.843 6.119-2.851 8.532-4.665C78.51 3.607 84.413.173 85.792 0c.151.238.668 1.814 1.034 2.613 2.155.605 5.947-.993 9.652-1.75 1.66-.345 1.767-.712 2.737.152-.087 1.382.15.086-.539.885-1.831 2.138-.323 2.873-.668 4.795-.15.777-.41.475-.582 1.512 1.702.69 2.521-.044 4.633-.605 5.278-1.382.603 1.36 8.919-.907.905-.238 1.444-.26 2.305-.389 1.379-.173 1.25-.497 2.026.432-.367 1.101-.022.216-.647.907-.431.497-1.12 1.253-.991 2.138.625 3.93 11.764.216 12.712.626.624.281 1.702 1.447 2.585 1.9 1.293.67 6.033.951 7.778.692l5.515-.432c-1.379 1.101-2.714 2.332-4.115 3.369-4.826 3.585-13.509 3.39-18.55 6.997 1.616 1.36 4.998 1.339 8.769 2.268 2.564.648 6.075 2.354 8.144 3.844 1.465 1.058 3.641 2.764 3.835 4.859-1.487.67-1.939-.8-4.934-.173-2.284.454-2.973 1.857-2.392 3.823.711 2.44 3.189 3.131 5.774 4.146 1.056.432 1.746.454 1.422 1.512-.194.302.561.345-.883.302-1.099-.021-1.917-.583-3.835.022 2.822 4.967 2.801 3.304 4.438 4.924-.258 1.058-.474.475-.517 1.403 1.508 1.08 1.336.41 1.961 1.08.452.497.021.648 1.314 1.512.668.453 1.142.691 2.025 1.296.991.67 1.185.388 1.767 1.425-1.487 2.03-5.817.907-8.489 1.944-.926-.26-.323-.087-1.357.108-.56.108-.926.064-1.551.496.56 1.34.215.497.668.67.538.67.517.432.969 1.23-.345.973-.301.325-.323 1.361-.151 4.924-4.891 3.218-8.252 3.952.754 1.08 1.422 1.88.151 2.722-2.413 1.64-6.377.41-8.553-.562-.173.626-.065-.022.108 1.08.064.432.172.259.129.928-1.379.41-2.586-.28-3.663-.604-1.012-.303-2.154-.54-3.275-.82-1.443-.368-5.386-1.642-7.109-.67-.13 1.23.452 4.794 1.96 5.809 2.284 1.533 4.008-.086 5.171 1.425-.819 1.037-1.637.691-2.198 1.771 2.327.691 8.511 2.743 9.502 5.486-1.142 1.317-2.693 2.31-4.568 3.304.539.799.69.626 1.013 1.015.862 1.037-.604.54 2.477 2.656 2.629 1.814 3.404.454 4.245 3.045-.97 1.426-1.853 1.641-2.844 2.635.452.972-.108.432 1.099.885-1.142.864-.474.497 1.077 1.987 2.003 1.922 2.628 2.16 3.921 3.326 2.478 2.246 2.758 3.607 4.201 5.183 3.426 3.715-6.032 2.505-7.174 2.268-1.099-.216-2.542-.951-3.447-1.382-1.509-.713-1.832-.735-3.081-1.62-2.047 1.404-.604 1.879-.862 3.196-1.293.497-.711.302-1.53-.216-2.542-1.62-1.745-.972-4.072-1.9-2.391-.951-2.973-1.231-6.291-.778-.043.065-.064.151-.086.195l-.172.388-.087.173c-.107.281-.107.324-.301.669-1.939 0-6.894-2.764-11.85-3.001-1.896-.087-5.041-.303-6.808 1.295-.711.648-.69 1.728-.926 2.765-.431 1.987.71 1.922.495 3.455-1.185.95-1.724 0-2.736-.648-1.099-.712-1.487-.799-2.542-2.03-.776-.907-1.53-1.836-2.284-2.635-.647-.691-1.616-1.706-2.112-2.505-1.852-2.958-5.02-11.791-9.5-8.919-.195 1.75 1.227 2.872.236 4.406l-1.228 1.511c-1.443.713-.71-.043-.862-.129l-.624-.67c3.124 6.954 3.167 4.471 5.084 11.813l-1.163.54-.69-.604c-.97-.886-3.231-1.447-4.783-.411-1.443.972-2.068 2.851-2.434 4.06-.56 1.858-.819 2.678-.539 4.903.539 4.06 1.918 4.341 1.142 5.507-1.659-.259-.43-2.981-4.847-3.175-.884.886-.087-.043-.625.907-.453.799-2.284 5.637-3.857 4.989-.71-.281-.948-1.728-1.25-2.527-.323-.907-.732-1.533-1.206-2.311-.495-.799-.905-1.598-1.379-2.289-.905-1.339-.84-.41-1.314-1.598-.883.648-2.564 2.008-3.641 2.181l-1.81-2.98c-1.336-.799-1.271.345-2.995-1.685-3.64-4.297-3.813-2.224-4.912-4.427-.819-1.663-.388-5.204-3.878-6.349-2.456-.799-4.007-1.058-6.593-.389-.818.216-1.185.281-1.702-.173-.495-.431-.99-1.576-.948-1.382 0 .044-.086-.129-.129-.194-1.056.821-.323.713-1.637 1.425l-1.25-1.058c-2.09-2.267-3.167-.389-5.17-1.339-.367-1.058 1.529-5.226 2.09-6.392.56-1.188 1.744-4.86 1.895-6.436.302-2.915 1.4-11.748.797-14.189l.151-.021Zm55.11-16.671c-1.27-.972-.28-.367-.236-.562l.581.562c.453.15.82.54 1.53 1.08l5.343 4.103c-2.219-.087-6.377-4.017-7.196-5.162l-.021-.021Zm-5.752-1.08c.41.993-.538.237-.732.065l-.259-.605c.366 1.728 2.37 5.874 3.555 7.04v-.216l-.302-1.382c-.107-.69-.15-.237 0-.712l3.081 4.815s.065.173.022.13c-.043-.043-.065.151-.086.194-.345 1.015-.948-.194 1.292 2.83.948 1.274 1.509 2.267 2.607 3.433 1.142 1.21 4.158 5.335 5.387 5.81-.065.95.861.41-.13.82-.28-.13-.474-.82-.646.562-.065.475 0 .928.13 1.512l.624-1.383c.474.108.108-.777.539.691-.776.367-.323.778-.797 1.685-.84-.065-.733 0-1.272-.324.367-.756.388-1.577.496-2.484.15-1.209.021-1.274-.884-2.008-1.292 1.533-.775 6.587-1.314 8.422-1.702-4.664 2.607-8.508-1.055-10.69-.862 1.296-.862 2.397-1.035 4.19-.301-.26-.064.065-.28-.454l-.237-1.08c-.258-1.036-.387-.064-.043-1.468-.086-.605.216-.475.84-.648l.324-1.08-4.482-6.176c-1.335-1.879-3.037-4.039-4.309-5.81-1.637-2.288-2.283-5.16-3.576-7.688-.603-1.166-1.357-1.943-2.068-3.001-.388-.562-.69-1.102-1.035-1.555-.366-.475-.689-.756-1.098-1.383 1.163.368 2.176 2.44 3.102 3.52.13-.626.151-.41-.323-1.597-.84-2.074-.905-2.786-2.456-4.644-.41.519-.991 2.592-1.185 3.477-.172.778-.216 1.296-.237 2.074 0 .54.237 1.943-.28 1.058.15-.929.021-1.814.15-2.873.432-3.908 1.617-4.038.151-5.895-.689-.886-1.228-1.728-2.046-2.095-.345.713-.259.95-.474 1.77-.905-.647.41-3.498.474-4.6.064-.97-1.293-3.93-1.508-4.837 1.939-.496 1.012.519 2.499.713.517.065.237.086.926-.173l-.97-2.44c.776.13.389-.367 1.164.993.431.735 1.573 4.6 1.874 5.55-.258.39-.172.217-.323.346l-.409.389c.69 1.879 1.077 4.06 1.702 6.111.625 2.095 1.594 4.233 2.24 6.22l.238-1.62s.021-.13.043-.194c.646.583 2.197 5.507 2.456 6.738l-.065-.043Zm49.704 23.043c1.034-.41.086.605-.064.734.301.065.732.087.991.13.754.15.409.108.775.302-.991.28-1.486.087-2.542-.108-2.262-.41-1.53-.216-2.176-.82 1.594-.087 1.508.237 2.952.496l-.13-.302c-1.228-.108-1.012-.41-2.197-.713-3.103-.799-12.195-1.857-15.857-2.224l-9.028-1.231c-4.007-.346-7.454-1.75-8.855-1.793-.43-.172-.474-.13-.732-.648.754-.518 1.099-.13 3.382.54 1.142.346 2.284.605 3.47.821 1.249.216 2.218.324 3.619.497 3.382.41 7.282 1.144 11.052 1.511l7.713.735c.668.086 1.121.302 1.982.475.668.13 1.272.302 1.939.41 1.746.26 2.349.389 3.706 1.188ZM67.371 33.258c-.797-.108-.366.086-.99-.54.646.086.495 0 .99.54.733-.13-.086-.518.97.216.302.216.366.389.625.713-.927-.087-.84-.13-1.616-.907l.021-.022Zm-5.946 26.477.366-.173c.345-.67.043-.28.517-.864.259.82.087.8-.215 1.447l-.668.346c-.28 1.015-1.163 4.794-1.206 5.723-.065 1.23.387 1.317.797 1.879-.367 1.576-.431 2.764.388 4.535.107-.195.107-.26.236-.475l.28-.54c-.107-.584.302-4.968 1.293-6.069.065.778-.732 4.708-1.12 5.723 0 .043-.065.13-.086.173 0 .043-.065.108-.087.173.324 1.339-.646 3.217.173 4.21.043-.064.13-.085.108-.194 0-.043.538-3.541 1.12-4.34.345 1.144-.108 1.576-.474 4.34-.259 1.966-.453 2.678 0 4.86-.582.064-.15.064-.582-.065-.086-.972.065-1.102.086-1.836.108-2.462-.43-1.75-1.142-2.527l.216-3.455c-.646.216-.302.194-.754.086-.065-1.468.15-2.829-.172-4.103l-.604-.216-.194-.065c-.107-1.101.216-1.252 0-2.03.151-.367.044.087.216-.626.064-.324.366-5.334 1.53-5.896l-.022-.021Zm4.89 20.02c-.129-.713-.301-.173-.02-.93.085.066.365-.366.3.368-.129 1.75.453-.519-.28.561.432 1.08-.473 3.758-.753 5.119-.194.885-.539 4.362-.453 5.593-.754.972 0 .173-.603-.194.086-.195.862-6.155.797-6.89l.15-.431c.583-1.88.238-2.398.863-3.197Zm-20.1-53.861c.538-.216 0-.454.947-.043 0 0 .474.518-.732.172-.043 0-.13-.086-.216-.108-.797.41-1.034.475-1.96.216.172-.194-.776-.15.797-.432.215-.043.474-.043.668 0 .732.108.258.087.517.216l-.022-.021Zm40.353 70.662c-.043 1.08.043.713-.431 1.404-.043-.454-.194-.108-.022-.67.345-1.209-.107-.086.474-.734-.15-1.101.474-2.85.754-3.866l1.013-3.973c-1.465 1.296-.711 2.332-1.487 3.174-.387-1.08-.021-1.533.367-2.44 1.034-2.332 1.12-1.058.883-2.527-.776.691-.97 1.296-1.314 2.138-.431 1.102-.043 1.21-1.013 2.311.043-1.922 1.616-3.736 1.25-4.967-1.853 1.08-1.896 7.321-2.65 8.314-.086-2.094.194-4.794 1.099-6.63.387-.82.624-1.101.84-2.116-.603-.82-2.78-2.246-3.663-3.002-1.099.864-2.111 3.348-1.917 4.773-.065-.043-.862.108-.539-1.447.108-.518.323-1.015.517-1.512.41-.993 1.4-1.9.582-2.7-1.077.95-.366 1.988-1.788 3.52.021-1.079.301-1.662.668-2.57.344-.885.646-1.23.107-1.813-1.099-1.425-.517-.82-.258-1.296l.754 1.166c.301-.756 1.034.497-.28-1.188-.668-.863-2.306-2.073-2.995-2.634.28-.432-.797-.26.668-.346 1.034.843 1.637 1.34 2.607 2.246 2.176 2.009 1.422 1.404.69 2.181 1.206 1.404 6.657 4.881 8.639 6.35.775.583 1.745 1.555 2.65 2.246.474.367 1.055.799 1.443 1.101l4.158 3.218c.82.518 4.913 2.224 6.27 2.44-2.973-2.57-4.438-.993-5.753-3.153 1.358 0 4.094 1.9 7.153 2.743 2.65.713.69.799.733 1.037 1.357.323 3.835 1.058 5.084.95l1.164.583c3.016 1.144 2.348.41 3.361.259.862-.108 1.357.648 2.025 1.08.991.626 1.293.345 2.155.82l.452 1.016c.539.647 1.702.669 3.081 2.008-1.616.237-4.826-2.894-9.631-4.125l-6.334-1.576c-.517-.13-.883-.152-1.4-.195-2.607-.237-1.336-.648-2.952-.475-.172 1.037-.409 2.052-1.53 2.98 0-.086.087-.129.065-.259l.108-.497s.043-.15.064-.237l.948-2.397c-1.4-.043-.711.021-1.788-.67l-5.214-2.7.56 3.413c-.15.216-.409.41-.538.583l-.086-.626c-.733-4.903-.84-4.19-3.835-6.717-.647-.54-1.465-1.123-2.176-1.403-1.013 1.576-1.078 2.31-1.53 4.038-.215.778-.495 1.21-.668 2.073-.237 1.123.172 1.62-.345 2.42-.021 0-1.12.453-.344-2.506l.69-2.484c1.27-4.492 2.39-3.325 1.27-4.621-.818.82-2.391 7.558-2.865 8.552v-.065ZM79.48 95.26c.129.994.107.778-.302 1.685.13.648.215 9.718 1.917 11.467.388-1.231-.387-1.684-.323-3.109.668.367.819 1.662.991 2.397l.237.842c.237.929.237.734 1.078.929l-.453-.972-.366-.972-.388-.907.754-.087-.43-3.196c-.432.994 0 1.361-.389 2.311-1.53-1.792 1.1-8.962-.689-9.74l-.216 3.801c-1.055-2.138.518-3.434-.775-5.701-.668.712-.302.475-.668 1.23l.022.022Zm35.872-42.803c1.594-.238.495-.367 1.228.453-.647 0-.927.173-1.228-.453ZM50.717 97.204s.797-.475.173 1.404c-.28-.756-.345-.756-.173-1.404Zm-15.9-24.879c-.28.929-.13.735-1.056 1.49.13-.41-.387-.496 1.056-1.49Zm68.125-.799c-1.077-.561-.409.022-1.207-.864.905.13.948.108 1.616.735 1.013.54.625-.195 1.336.799-.668 0 .108.194-.819-.173-.538-.216-.581-.28-.905-.497h-.021Zm30.4-10.43.215.367c.496.302 1.465.69 1.939.669l-1.336-1.555-.818.518Zm-84.24-35.094c.926-.367.969-.346 1.594.15-.711.282-.991.303-1.595-.15Zm37.315 26.045.517-.216c.474.928.69.647.69 1.382-.712-.324-.496-.26-1.207-1.166Zm27.965-16.759-1.12.216c.215-.432-.819-.173.668-.648.732-.238.646-.022.797 0 1.896-.756 6.356-1.274 8.273-1.425 1.142-.087 4.331-.065 5.688.13.323.042.582.042 1.013.129l.991.367c-.173.194.754.389-.647.453l-2.973-.54c-3.964-.345-9.006.152-12.69 1.34v-.022Zm-71.27 70.511c.237 1.685-.194 1.469-.582 1.879 0 .972-.56 2.635-.926 3.412-.323.67-.69.778-.991 1.512-.56 1.317.258.475-.862 1.512.086-1.382 1.551-5.032 2.78-6.436.042-.518.042-.821.193-1.231.259-.777.15-.324.41-.626-.087-.799-.022-.713.107-1.49.172-1.123.043-.821.56-1.166-.043 1.058-.15 2.051-.668 2.634h-.021Zm17.796-1.576c.732.129.301-.173.991.453.194.173.625.799.84 1.037-.883-.432-1.228-.41-1.831-1.49-.496-.389-.84-.411-1.444-.886l-8.962-7.58c-3.878-2.635-5.731-4.017-9.135-7.407-2.262-2.268-7.24-7.386-7.606-10.906.82.518 1.336 2.289 1.789 3.174.69-.324.021-.496.905-.54l3.059 3.823c-1.487.086-.797-.303-1.982-1.037 2.564 4.103 7.239 7.45 8.424 8.811.107-.518.237-.172-.086-.907-.323-.712-3.404-2.591-3.9-3.282-.495-.691-.28-.843-.258-.886 1.034.627 1.723 1.512 2.391 1.922l1.056.454c-1.1-2.872-2.607-6.328-3.189-9.502-.108-.584-.13-.886 0-1.426 1.853 4.838 1.013 6.89 4.632 12.548.84 1.317-.215-.432.173 1.447.474.755 3.791 1.338 3.813 1.338.948 1.34 1.767.519 4.481 3.866-1.53-.324-3.447-3.023-5.71-3.326 2.242 2.03 7.477 5.464 9.89 8.509l1.702 1.771-.043.022Zm11.677-67.747c1.078-.173 1.078-.195 1.702.583-1.012.216-1.099.173-1.702-.583Zm55.241 22.61c.776.627 1.013.865 1.422 1.945-.431-.238-.625-.281-1.056-.907-.387-.562-.344-.627-.344-1.037h-.022Zm-64.397 4.925c-.237-1.058-.022-1.145.624-2.095 0 .518.087.842-.107 1.425-.28.864-.065.346-.517.67Zm26.715-20.819c.69-.605 1.228-.928 2.025-.82-.194.302-.43.54-.861.734-.84.345-1.013.13-1.164.086ZM29.108 70.468c.646-.842.926-.864 1.917-1.21-.323.627.819 0-.797.973-.517.302-.754.28-1.12.259v-.022Zm76.031 17.255c.539-.086.518-.086 1.099.043 1.487.281.366-.216 1.228.627-1.422-.173-1.68.259-2.348-.67h.021Zm4.309-55.286c-.452.713-1.4.95-2.262 1.231.41-.971 1.314-1.252 2.262-1.23ZM39.729 99.774c.388-.713.216-.778.754-1.339.022 1.037-.086 2.052-.689 2.699.259 1.534-1.68 7.17-2.973 8.013-.043-1.383.388-.454.646-2.095.366-.303.13.065.388-.562.065-.172.13-.432.28-.734l1.336-4.125c.237-.561 0-.129.323-.518l-.043-1.36-.022.02Zm-7.454-6.22s-.022-.475 0-.518c.086-.432.108-.41.172-.562-.646-.799.086-.475-.754-.324l.086 1.253c-1.099 4.34.453 1.965-.538 7.278-.194.993-.431 1.684-.388 2.505l-.84.842c-.065-1.036.904-3.973.883-5.852l.194-1.188c-.733.583-.496.605-.582 1.317-.237.821.086.562-.581.972 0-.864 1.012-4.837 1.335-6.241.216-.864.173-.562.41-.886-.324-1.252.387-5.14.301-6.068-.172-2.008-.754-1.08.108-2.03l.495 1.447c-.064 1.382-.15 2.203-.258 3.499-.237 2.742 0 1.921.172 2.548.345 1.252 0 .712-.086.928.388 1.253.15 1.944-.237 2.938-.302-.627-.302-.217-.258-1.016.064-.906.107-.54.344-.82l.022-.022Zm11.376-43.58c0-1.016.603-1.75 1.206-2.57.13.54.15.712-.237 1.446-.345.691-.258.54-.97 1.123.173 1.275-1.12 3.564-1.68 4.773-.474.993-1.444 3.995-2.176 4.449-.086-.929 3.146-8.595 3.857-9.243v.021Zm42.594-33.647c1.12-.994 1.874-1.318 2.65-1.383h.258c-1.271.821-1.917 1.577-2.908 1.383ZM73.899 41.659l.108-.713c.086.151.733 1.274.754 1.296.604 1.77.647.561-.301 1.23l-.56-1.813Zm4.59 2.57-.173-.648c.776.28 1.4 1.425 1.465 1.684.28.994.237.346-.13 1.145-.3-.929-.56-1.512-1.162-2.16v-.021Zm-12.69 21.207c.495.972.215 1.555-.862 2.138.064-.95-.065-.194.086-.82.172-.778.302-1.059.776-1.318Zm-.28-11.23c.71.26.452-.021 1.443 1.037.474.496.819.864 1.293 1.382-.733-.13-.173.432-1.487-.95-.732-.756-.646-.497-1.25-1.469Zm13.12 19.631c1.013-.151 2.112.13 2.844.82-.775.217-2.133-.064-2.844-.82Zm17.689-13.865c1.012.26-.087-.518.99.41.108.087.604.757.669.864.624.821 1.034.93.926 1.599l-2.585-2.873Zm-56.9 39.37c-.711.454-.173-.324-.647.734-.194.432-.215.735-.538 1.274-.173-1.468.064-1.49.366-2.548.84.086.41-.864.819.54ZM91.63 66.689c.517-.346.819-.087 1.465-.065 1.508.108.926-.41 2.047.518-1.078.151-2.823-.172-3.49-.453h-.022Zm11.806-49.477c.496-.713 1.746-1.382 2.672-1.08-.819.929-1.918 1.188-2.672 1.08Zm-65.388 8.25c1.443.043 2.219.885 2.995 1.879-.798-.065-2.478-1.34-2.995-1.88Zm86.222 32.977c.797.54.259.302.991 1.641.668 1.188.754.67.582 1.534-.689-.778-1.831-2.138-1.573-3.175Zm1.487-4.514c-1.099.216-2.952.216-3.835-.453.926-.13 3.21-.043 3.835.453 1.379-.388 5.645.216 7.26.39 1.616.15 5.861.086 6.895 1.014l-3.275-.043c-.431-.173.409-.475-.819-.022l.345.735c-1.034.086-1.81-.216-2.865-.39-1.703-.258-3.857 0-5.473-.107-1.012-.065-1.573-.28-2.607-.367-1.96-.173-3.576 0-5.688-.13l-15.814-2.289c-5.86-1.037-6.721-2.181-9.996-3.045L87.43 46.54c-2.543-1.469-2.715-1.361-5.99-3.391l-5.968-3.455c-1.206-.886-4.869-3.11-6.118-3.326-.56-.583-4.697-2.894-5.84-3.564l-6.204-3.11.603-.431 7.735 4.017c6.248 3.131 13.465 8.033 18.96 10.949 1.292.69 3.037 1.922 3.705 1.792 2.8 1.88 9.954 4.773 13.379 5.486l14.371 2.203c2.025.215 8.014.885 9.867.561l-.151-.367-.021.021Zm-66.38 47.965c-.625-.021-.732-.367-1.056-1.058.927.216.28-.043 1.078.605.366.281.862.54.862.561l.71 1.08c-.926-.216.194.54-.883-.302-.215-.173-.538-.627-.732-.886h.021Zm49.79-82.346c1.099-.15 2.586-.021 3.447.627-1.141.216-2.542.064-3.447-.627Zm-66.142 90.337c-.108-.929.15-3.153.818-3.693.259.972-.323 2.98-.818 3.693Zm26.112-72.455 1.314 2.786c-.84-.065-.732.065-1.142-.842-.043-.087-.366-.994-.387-1.037-.108-.756-.302-.26.215-.907ZM38.006 99.32c.194-.583.344-3.001 1.034-3.8.172.777.043 1.317-.13 2.073-.15.626.065.259-.301.928-.323.605-.13.26-.625.8h.022Zm91.587-41.075c.258.237 1.831 2.483 2.197 2.98-.797-.173-.107.28-.861-.367-.711-.627-1.616-1.836-1.336-2.592v-.021Zm-57.31 15.009c0 .928-.452 3.11-1.077 3.736-.021-1.274.173-2.937 1.078-3.736ZM46.99 113.293c.28.842-.474 2.332-1.12 3.088-.13-1.123.172-2.505 1.12-3.088ZM41 105.842c.065-1.015.022-2.31 1.185-3.261.41 1.318.216.67-.387 1.75-.324.561-.13.324-.302.712-.345.756.086.108-.495.799Zm-12.021-5.269c-1.056.885-1.487 1.814-2.823 2.743.366-.864.517-.799 1.12-1.598.173-.238.41-.713.54-.864 1.206-1.469 1.012-.346 1.163-.303v.022Zm-4.633-29.37c0-.865-.194-.066 2.392-1.448.043 0 .323-.172.388-.194.409-.151.43-.086.624-.086-.97.777-1.982 1.814-3.404 1.727Zm85.533-55.978c.56-.885 2.219-1.36 3.232-.993-.474.604-2.456 1.015-3.232.993ZM39.902 105.41c.043-1.036-.065-.107.086-.777.28-1.317.56-2.807 1.271-3.434.065.843-.474 3.132-1.336 4.19l-.021.021Zm16.525-58.978-.862 3.088c-.259-.972.064-3.477.819-4.298.366 1.015.236.108.043 1.21ZM26.135 97.01c1.874-1.707 1.486-1.793 1.874-2.225 1.206-1.339.668-.345.948-.324-.237.54.258-.064-.453.8-.215.258-.495.496-.754.755-.064.065-.689.734-.732.778-.862.648-.56.28-.883.237v-.021Zm93.655-66.452c1.422-.302 3.145-.885 4.395-.475-.452.476-2.822.713-3.684.648l-.474-.086s-.172-.043-.237-.065v-.021ZM26.35 98.802l1.896-2.224c1.142-.886.776-.195.991-.108-.819.734-1.874 2.44-2.909 2.332h.022Zm50.437-55.308c-.582-1.684-.345-.604-.087-1.187.582.69.367.907 1.164 1.922l.387.324.216 1.144c-1.379-.388-.797-.993-1.68-2.203Zm-51.234 58.288c.43-.712 2.542-3.24 2.865-3.455.065.734-.538 1.296-1.077 1.987-.215.259-.517.648-.797.972-1.142 1.231-.883.54-.991.518v-.022Zm35.312-34.553c0-.67.215-1.512.28-2.354.15-1.771.345-1.599.926-2.095.043 1.101-.754 3.909-1.206 4.449Zm10.45-27.212c.128-.928-.949-.302.322-.863l2.025 3.39-.818-.108c-.603-1.166-.603-1.835-1.53-2.419Zm-6.68 43.625s-.13.172-.15.194c0 0-.108.065-.108.13 0 .086-.087.086-.13.15.13.713-.064 3.758-.69 4.277l.152-1.987s-.151-.086-.173-.108c-.99-.691-.56-2.462-.237-3.023l-.194-3.002c.087-.864.108-1.62.238-2.29.086-.388.172-.712.258-1.166.194-.928-.172-.432.496-.971.387 1.295-.56 3.757-.647 5.398v1.49c-.043.41-.086.39-.172.562l.883 1.015s.065-.108.086-.173c-.15-.885.323-4.146.991-4.837.388 1.296-.624 2.786-.603 4.362v-.021Zm47.808-51.529s.151-.064.151-.172l.84-.454 3.361-.561c-.129.28.668.194-.819.67l-2.822.517c-.582.044-.452 0-.732-.021l.021.021Zm-68.836 78.912c.108-.388.087-1.662.82-3.001.452-.799-.173-.216.732-.691.043 1.015-.345 1.49-.884 2.764-.43 1.015.13.216-.69.928h.022ZM27.277 88.09c-.108-.928.947-1.943 2.11-3.52-.236 1.793-1.206 1.167-.322 2.376-1.271.54-.948.756-1.81 1.166l.021-.022Zm-1.142-12.223c.603-.691 3.188-2.008 4.18-1.987l-.82.756c-.797.475-2.606 1.274-3.36 1.231Zm17.106-6.414c.043.929.56 4.578.302 5.399-.13-.13-.173 0-.302-.389-.194-.604-.388-3.26-.258-4.103.129-.777-.086.216.086-.454l.172-.453Zm39.901 5.485a7.786 7.786 0 0 1 2.24 0c1.617.195 1.574.281 1.961.713-.689.13-1.4 0-2.046 0-.948-.065-1.444-.13-2.155-.67v-.043ZM74.244 17.19c.216-.518-.56-.388 1.875-1.533.861-.41 1.594-.648 2.456-1.08-.668 1.037-3.21 2.095-4.33 2.614Zm48.476 41.227c.754.367-.065-.648.862.8l1.4 2.18c1.056 1.642.431.67.302 1.296-.84-1.317-2.004-2.634-2.542-4.276h-.022Zm-99.15-14.34c-.3.13-.516.26-.861.325-.754.15-.086.323-.668-.108 2.068-1.08 1.767-.691 3.576-2.074.56-.432-.15-.13.56-.388.604-.216.41-.044.69 0-.732.885-2.09 1.62-3.275 2.267l-.021-.021ZM73.168 71.44c.71.194-.108-.519 1.486 1.23.582.649.884.67.776 1.448-.797.043-1.336-.713-1.982-1.706-.452-.691-.28-.735-.28-.972Zm-32.662-.41c.388.885 1.271 4.621.991 5.7-.603-1.662-1.422-4.232-.991-5.7Zm-11.29-19.718s-4.89 2.203-5.386 2.354c.797-.993 2.629-1.641 4.288-2.354 1.077-.453.452-.453 1.12 0h-.021ZM12.11 71.353c.172-.453-.582 0 .775-.755l3.577-2.074c0 .843-.948 1.188-1.702 1.663-.819.519-1.638 1.145-2.65 1.166Zm80.75-18.637-.194-.82 1.465 1.857c0 1.555 1.422 3.196 2.176 4.47-.474-.237-.388.086-1.077-.972-.302-.475-.539-.907-.819-1.404-.69-1.209-.99-1.9-1.551-3.131ZM71.55 20.603c-.603.777-.926 1.339-1.508 2.31l-.97 1.685c-.107.13-.689.626-.84.777-.13-1.49-.43-.345.431-1.62.582-.863 2.198-2.59 2.909-3.13l-.022-.022ZM27.104 45.978c.41-.756-1.056-.173.862-.67 2.09-.54.56.13 2.8-1.144 1.358-.778.82-.346 1.293-.173-1.508 1.382-3.016 1.75-4.976 1.987h.021Zm-14.22 23.26 4.374-2.7c1.25-.432.603-.108.97-.022-.453.583-2.629 1.641-3.77 2.332-1.552.929-1.186.497-1.574.39ZM58.41 60.77l-.388-2.915c.258-.562.215-.626.41-1.339.193-.778 0-.432.56-1.145.129 2.009-.755 3.866.042 6.134-.538-.173-.107.755-.624-.713v-.022Zm25.595-12.18c-.733-1.058-1.336-1.533-1.034-2.462.323.195 2.585 3.801 2.908 4.579.28.69.259.216.022.777l-1.918-2.894h.022ZM67.048 68.654c.173.972.13.885-.108 1.706-.818 2.743-.344 4.298-1.141 5.162-.216-1.34.129-2.16.323-3.564.108-.756.28-.842.366-1.555.15-1.166-.215-.885.56-1.749Zm58.753-54.293c1.099-.13 1.917.087 2.973.022.517-.022 1.099-.194 1.573-.173.625.022.345.195 1.293.216-1.573.67-4.46 1.058-5.839-.065ZM16.741 62.478l6.033-3.37c1.012-.431.215-.15.689-.064l-5.73 3.542c-.884.259-.303.172-.97-.108h-.022Zm94.323 27.103c1.595-.087.841-.044 1.616.15 3.727.886.366.282 3.814 1.599.043 0 .129.065.193.086l-3.361-.69c-.646-.174-.28-.087-.732-.217-1.422-.41-.668.216-1.53-.928ZM57.31 55.2c.28-.627.302-1.037.388-1.793.108-1.123-.323-.82.775-1.274.173 1.663-1.12 3.326-.581 5.723l-.647-.173c-.086-1.555.367-1.144.065-2.462V55.2ZM28.74 24.339c.194-.324-.301-.454 1.724-.734 1.099-.152 4.481-.303 5.063 0-1.271.431-2.37.54-3.512.41-1.615-.216-1.982.367-3.274.324Zm89.907-5.27-4.05.691c.172-.453.172-.54 1.357-.734.689-.108 1.163-.151 1.831-.28 1.444-.303 2.219-.713 3.318-.173l-1.012.41-1.444.108v-.022ZM97.125 38.96l5.214-3.39c1.486-.519.237-.195.797 0-.819.972-5.02 3.347-6.033 3.369l.022.021ZM107.1 57.1c.603 1.102 2.715 5.226 2.779 6.198-.517-.28-.409-.173-.926-1.317l-1.616-3.283c-.84-1.857-.366-1.274-.215-1.598h-.022ZM76.571 25.483c1.96-.756 3.08-1.058 4.977-1.533 1.206-.302.926-.26 1.616 0-1.767.82-4.956 1.62-6.593 1.512v.021Zm18.55-5.809c.496-1.015 4.094-2.397 5.3-2.095-.668.8-4.029 1.814-5.3 2.095Zm-38.07 84.981-.495-2.182c1.099.108.56.087 1.486.756.798.562.798.497 1.336 1.404-1.228-.065-.926-.108-2.348 0l.021.022Zm50.114-26.045c-.41-.389-.453-.238.021-.454.539.043.884.108 1.573.151 1.68 0 3.318.367 4.546 1.426-1.551.15-1.681-.454-3.275-.734a39.114 39.114 0 0 0-2.865-.39Zm-1.53-.843-.108.39c-1.034.129-2.003-.152-2.908-.238-.668-.065-.862 0-1.422-.151-.927-.26-.668-.087-1.034-.864 1.4.043 3.964.648 5.472.864ZM84.93 83.189c1.487-.259 3.577 1.728 4.395 2.894-1.034 0-3.791-2.073-4.395-2.894ZM70.581 17.903c.065-.13-.193.108.26-.432.042-.043.085-.108.128-.15l.151-.152c.108-.108.603-.518.69-.583 1.141-.8 4.933-2.354 6.075-2.311-1.099.864-2.628 1.21-3.943 1.75-1.68.669-2.132 1.23-3.339 1.878-.13.367.086.087-.258.605-.582.885-.948.626-1.336 1.792-.28.821.301.324-.625 1.231-.172.152-.517.432-.711.519-.603.259-.388.13-.711.064.926-1.036 1.271-1.036 1.659-2.094-1.637-.756-5.278 1.64-6.463 2.483a453.36 453.36 0 0 1-5.602 3.887c.172-.626-.345-.367.97-1.144-.087 0-.173.086-.26 0-.365-.389-.128.043-.473 0-.733-.087-.172.28-.668-.194 2.262-1.123 2.607-1.685 4.266-3.132.776-.691 3.684-2.808 4.718-1.836 0 0 .043.087.086.108 3.706-1.317 1.96-.367 5.408-2.289h-.021Zm-49.423 43.84c-.539.734-5.214 3.65-6.615 4.147.087-.173-.344-.346 1.272-1.253.861-.475 4.976-2.894 5.343-2.894Zm72.584 28.053-.495-.82.668-.173c.732.8 3.339 2.721 3.382 3.477-1.056-.065-.99-.518-1.831-1.166-.646-.497-1.207-.583-1.745-1.318h.021ZM17.387 48.613c.173-.195-.129-.065.517-.497 1.746-1.166 3.685-.95 5.516-1.123-.15.26.452.497-1.056.691-.97.13-1.702-.237-3.253.475-.366.151-.453.303-.754.41-.991.346-.646.109-.991.044h.021Zm9.782 4.405-.237.454c-.647.691-2.22 1.21-3.103 1.62-1.508.712-2.262 1.317-3.447 2.051.302-1.447 5.17-3.434 6.765-4.125h.022Zm59.959-2.332c-.819-1.512-1.81-2.592-1.594-3.585 1.4 1.62 2.607 4.816 3.727 5.853.043.043.13.086.194.13.258.971.258.388 0 .971l-2.327-3.369Zm7.907-2.29c1.379-.302 1.896.26 3.016.735 1.25.518 2.542-.173 2.93 1.21-.969.15-1.12-.195-2.951-.648-1.034-.26-2.026-.778-2.995-1.318v.022Zm-74.782 15.29c-.539.67-6.356 4.342-7.692 4.99.367-.886.216-.735 1.508-1.555l6.184-3.434Zm83.982-13.216c4.546-.194 2.456 0 5.493.238 1.078.086.905-.26 1.767.712-.905.195-6.42-.583-7.26-.95ZM80.708 47.9c-.087-.151-.453-.777-.474-.993-.087-.562.129-.67.215-.907.323-1.08-.108-.367.28-1.166 1.013 1.921 1.745 3.044 2.693 4.664l-.452.087-1.982-3.067c0 1.274.56.734-.259 1.382h-.021Zm38.328 10.95c.345 1.338.668 2.31 1.379 3.584.646 1.166 1.594 2.225 1.723 3.002v.151c-1.098-.777-4.244-5.507-3.081-6.76l-.021.022ZM71.745 25.806c.797-.993 5.817-4.21 6.894-4.535-.624.929-6.032 4.665-6.894 4.535ZM38.221 62.391c0 .8-2.456 4.924-3.533 6.09-.69.756-1.013 1.102-1.508 1.706-.065-1.36 3.038-4.513 3.813-5.83.388-.648.754-1.34 1.207-1.944l.021-.022Zm-7.174-31.228c.064-.777-.216-.864 2.068-1.706.97-.346 2.262-1.037 3.146-.993-.151.28.086.15-.388.496-.948.648-4.223 2.268-4.826 2.203Zm84.477-16.5c.646-.755 2.392-.56 3.404-.56 3.62 0 3.059-.649 3.512.431-1.142.28-5.968.367-6.916.13Zm-77.885 30.56s.13-.109.13-.195c0-.087.086-.13.13-.151.775-.454.796-.108 1.809-.454.71-.237 1.616-.756 2.284-1.144 1.572-.95 2.413-1.9 3.705-2.808-.237 1.944-6.312 5.097-8.036 4.773l-.022-.022Zm11.118 29.37c.581.367.172-.087.818.756 1.465 1.922.388.172 1.444 1.468.28.346.582 1.08.797 1.534.776 1.662.495 1.209.366 1.62-.603-.39-.064.086-.625-.627-.129-.151-.215-.324-.387-.561-1.272-1.577-1.509-1.922-2.413-4.19Zm62.932-15.377 1.271-.13c.302.951 1.25 2.916 1.271 3.715 0 1.037-.15.713-.258.972l-2.284-4.556Zm-52.462 2.527c.108-1.188.388-4.47 1.38-4.989.452 1.318-.453 1.49-.841 4.47-.258 1.945-.582 3.068-.13 4.99l-.624.431.194-2.677c.086-.972-.194-1.296.021-2.246v.021Zm19.024-39.175c.108-.108 7.347-5.378 8.898-5.075-.452.561-8.553 5.097-8.898 5.075Zm-41.516 16.91c-1.573.432-2.478.82-3.167-.691 1.012.237 1.27.863 3.447.064 1.25-.453 1.335-1.922 2.327-1.814-.388 1.08-2.435 3.326-3.383 4.039.043-.886.28-1.015.797-1.598h-.021Zm22.794 3.693c.797.28 1.056 1.49 1.487 2.462.732 1.662 1.206 1.792-.173 2.461-.625-1.403-1.573-3.67-1.336-4.923h.022Zm-30.4 48.57c.108 1.684-5.58 7.73-6.399 8.14.28-1.014 2.478-3.13 3.275-4.08l2.327-3.046c.711-1.058-.043-.518.776-1.015h.021Zm12.432-56.863c1.486-1.059 5.666-6.112 7.864-5.529-.927.886-3.081 1.555-6.011 4.427-2.177 2.117-1.38 1.21-1.853 1.102Zm36.669 4.664c1.336 0 7.002 3.197 7.842 4.169-1.099-.087-7.045-3.283-7.842-4.169Zm-29.28 6.782c-.732 1.015-1.702 5.895-2.068 7.278-.194.777-.215 1.857-.625 2.418.453 1.793-.646 5.27-.861 7.386-.173 1.62-.065 6.673.474 7.818-.345-.108-.41.648-.647-1.728-.28-2.937-.387-2.915-.172-6.025.086-1.469.065-2.332.28-3.693l.43-2.786c.324-1.468-.128-.26.496-.972-.236-1.036.54-4.19.776-5.312l.991-3.866c.474-2.246.862-.54.905-.497l.021-.021ZM20.404 77.249c.28-.561-.647 0 .861-.842l3.75-1.9c1.4-.692 3.533-2.16 4.847-2.484-.84 1.252-3.21 2.116-4.718 2.786-1.444.626-3.34 2.483-4.74 2.419v.021Zm104.104-41.054c.733-.993.302-.67.797-1.49.604-.108 3.254.13 3.663.302-.129.26-.215.994-1.939 1.145-.797.065-1.874.194-2.521.065v-.022ZM94.13 13.303c2.37-1.49 6.054-1.965 8.424-2.16-.258.454.926.562-1.788.821-1.918.195-5.666 1.49-6.636 1.318v.021ZM33.072 48.375c-1.379.583-3.038.929-4.805 1.771-1.68.8-3.274 1.857-4.998 2.419.474-.8 1.12-.929 2.112-1.447a71.014 71.014 0 0 1 2.477-1.296 26.37 26.37 0 0 1 2.78-1.21c.926-.323 1.939-.863 2.434-.237Zm76.032 9.33c.646.41.689 1.274 1.077 2.203 1.185 2.807 2.478 4.081 3.835 6.198-.948 0-1.099-.173-1.638-1.102-.452-.799-.947-1.598-1.4-2.419-.754-1.339-2.004-3.477-1.896-4.88h.022Zm-13.81-3.952c1.465 1.317 3.059 5.377 4.028 6.846l1.142 1.77c.151.454.065.41.043.605l-.323-.302c-.84-1.102-4.61-7.537-4.869-8.401-.194-.67-.086-.13 0-.518h-.022ZM46.192 71.699c.474.454.28.065.495 1.058 1.4 6.717 1.767 4.6 3.986 9.394-.237-.15-.065.044-.538-.388-.905-.82-2.198-3.304-2.672-4.341-.883-2.008-1.099-3.8-1.271-5.723Zm8.445-40.579c.022-.691-.086-1.469-.495-2.138-.776-1.317-.108-.28-.647-.648-1.292 1.317.108.907-.646 2.117-1.271-1.275-.323-2.614 1.314-3.132.668.713 2.026 3.758.324 4.86-.151-.714-.173-.433.15-1.037v-.022ZM43.931 44.64l-.237.625-2.263 1.642c0-1.296-.689-.216.862-1.382.948-.713.733-.648.991-1.145-.732.41-1.25.713-1.874 1.188-.194.15-.582.475-.754.583-2.09 1.101-.496.367-1.185.151l4.589-3.369s-.043.453-.043.518v.26l-.043.928h-.043Zm44.834 31.033c1.1-.087 5.257.41 6.852.583 1.228.13 1.53-.173 2.563.626-1.939.194-3.037-.065-4.804-.28l-3.555-.173c-1.228-.26-.474.086-1.034-.756h-.022ZM55.07 101.394c.237.259.496-.562.216 1.231-.13.842.28 3.714.366 4.859.13 1.533.883 5.053.15 6.479-.3-1.383-.58-7.062-.84-9.546-.064-.583-.064-.993-.107-1.533-.086-1.231-.302-.67.215-1.49Zm-32.705-50.88c.086 1.576-1.099 2.332-2.391 3.368-2.24 1.75-1.358 2.505-2.413 3.542-1.314-1.922 2.585-4.427 3.36-5.27.669-.734.733-1.209 1.444-1.62v-.02Zm8.704 16.304c.474-1.015-.043-1.49 4.223-2.764l-1.142 1.447c-.905 1.036-5.127 3.131-6.334 3.628l3.253-2.31ZM26.91 55.804c-.323.303-4.632 2.268-5.666 2.873-1.745 1.015-3.641 2.548-5.257 3.347.108-.26.022-.26.302-.583a9.67 9.67 0 0 1 .43-.454c.367-.324.905-.69 1.336-.971.69-.454 1.832-1.102 2.693-1.599l4.568-2.375s.732-.324.754-.346c1.293-.302.388-.108.862.087l-.022.021Zm35.441-21.337c1.896.907-.28-2.224 2.952 2.333.065-.043.15-.065.15-.151 0-.087.109-.13.13-.152 0-.021.086-.108.108-.15l.215-.238s.065-.065.108-.087c.819.8 1.142 1.382 1.487 2.57-.604-.043-1.616-.626-2.198-.972-1.142-.69-2.37-1.9-2.93-3.131l-.022-.022ZM43.866 45.373c.69-.064.495-.367.517.432-2.305 3.197-5.515 3.736-8.596 5.248-.216.108-.539.303-.754.367-1.358.367-.345.13-.84-.065.473-.777 0-.237 1.12-.712 3.705-1.555 5.86-1.879 8.553-5.291v.021Zm77.561 13.584c1.573 3.326 2.93 4.708 4.697 7.494-.086-.021-.172 0-.237-.086-.065-.087-.172-.065-.237-.087-.991-.583-.237-.345-1.551-.971-.409-.195.043.54-.797-.627-.216-.28-.517-.95-.733-1.296-1.853-3.153-.797-1.49-.905-3.088-.043-.67-.258-.54-.237-1.317v-.022ZM22.106 96.06c1.098-2.289 0-.453 2.111-2.634.733-.778 1.487-1.49 2.198-2.246 2.973-3.175 2.585-4.125 3.533-4.816.086.799-.15.864-.69 1.792-.797 1.382.108 1.145-.258 2.397-.194.713-1.034 1.598-1.745 1.598-.13-1.058.517-.993.883-2.18l-6.032 6.09Zm10.169-38.203c.517-.454 3.145-1.512 4.223-2.246 1.228-.842 2.607-1.9 3.382-2.786-.086-.367-.345-.432-.625-.713l2.392-2.094c-.086.755.538.13-.927 1.49l.324 1.36c-2.5 1.9-4.654 3.758-7.735 5.032-1.465.605-.646 0-1.034-.043ZM23.679 44.79v-.475c2.11-.842 2.413-1.62 4.567-1.512h.215c1.961.087 1.12-.647 2.413-.518-1.378 1.836-4.265 2.181-5.73 3.024l-.518-.41-.172-.087c-.366-.13-.302-.087-.776 0v-.022Zm27.965 78.761.323-.712c-.474-.605-.883-.26-1.013-1.771-.086-1.059-.13-1.404-.345-2.484-.28-1.468-.818-3.671-.797-5.032.043.043.345-.561.797 1.814.388 1.987.948 4.535 1.1 6.306 1.184-1.274-.604-1.231 1.012-2.57.215 1.447-.323 3.542-.474 5.011-.194.518-.172.496-.603.972v-1.555h-.022l.022.021ZM31.327 79.15c.495-.735.021-2.246.883-3.845.259-.496-.043-.043.388-.583-.194 2.182-1.465 4.363-.086 6.954.388-.604.258.432.28-.799 0-.367-.172-.777-.237-1.123-.259-1.123-.13-1.274-.172-2.18l.258.237.108.108c1.314 1.08 1.422-.065 1.357 3.326-.021 1.64-.517 0 .13 1.749l-.647.345c-1.745-2.116-1.659-.993-2.24-4.168l-.022-.021Zm-3.749-12.828c.28-1.145 1.68-.886 4.74-3.11a48.886 48.886 0 0 0 4.309-3.499l-.905.065c-.883.151.388.238-.71.108.775-1.058.688-.367 1.421-1.512.345-.518-.495-.043.646-.799 1.552-1.036.82-.28 1.12-.28-.387 1.511-.646.323-.409 2.289-.84.647-1.25 1.209-2.111 1.9-1.163.929-7.002 4.924-8.058 4.88l-.043-.042Zm-5.73-23.691c.84-2.095 5.148-3.024 7.13-3.002.948 0 2.263.497 3.34.648 1.336.172 2.37-.108 3.124 1.425-1.594.216-.194-.065-3.253-.583-3.663-.648-2.327-1.166-6.744-.043a6 6 0 0 0-1.788.777c-.776.518-.754.929-1.767.778h-.043Zm80.232-23.8c.323-.885-.237-.302.646-.798l3.383-1.123c2.779-.713 9.049-2.44 11.634-1.577-.215.26.733.281-1.443.454-2.069.172-3.814.172-5.817.734-2.176.605-6.701 2.591-8.403 2.29v.02Zm-43.434 5.443c1.68-.777 1.465-.864 2.758-1.922a6.654 6.654 0 0 1 1.357-.886c1.163-.604 1.099-.388 1.659-1.187-3.275 1.252-4.158 2.138-5.645 3.8-.043.044-.086.109-.15.173l.02.022Zm37.552 63.687c.539.345.496.367 1.293.497 2.068.367 1.142-.324 1.25-.519-1.207.195-1.4-.172-2.521 0l-.022.022Zm4.115.497c-.28-.13-.215-.173-.624-.216-.604-.087-.237 0-.625.086.258.41.69.237 1.228.13h.021ZM54.315 34.165l.948.108-.625-.907c-.517-.108.474-.626-.84.086l.323.583.194.13Zm-.258.713-.69-.475c-.344-.821-.021-1.08 0-1.037.043.043.086-.151.108-.216l-.991-.648c-1.982-.022-1.831-1.533-2.327-3.196.431.28.323-.238.754 1.576.453-.971.603-.388-.086-2.267l.086-.994c-1.68-.388-3.792-.302-5.537-.15-4.998.431-1.939-3.305-10.234-2.42-1.81.195-5.407 1.793-6.054 1.793-.517-1.102.56-2.246 1.66-1.9.387.108-.604.086.43.108l4.546-.908c6.593-1.015 4.675 2.614 10.492 2.333 1.638-.087 3.663.453 5.58.367-.107 1.49-.689 1.123-.086 3.153.431 1.425 1.293 1.836 2.047 2.786l1.444-.41.236.604.173.519.366 1.814c-1.508-.778-.452.108-1.939-.454l.022.022Zm-1.94-1.469c.69-.302.324-.259.582.108-.107.324-.043.324-.107.691-.604.778-1.056 1.771-1.595 2.7l-3.49 8.033-3.102 7.689c-.237.626-.431 1.274-.711 1.835-1.358 2.635-1.185 2.851-2.435 5.766-.582 1.34-1.293 2.311-1.853 3.672-.775 1.922-6.01 9.265-7.153 10.323-.387-1.404 3.857-6.328 5.236-8.38.41-.604.41-.755.754-1.382l2.564-5.096c.775-1.9 1.357-3.866 2.154-5.27l4.395-10.474c1.228-3.131 3.232-7.148 4.762-10.236v.021Zm17.581 26.369c.647.13 3.275 3.002 6.097 4.73 1.638.993 5.473 2.354 7.476 2.116-1.034-.929-1.206-.41-2.456-.907l-.97-.562c1.207.173 4.698.454 5.516 1.167-.732.67 0 .043-.71.302-.776.28-.54.086-.798.41 7.498.151 8.92 0 15.405 2.786.861.367 3.921 2.333 4.438 3.002-.819.151-.539.151-1.228-.065L99.43 70.9c-2.478-1.145-2.478-.95-4.18-1.663-6.808-2.807-14.22 1.836-24.26-7.494-.495-.453-1.335-1.23-1.292-1.987v.022Zm-10.73-31.617c-1.313-1.188-.3-.345-.193-.82 8.402.561 6.7.82 15.405-.67 2.994-.518 5.58-1.188 8.574-1.965 2.284-.605 6.205-3.542 8.554-3.261l-4.245 1.792c2.607-.41 5.925-1.878 8.51-3.023 3.728-1.663 4.827-.626 7.584-.043 5.559 1.21 8.855 1.684 15.556-.691-1.595 1.339-6.119 2.613-8.08 2.613-2.348 0-4.395-.324-6.657-.864a73.786 73.786 0 0 0-3.296-.734c-3.728-.713-7.046 1.792-11.764 3.174-6.355 1.836-16.826 4.816-23.139 4.881-2.262.022-4.89-.691-6.787-.41l-.021.021Zm68.126 26.196c.818.432-.431.346.904.303-.775-.562.108-.454-.904-.303ZM104.665 96.73c.733.54.281.41 1.229.302l-1.229-.302ZM57.353 38.44c.065.13.15.086.215.151l-.71-2.051c-.862.777-.82.064-.992 1.339.345.064.237.215.992-.39.28 1.124.344.649.495.93v.021Zm-.388 1.382c-.237-.69-.15-.648-.754-.993-.043.648-.732-.367.194.734.108.13.431.194.56.26Zm-.301.648c-.431 1.145.71 2.354 1.335 2.786.043-1.469-.538-1.598-1.335-2.786Zm-1.552 1.9c.517.454.474.238 1.142 1.102l2.65 3.736c.56.648.13.13.453.367-.711-2.246-.345-1.814-1.638-3.606-.625-.886-1.292-2.635-2.197-3.11l-.388 1.511h-.022Zm13.574 23.821c.043.993.56 1.058.775 1.21 0-.217.474.258-.15-.713-.582-.95-.54-.432-.647-.497h.022ZM27.363 30.386c.84-.065.69 0 1.357.086l.754-.734c-.474-.216-.172-.302-1.034-.13-1.207.238-1.056.67-1.077.778ZM14.09 53.516l.366-1.124c-.732.497-1.12.864-1.292 1.75l.905-.627h.021Zm-4.89 6.327s.064-.13.02-.216l-.28-.41s-.883.647.26.626Zm-6.4 23.54c.54-.8 1.164-1.62 1.401-2.614-.625.39-.733.39-1.099 1.059-.474.842-.366.971-.28 1.554h-.021Zm-.969 1.295c.13-.345.194-.496.323-.885.28-.886.216-.216.194-1.274-.452.69-.69 1.123-.862 1.749l.345.41Zm1.94-.82 3.51-3.65c-.193-.043-.042-.626-1.12.345-.215.195-.732.843-.947 1.102-.776.864-1.164 1.317-1.422 2.203H3.77Zm-1.94.82c.69 1.059-.065.26.776.843 1.055-.584.409-.324.495-.713-.97-.41-.28-.28-1.25-.151l-.021.021Zm19.218 6.933c-1.228.777-1.508 1.468-1.982 2.31 1.099.173 1.788-1.598 1.982-2.31Zm-8.898 10.063c1.379-.842 1.573-.842 1.81-2.18-.797.647-1.551 1.295-1.81 2.18Zm40.095-.129c-.345.497-.754-.367-.15 1.058.43-.821.193.108.15-1.058Zm-16.008 12.893c.086-.972.065-.713-.237-1.577-.302.907-.517.842.172 1.879 0-.086.044-.216.065-.281v-.021Zm.883.302-.366-.324c-.065.173-1.012-.065.366.929.065-.281.151-.13 0-.605Zm47.14-16.37c-.409.713.151.518.237.605.044-.389.173-.324-.236-.605Zm-31.735 6.933c0 2.31.711 6.435 1.616 8.724.172-.496.41.259 0-1.641-.711-3.347-.97-8.142-1.25-9.524-.086.864-.366 1.231-.366 2.441Zm25.552-1.469c-.41-1.425-.301-.497-.56-.713 0 .67 0 .994.41 1.75.042-.13.387-.152.15-1.015v-.022Zm-36.41 16.219c.323.842-.496.604.387 0v-.065c-.021-.54-.452-.022-.41.086l.022-.021Zm47.657-18.789.086.194c.624.303.043-.367-.087-.194ZM46.43 119.362c.452-.692.41-.087.172-1.102-.56.821-.366.173-.172 1.102ZM84.5 99.256c-1.4.863.15.54-1.056 1.555-.367-1.62.517-1.75-.819-3.585-1.896 2.397.108 5.485.172 6.716.044 1.037 0 1.49.56 2.548.776-2.634-.323-1.576 2.802-3.153l-2.177-1.641c2.09.022 1.66 1.62 3.642 1.101-.82-.82-1.509-1.166-2.478-1.468l.668-1.015s.043-.518.043-.583c-.323-1.296-.776 0-.905.216-.431.734.797.086-.539.756l.087-1.447Zm32.489-10.15c.323.215.539.453.905.647.84.432.259.087.991.324 1.4.475.97.994 1.594.044-.474-.39-.775-.368-1.766-.692-.496-.15-1.034-.194-1.724-.324Zm3.814 2.44c.517.28.84.173 1.637-.108-.259-.324-.474-.886-1.077-.756-.69.151-.539.82-.539.842l-.021.022ZM99.15 103.683c.646.972.754.82 1.68.842-.409-.605-.193-.475-.797-.734-.883-.367-.129-.108-.905-.108h.022Zm2.607.065c0 1.144-.151.583.495 1.339 1.509-.562.388-1.383-.495-1.339Zm24.798-1.296c.668.928 1.4 1.706 2.327 2.224-.884-1.771-1.185-2.095-2.327-2.224Z" clip-rule="evenodd"/>
  </g>
  <defs>
    <clipPath id="a">
      <path fill="#fff" d="M0 0h146.526v128H0z"/>
    </clipPath>
  </defs>
</svg>
