<svg xmlns="http://www.w3.org/2000/svg" viewBox="0 0 19 567" fill="none">
  <path fill="#F2E8DE" fill-rule="evenodd" d="M0 567h9.056c-.053-2.493-.026-4.418.018-4.418 2.104 0 3.593-14.944-.304-14.944 1.23 0 1.054-2.878.86-6.019-.231-3.77-.486-7.919 1.643-7.919.303 0 .184-2.52.045-5.462-.195-4.134-.43-9.103.408-9.103-.53 0 .758-2.892 2.153-6.026v-.002c1.652-3.708 3.453-7.756 2.576-7.756 2.62 0 2.1-14.758 1.988-14.758-.739 0-1.276-3.966-1.796-7.808-.489-3.609-.963-7.109-1.575-7.109-.498 0-.416-2.678-.321-5.733.125-4.061.27-8.789-.898-8.789.162 0 5.849-15.829 3.028-15.829-1.608 0-2.662-5.345-3.446-9.317-.463-2.348-.832-4.216-1.164-4.216-1.709 0-4.917-3.551-5.92-4.66-.185-.205-.295-.327-.306-.327 2.937 0-.94-12.312-3.527-12.312-1.542 0 5.585-14.32 6.07-14.32-.406 0-.73-.478-.99-1.265-.544-1.606-.847-4.498-1.129-7.198-.347-3.319-.664-6.349-1.361-6.349-.225 0 1.704-5.632 3.315-10.108 1.037-2.869 1.56-5.922 1.589-9.005.033-3.827.532-9.419.624-10.137.354-2.76-4.762-8.119-8.587-12.111 3.825-3.992 8.94-9.351 8.587-12.111-.092-.718-.591-6.31-.624-10.137-.03-3.083-.552-6.136-1.589-9.005-1.611-4.476-3.54-10.108-3.315-10.108.697 0 1.014-3.03 1.361-6.349.282-2.7.585-5.592 1.129-7.198.26-.787.584-1.265.99-1.265-.485 0-7.612-14.321-6.07-14.321 2.586 0 6.464-12.311 3.527-12.311.011 0 .121-.122.307-.327 1.002-1.109 4.21-4.66 5.919-4.66.332 0 .701-1.869 1.164-4.217.784-3.972 1.838-9.316 3.446-9.316 2.82 0-2.866-15.829-3.028-15.829 1.168 0 1.023-4.729.898-8.789v-.001c-.095-3.055-.177-5.732.32-5.732.613 0 1.087-3.5 1.576-7.109.52-3.842 1.057-7.808 1.796-7.808.113 0 .631-14.759-1.988-14.759.877 0-.924-4.046-2.575-7.755v-.002l-.002-.001c-1.395-3.134-2.681-6.025-2.152-6.025-.837 0-.603-4.97-.408-9.103.139-2.943.258-5.462-.044-5.462-2.13 0-1.875-4.149-1.643-7.92.193-3.14.37-6.018-.86-6.018 3.896 0 2.407-14.943.303-14.943-.126 0-.112-15.471 1.483-15.471-.624 0-5.083-13.329-4.257-13.329.888 0 .825-7.864.79-12.282v-.002c-.014-1.724-.024-2.923.029-2.923a.242.242 0 0 1-.097-.02.46.46 0 0 1-.167-.138c-.393-.484-.687-2.035-.872-3.952-.416-4.338-.268-10.556.627-10.556-.307 0-.207-1.38-.069-3.278.304-4.176.79-10.859-2.487-10.859.855 0 2.15-14.798-.063-14.798-1.203 0-.31-3.87.563-7.652.835-3.617 1.652-7.156.6-7.156.046 0-.037-.605-.17-1.568-.519-3.754-1.788-12.947.969-12.947C5.79 8.488 4.278 4.06 3.248 0H0v567Z" clip-rule="evenodd"/>
</svg>
