<svg xmlns="http://www.w3.org/2000/svg" width="15" height="274" fill="none">
  <path fill="#F2E8DE" fill-rule="evenodd" d="M15 274H3.127c.117-.574.14-1.313.161-2.037.041-1.378.081-2.701.768-2.724-1.303.044-.95-2.95-.752-4.633v-.001c.078-.658.132-1.115.054-1.112-1.78.062-2.028-5.714-.514-5.767-1.432.051-1.302-5.634.628-5.699.328-.013-.122-.907-.671-1.996v-.001c-.856-1.699-1.951-3.874-.704-3.916.134-.005.014-.457-.157-1.104-.432-1.638-1.195-4.527.975-4.604.239-.009.329-5.948-.552-5.917.077-.003.058-.649.033-1.506v-.002c-.049-1.694-.122-4.214.47-4.235-3.7.128-2.456-2.635-1.65-4.427.386-.859.673-1.496.264-1.481 1.033-.035 4.656-5.504 4.283-5.504.188-.006.346-.029.476-.064-.264-.383-.473-.601-.593-.601-.513 0-.282-.616.327-1.557-1.286-1.577-3.765-3.471-4.722-3.762-2.85.015 2.292-7.067 3.21-6.537-.233-.469-.3-1.155-.374-1.911v-.001c-.121-1.246-.261-2.68-1.191-3.637.252-.193.706-1.466 1.17-2.768.498-1.395 1.007-2.823 1.292-2.992-.63-.506-.602-2.071-.577-3.474.022-1.303.043-2.466-.47-2.506-.085.163-.195-1.418-.362-3.809v-.004c-.361-5.186-.988-14.178-2.206-17.475 1.218-3.296 1.845-12.288 2.206-17.474v-.005c.167-2.391.277-3.971.363-3.809.512-.04.491-1.202.469-2.506-.025-1.402-.052-2.968.577-3.473-.285-.169-.794-1.597-1.292-2.992-.464-1.302-.918-2.576-1.17-2.769.93-.956 1.07-2.39 1.191-3.636v-.001c.074-.756.141-1.443.374-1.911-.918.53-6.06-6.553-3.21-6.537.957-.291 3.436-2.185 4.722-3.762-.61-.941-.84-1.557-.327-1.557.12 0 .33-.218.593-.602a2.11 2.11 0 0 0-.476-.063c.373 0-3.25-5.469-4.283-5.504.409.014.122-.622-.264-1.482-.806-1.791-2.05-4.554 1.65-4.426-.592-.021-.519-2.541-.47-4.235v-.002c.025-.858.044-1.503-.033-1.506.88.03.79-5.908.552-5.918-2.17-.076-1.407-2.966-.975-4.603.171-.648.29-1.1.157-1.104-1.248-.043-.152-2.217.704-3.916.549-1.09 1-1.985.67-1.997-1.929-.065-2.06-5.75-.627-5.7-1.514-.052-1.267-5.828.514-5.766.078.002.024-.455-.054-1.112v-.001c-.198-1.684-.55-4.678.752-4.633-.687-.023-.727-1.346-.768-2.723-.045-1.495-.092-3.053-.968-3.088.39 0-1.104-3.254-1.88-4.943l-.002-.003-.003-.008v-.002c-.27-.585-.45-.98-.434-.98 1.767.063 5.325-5.533 3.941-5.581 2.61.09 1.077-5.733.93-5.74-.987-.033-1.122-4.146-1.166-5.506v-.006c-.01-.265-.014-.424-.022-.424-.084-.004.276-.457.788-1.102 1.269-1.601 3.475-4.385 2.191-4.43-4.588-.16-3.346-6.01-.753-5.922-1.196-.04-3.705-6.108-1.682-6.035.769.026 4.862-2.585 6.02-4.278a13.65 13.65 0 0 0-.141-1.291 2.572 2.572 0 0 0-.731-.116c.296.01.519-.048.685-.16-.202-1.103-.536-1.854-.963-1.854-.573 0-.367-1.101.085-2.581-.617-1.05-1.291-1.869-1.601-1.879-.95-.033.12-1.478 1.204-2.942C9.209 1.07 9.634.494 9.942 0H15v274Z" clip-rule="evenodd"/>
</svg>
