<svg xmlns="http://www.w3.org/2000/svg" width="32" height="32" fill="currentColor">
  <path d="M16 21.949c.233 0 .428-.079.584-.236s.236-.352.236-.585c0-.232-.079-.427-.236-.584s-.351-.236-.584-.236-.428.079-.584.236c-.157.157-.236.352-.236.584s.079.428.236.585a.79.79 0 0 0 .584.236zm-.667-4.41h1.333v-8h-1.333v8zM16.004 28c-1.659 0-3.219-.315-4.68-.944s-2.731-1.485-3.812-2.565c-1.081-1.079-1.936-2.348-2.567-3.808S4 17.664 4 16.004c0-1.659.315-3.219.944-4.68s1.485-2.731 2.565-3.812c1.079-1.081 2.348-1.936 3.808-2.567S14.336 4 15.996 4c1.659 0 3.219.315 4.68.944s2.731 1.485 3.812 2.565c1.081 1.079 1.936 2.348 2.567 3.808S28 14.336 28 15.996c0 1.659-.315 3.219-.944 4.68s-1.485 2.731-2.565 3.812c-1.079 1.081-2.348 1.936-3.808 2.567S17.664 28 16.004 28zM16 26.667c2.978 0 5.5-1.033 7.567-3.1s3.1-4.589 3.1-7.567c0-2.978-1.033-5.5-3.1-7.567s-4.589-3.1-7.567-3.1c-2.978 0-5.5 1.033-7.567 3.1s-3.1 4.589-3.1 7.567c0 2.978 1.033 5.5 3.1 7.567s4.589 3.1 7.567 3.1z"/>
</svg>
