<svg xmlns="http://www.w3.org/2000/svg" viewBox="0 0 24 24">
  <path d="M12 16.462c.175 0 .32-.059.438-.177a.596.596 0 0 0 .177-.439.595.595 0 0 0-.177-.438.593.593 0 0 0-.438-.177.593.593 0 0 0-.438.177.595.595 0 0 0-.177.438c0 .175.059.321.177.439a.593.593 0 0 0 .438.177Zm-.5-3.308h1v-6h-1v6ZM12.003 21a8.779 8.779 0 0 1-3.51-.708 9.103 9.103 0 0 1-2.859-1.924 9.072 9.072 0 0 1-1.925-2.856A8.756 8.756 0 0 1 3 12.003c0-1.244.236-2.414.708-3.51a9.103 9.103 0 0 1 1.924-2.859 9.073 9.073 0 0 1 2.856-1.925A8.756 8.756 0 0 1 11.997 3c1.244 0 2.414.236 3.51.708a9.104 9.104 0 0 1 2.859 1.924 9.073 9.073 0 0 1 1.925 2.856A8.756 8.756 0 0 1 21 11.997a8.779 8.779 0 0 1-.708 3.51 9.104 9.104 0 0 1-1.924 2.859 9.072 9.072 0 0 1-2.856 1.925 8.756 8.756 0 0 1-3.509.709ZM12 20c2.233 0 4.125-.775 5.675-2.325C19.225 16.125 20 14.233 20 12c0-2.233-.775-4.125-2.325-5.675C16.125 4.775 14.233 4 12 4c-2.233 0-4.125.775-5.675 2.325C4.775 7.875 4 9.767 4 12c0 2.233.775 4.125 2.325 5.675C7.875 19.225 9.767 20 12 20Z"/>
</svg>
