<svg xmlns="http://www.w3.org/2000/svg" viewBox="0 0 64 20" fill="currentColor">
  <path fill-rule="evenodd" d="M64 .5H35.84v19H64V.5ZM44.734 5.732v8.295c.001.018.002.035 0 .052-.003.047.01.076.065.068a.29.29 0 0 1 .04 0h2.159c.045 0 .067.001.077-.01.01-.01.01-.03.009-.069V5.734l-.001-.01v-.04c.005-.048-.012-.073-.065-.068-.01.002-.021.001-.032 0H44.81c-.039 0-.058 0-.068.009-.01.01-.01.029-.009.068v.039Zm11.699-.115h-3.505l-3.5-.001h-.079c-.04-.002-.053.016-.05.052v2.049c0 .043 0 .064.01.074.01.01.03.01.07.01h2.228c.072 0 .107 0 .125.017.017.017.017.051.017.12v6.135c0 .035-.001.054.008.063.01.01.031.01.076.01h2.133c.067 0 .1 0 .116-.016s.016-.048.016-.11V7.88c-.001-.038-.001-.058.008-.068.01-.011.033-.011.08-.01h2.27c.096 0 .096 0 .097-.095V5.7c0-.042.001-.064-.01-.074-.01-.01-.031-.01-.073-.01h-.037Z" clip-rule="evenodd"/>
  <path d="M18.396 8.937c.4-.728 1.037-1.078 1.657-1.091 1.256-.003 2.078.696 2.302 1.666.136.584.075 1.152-.215 1.682-.342.623-.875.986-1.593 1.067-.693.08-1.299-.115-1.793-.608a2.117 2.117 0 0 1-.59-1.137c-.103-.55-.04-1.084.232-1.579Z"/>
  <path fill-rule="evenodd" d="M28.16.5H0v19h28.16l7.68-9.5L28.16.5ZM12.45 8.612l.13.103a.224.224 0 0 0 .063-.064.821.821 0 0 1 .012-.015l.456-.54.91-1.081c.061-.072.06-.105-.01-.164a7.693 7.693 0 0 0-.167-.139 4.625 4.625 0 0 0-1.61-.87c-.4-.118-.81-.182-1.226-.21a5.54 5.54 0 0 0-1.614.103C7.527 6.16 6.134 7.69 5.97 9.65a4.587 4.587 0 0 0 .134 1.567c.312 1.163.988 2.055 2.06 2.642.585.32 1.219.489 1.885.541.564.045 1.122.011 1.673-.112a5.914 5.914 0 0 0 2.487-1.227.198.198 0 0 0 .082-.172c-.002-.933-.002-1.866-.002-2.8v-.7l-.001-.037c-.002-.027-.004-.054.003-.08.009-.028-.007-.045-.022-.06-.013-.014-.025-.027-.023-.046.004-.033-.018-.038-.044-.038h-3.956c-.016.001-.031.002-.047 0-.04-.003-.052.016-.05.052a.387.387 0 0 1 0 .068V11.136c0 .037-.001.057.009.067.01.01.03.01.075.01l.037-.001h1.556a2 2 0 0 0 .036 0c.043-.001.064-.001.074.009.01.01.01.029.009.066v.449c0 .183 0 .184-.168.264a2.75 2.75 0 0 1-1.544.232 1.984 1.984 0 0 1-1.42-.832 2.206 2.206 0 0 1-.396-1.046c-.059-.486 0-.953.223-1.394.269-.53.675-.91 1.26-1.085.408-.123.823-.09 1.233-.002.372.08.696.26.994.485.11.082.216.167.324.254Zm11.008-1.77a4.672 4.672 0 0 0-3.137-1.227c-.522.001-.911.043-1.325.15-1.199.309-2.137.972-2.76 2.031-.64 1.087-.77 2.252-.413 3.45.4 1.341 1.254 2.316 2.574 2.86 1.014.416 2.064.472 3.124.197 1.23-.32 2.174-1.024 2.792-2.125.521-.927.661-1.922.467-2.96a4.144 4.144 0 0 0-1.322-2.376Z" clip-rule="evenodd"/>
</svg>
