<svg xmlns="http://www.w3.org/2000/svg" viewBox="0 0 19 567" fill="none">
  <path fill="#F2E8DE" fill-rule="evenodd" d="M18.559 0H9.502c.054 2.493.027 4.418-.017 4.418-2.104 0-3.594 14.944.303 14.944-1.23 0-1.053 2.878-.86 6.019.232 3.77.487 7.92-1.643 7.92-.302 0-.183 2.518-.045 5.462.195 4.133.43 9.102-.407 9.102.53 0-.758 2.892-2.154 6.026v.002c-1.651 3.708-3.453 7.755-2.576 7.755-2.619 0-2.1 14.76-1.988 14.76.74 0 1.276 3.965 1.797 7.807.488 3.61.962 7.11 1.575 7.11.498 0 .415 2.677.321 5.732-.125 4.061-.27 8.789.898 8.789-.162 0-5.85 15.829-3.029 15.829 1.609 0 2.663 5.345 3.446 9.317.464 2.348.832 4.216 1.165 4.216 1.708 0 4.917 3.551 5.919 4.66.185.205.295.327.306.327-2.936 0 .941 12.312 3.527 12.312 1.543 0-5.584 14.32-6.07 14.32.406 0 .73.478.99 1.265.545 1.606.847 4.498 1.13 7.198.347 3.319.664 6.349 1.361 6.349.225 0-1.704 5.632-3.316 10.108-1.037 2.869-1.559 5.922-1.588 9.005-.033 3.827-.532 9.419-.625 10.137-.353 2.76 4.763 8.119 8.587 12.111-3.824 3.992-8.94 9.351-8.587 12.111.093.718.592 6.31.625 10.137.03 3.083.551 6.136 1.588 9.005 1.612 4.476 3.54 10.108 3.316 10.108-.697 0-1.014 3.03-1.361 6.349-.283 2.7-.585 5.592-1.13 7.198-.26.787-.584 1.265-.99 1.265.486 0 7.613 14.321 6.07 14.321-2.586 0-6.463 12.311-3.527 12.311-.01 0-.12.122-.306.327-1.002 1.109-4.21 4.66-5.92 4.66-.332 0-.7 1.869-1.164 4.217-.783 3.972-1.837 9.316-3.446 9.316-2.82 0 2.867 15.829 3.029 15.829-1.169 0-1.023 4.729-.898 8.789v.001c.094 3.055.177 5.732-.32 5.732-.614 0-1.088 3.5-1.576 7.109-.52 3.842-1.058 7.808-1.797 7.808-.112 0-.63 14.759 1.988 14.759-.877 0 .925 4.046 2.575 7.755l.001.002.001.001c1.395 3.134 2.682 6.025 2.153 6.025.837 0 .602 4.97.407 9.103-.138 2.943-.257 5.462.045 5.462 2.13 0 1.875 4.149 1.643 7.92-.193 3.14-.37 6.018.86 6.018-3.897 0-2.407 14.943-.303 14.943.125 0 .112 15.471-1.483 15.471.624 0 5.082 13.329 4.257 13.329-.888 0-.825 7.864-.79 12.282v.002c.014 1.724.024 2.923-.03 2.923a.24.24 0 0 1 .098.021c.056.024.112.07.167.137.393.484.687 2.035.872 3.952.416 4.338.267 10.556-.628 10.556.308 0 .208 1.381.07 3.278-.304 4.176-.79 10.859 2.487 10.859-.856 0-2.15 14.798.062 14.798 1.204 0 .31 3.869-.563 7.652-.835 3.617-1.652 7.156-.6 7.156-.046 0 .038.605.17 1.568.52 3.754 1.789 12.947-.968 12.947.162 0 1.675 4.428 2.704 8.488h3.249V0Z" clip-rule="evenodd"/>
</svg>