<svg xmlns="http://www.w3.org/2000/svg" width="131" height="20" fill="currentColor">
  <path fill-rule="evenodd" d="M5.783.5c-5.14 0-7.716 6.07-4.084 9.623l6.71 6.566H.48v2.831h13.218c5.142 0 7.717-6.074 4.08-9.626L11.06 3.331h7.952V.5H5.782Zm5.276 2.831H5.783c-2.56 0-3.842 3.023-2.034 4.792l6.716 6.571-2.046 1.995h5.278c2.56 0 3.843-3.024 2.032-4.793L9.011 5.332l2.048-2Z" clip-rule="evenodd"/>
  <path d="M37.304 4.444c-.065-.002-3.666-.003-3.732-.003-.676 0-1.282.063-1.818.189a4.325 4.325 0 0 0-1.383.565c-.386.241-.681.545-.885.911a2.543 2.543 0 0 0-.306 1.257c0 .492.097.91.29 1.256.204.335.472.618.804.848.343.22.724.409 1.142.566.43.157.869.293 1.32.408.45.115.884.23 1.302.346.43.115.81.246 1.142.392.343.147.612.33.805.55.203.22.305.497.305.832 0 .22-.048.414-.145.582a1.43 1.43 0 0 1-.402.44 2.73 2.73 0 0 1-.61.298 4.71 4.71 0 0 1-.757.172 7.764 7.764 0 0 1-.869.047H29.5v1.492h4.007c.89 0 1.679-.11 2.365-.33.697-.22 1.244-.57 1.64-1.052.398-.492.596-1.125.596-1.9 0-.492-.102-.906-.306-1.24a2.655 2.655 0 0 0-.82-.865 5.034 5.034 0 0 0-1.142-.58 12.548 12.548 0 0 0-1.303-.41c-.44-.125-.874-.24-1.303-.345-.418-.115-.799-.24-1.142-.377a2.655 2.655 0 0 1-.804-.486 1.01 1.01 0 0 1-.306-.754c0-.273.096-.503.29-.691.203-.2.498-.351.884-.456.386-.115.864-.173 1.432-.173.061 0 3.657.001 3.716.003V4.444Z"/>
  <path fill-rule="evenodd" d="M45.925 15.593c-1.137 0-2.124-.205-2.96-.613a4.316 4.316 0 0 1-1.914-1.853c-.44-.827-.66-1.864-.66-3.11 0-1.257.22-2.293.66-3.11a4.315 4.315 0 0 1 1.914-1.853c.836-.409 1.823-.613 2.96-.613 1.158 0 2.15.205 2.976.613a4.227 4.227 0 0 1 1.898 1.853c.45.817.675 1.853.675 3.11 0 1.246-.225 2.283-.675 3.11A4.228 4.228 0 0 1 48.9 14.98c-.826.408-1.818.613-2.976.613Zm0-1.492c.59 0 1.11-.079 1.56-.236a2.843 2.843 0 0 0 1.158-.723c.322-.324.563-.732.724-1.225.172-.492.257-1.062.257-1.712V9.86c0-.67-.085-1.251-.257-1.743-.16-.493-.402-.901-.724-1.226a2.843 2.843 0 0 0-1.158-.722c-.45-.157-.97-.236-1.56-.236-.58 0-1.1.079-1.56.236-.451.157-.837.398-1.159.722a3.156 3.156 0 0 0-.708 1.226c-.16.492-.24 1.073-.24 1.743v.345c0 .65.08 1.22.24 1.712.161.492.397.9.708 1.226.322.324.708.565 1.158.722.462.157.982.236 1.56.236Z" clip-rule="evenodd"/>
  <path d="M54.275 6.201v9.203h1.802v-4.586h5.501V9.326h-5.501v-2.56c0-.347.288-.628.644-.628h5.436V4.63h-6.272c-.889 0-1.61.703-1.61 1.571ZM67.535 15.404V6.138h-3.651V4.63h9.137v1.508h-3.684v9.266h-1.802Z"/>
  <path fill-rule="evenodd" d="M75.406 4.63v10.774h1.802v-4.162h3.828l2.091 4.162h1.963l-2.3-4.46a2.931 2.931 0 0 0 1.415-1.178c.333-.534.499-1.163.499-1.885 0-.65-.129-1.215-.386-1.696a2.688 2.688 0 0 0-1.158-1.147c-.515-.272-1.164-.408-1.947-.408h-5.807Zm5.663 5.136h-3.861V6.138h3.86c.397 0 .73.068.998.204.268.136.472.335.611.597.14.25.21.56.21.926 0 .597-.162 1.063-.483 1.398-.311.335-.756.503-1.335.503Z" clip-rule="evenodd"/>
  <path d="M90.562 15.404v-4.429L86.267 4.63h2.059l3.153 4.774h.08l3.12-4.774h1.98l-4.296 6.345v4.43h-1.801ZM98.042 14.54v.864h9.121v-1.508h-6.483l6.338-8.402V4.63H98.46v1.508h5.888l-6.306 8.402ZM111.39 15.404c-.889 0-1.609-.704-1.609-1.572v-7.63c0-.869.72-1.572 1.609-1.572h6.948v1.508h-6.112a.637.637 0 0 0-.644.628v2.371h6.049v1.508h-6.049v2.623c0 .347.289.628.644.628h6.209v1.508h-7.045ZM121.344 15.404V4.63h1.737l5.646 7.649h.08v-7.65h1.738v10.775h-1.673l-5.711-7.759h-.08v7.76h-1.737Z"/>
</svg>
